<svg width="144" height="442" viewBox="0 0 144 442" fill="none" xmlns="http://www.w3.org/2000/svg">
<path d="M3.6 64.5C3.6 57.84 4.65 52.08 6.75 47.22C8.91 42.3 11.88 38.52 15.66 35.88C19.5 33.24 23.94 31.92 28.98 31.92C34.14 31.92 38.61 33.24 42.39 35.88C46.23 38.52 49.17 42.3 51.21 47.22C53.31 52.08 54.36 57.84 54.36 64.5C54.36 71.16 53.31 76.92 51.21 81.78C49.17 86.64 46.23 90.42 42.39 93.12C38.61 95.76 34.14 97.08 28.98 97.08C23.94 97.08 19.5 95.76 15.66 93.12C11.88 90.42 8.91 86.64 6.75 81.78C4.65 76.92 3.6 71.16 3.6 64.5ZM16.2 64.5C16.2 70.86 17.37 75.99 19.71 79.89C22.05 83.79 25.14 85.74 28.98 85.74C32.88 85.74 35.97 83.79 38.25 79.89C40.59 75.99 41.76 70.86 41.76 64.5C41.76 58.08 40.59 52.95 38.25 49.11C35.97 45.21 32.88 43.26 28.98 43.26C25.14 43.26 22.05 45.21 19.71 49.11C17.37 52.95 16.2 58.08 16.2 64.5ZM64.312 49.47V37.86L91.942 31.92V96H79.342V45.6L64.312 49.47Z" fill="#E63E1A"/>
<path d="M38.2 135.5C38.2 133.28 38.55 131.36 39.25 129.74C39.97 128.1 40.96 126.84 42.22 125.96C43.5 125.08 44.98 124.64 46.66 124.64C48.38 124.64 49.87 125.08 51.13 125.96C52.41 126.84 53.39 128.1 54.07 129.74C54.77 131.36 55.12 133.28 55.12 135.5C55.12 137.72 54.77 139.64 54.07 141.26C53.39 142.88 52.41 144.14 51.13 145.04C49.87 145.92 48.38 146.36 46.66 146.36C44.98 146.36 43.5 145.92 42.22 145.04C40.96 144.14 39.97 142.88 39.25 141.26C38.55 139.64 38.2 137.72 38.2 135.5ZM42.4 135.5C42.4 137.62 42.79 139.33 43.57 140.63C44.35 141.93 45.38 142.58 46.66 142.58C47.96 142.58 48.99 141.93 49.75 140.63C50.53 139.33 50.92 137.62 50.92 135.5C50.92 133.36 50.53 131.65 49.75 130.37C48.99 129.07 47.96 128.42 46.66 128.42C45.38 128.42 44.35 129.07 43.57 130.37C42.79 131.65 42.4 133.36 42.4 135.5ZM56.8773 146L66.4173 136.04C67.2173 135.2 67.8373 134.42 68.2773 133.7C68.7173 132.98 68.9373 132.2 68.9373 131.36C68.9373 130.6 68.6673 129.92 68.1273 129.32C67.5873 128.7 66.7873 128.39 65.7273 128.39C64.6473 128.39 63.7873 128.78 63.1473 129.56C62.5273 130.34 62.2173 131.36 62.2173 132.62H57.9573C57.9573 131.12 58.2573 129.77 58.8573 128.57C59.4573 127.35 60.3473 126.39 61.5273 125.69C62.7073 124.97 64.1473 124.61 65.8473 124.61C67.1073 124.61 68.2073 124.81 69.1473 125.21C70.1073 125.59 70.8973 126.1 71.5173 126.74C72.1573 127.36 72.6273 128.05 72.9273 128.81C73.2473 129.57 73.4073 130.33 73.4073 131.09C73.4073 132.19 73.1273 133.24 72.5673 134.24C72.0273 135.22 71.3173 136.11 70.4373 136.91L65.0373 142.04H73.7973V146H56.8773Z" fill="#E63E1A"/>
<path d="M38.2 199.5C38.2 197.28 38.55 195.36 39.25 193.74C39.97 192.1 40.96 190.84 42.22 189.96C43.5 189.08 44.98 188.64 46.66 188.64C48.38 188.64 49.87 189.08 51.13 189.96C52.41 190.84 53.39 192.1 54.07 193.74C54.77 195.36 55.12 197.28 55.12 199.5C55.12 201.72 54.77 203.64 54.07 205.26C53.39 206.88 52.41 208.14 51.13 209.04C49.87 209.92 48.38 210.36 46.66 210.36C44.98 210.36 43.5 209.92 42.22 209.04C40.96 208.14 39.97 206.88 39.25 205.26C38.55 203.64 38.2 201.72 38.2 199.5ZM42.4 199.5C42.4 201.62 42.79 203.33 43.57 204.63C44.35 205.93 45.38 206.58 46.66 206.58C47.96 206.58 48.99 205.93 49.75 204.63C50.53 203.33 50.92 201.62 50.92 199.5C50.92 197.36 50.53 195.65 49.75 194.37C48.99 193.07 47.96 192.42 46.66 192.42C45.38 192.42 44.35 193.07 43.57 194.37C42.79 195.65 42.4 197.36 42.4 199.5ZM65.4873 210.42C63.9073 210.42 62.5373 210.11 61.3773 209.49C60.2373 208.85 59.3573 208.02 58.7373 207C58.1373 205.98 57.8373 204.87 57.8373 203.67H62.0973C62.0973 204.69 62.4473 205.48 63.1473 206.04C63.8473 206.58 64.6773 206.85 65.6373 206.85C66.5973 206.85 67.3773 206.6 67.9773 206.1C68.5973 205.6 68.9073 204.86 68.9073 203.88C68.9073 202.88 68.5073 202.09 67.7073 201.51C66.9273 200.93 65.7973 200.64 64.3173 200.64V197.7C65.5573 197.7 66.5273 197.4 67.2273 196.8C67.9473 196.18 68.3073 195.46 68.3073 194.64C68.3073 193.92 68.0873 193.33 67.6473 192.87C67.2273 192.41 66.5773 192.18 65.6973 192.18C64.8573 192.18 64.1473 192.44 63.5673 192.96C63.0073 193.46 62.7273 194.1 62.7273 194.88H58.7373C58.7373 193.68 59.0273 192.61 59.6073 191.67C60.1873 190.73 60.9973 189.99 62.0373 189.45C63.0973 188.91 64.3173 188.64 65.6973 188.64C67.1573 188.64 68.3973 188.9 69.4173 189.42C70.4573 189.94 71.2473 190.64 71.7873 191.52C72.3273 192.38 72.5973 193.34 72.5973 194.4C72.5973 195.48 72.2673 196.41 71.6073 197.19C70.9473 197.95 70.0573 198.55 68.9373 198.99C70.2373 199.41 71.2673 200.06 72.0273 200.94C72.8073 201.8 73.1973 202.93 73.1973 204.33C73.1973 205.53 72.8773 206.59 72.2373 207.51C71.6173 208.43 70.7273 209.15 69.5673 209.67C68.4273 210.17 67.0673 210.42 65.4873 210.42Z" fill="#E63E1A"/>
<path d="M38.2 264.5C38.2 262.28 38.55 260.36 39.25 258.74C39.97 257.1 40.96 255.84 42.22 254.96C43.5 254.08 44.98 253.64 46.66 253.64C48.38 253.64 49.87 254.08 51.13 254.96C52.41 255.84 53.39 257.1 54.07 258.74C54.77 260.36 55.12 262.28 55.12 264.5C55.12 266.72 54.77 268.64 54.07 270.26C53.39 271.88 52.41 273.14 51.13 274.04C49.87 274.92 48.38 275.36 46.66 275.36C44.98 275.36 43.5 274.92 42.22 274.04C40.96 273.14 39.97 271.88 39.25 270.26C38.55 268.64 38.2 266.72 38.2 264.5ZM42.4 264.5C42.4 266.62 42.79 268.33 43.57 269.63C44.35 270.93 45.38 271.58 46.66 271.58C47.96 271.58 48.99 270.93 49.75 269.63C50.53 268.33 50.92 266.62 50.92 264.5C50.92 262.36 50.53 260.65 49.75 259.37C48.99 258.07 47.96 257.42 46.66 257.42C45.38 257.42 44.35 258.07 43.57 259.37C42.79 260.65 42.4 262.36 42.4 264.5ZM56.7573 271.13L68.7573 254H71.7273V267.44H75.0273V271.13H71.7273V275H67.2573V271.13H56.7573ZM62.6973 267.92H67.6773V260.84L62.6973 267.92Z" fill="#E63E1A"/>
<path d="M38.2 393.5C38.2 391.28 38.55 389.36 39.25 387.74C39.97 386.1 40.96 384.84 42.22 383.96C43.5 383.08 44.98 382.64 46.66 382.64C48.38 382.64 49.87 383.08 51.13 383.96C52.41 384.84 53.39 386.1 54.07 387.74C54.77 389.36 55.12 391.28 55.12 393.5C55.12 395.72 54.77 397.64 54.07 399.26C53.39 400.88 52.41 402.14 51.13 403.04C49.87 403.92 48.38 404.36 46.66 404.36C44.98 404.36 43.5 403.92 42.22 403.04C40.96 402.14 39.97 400.88 39.25 399.26C38.55 397.64 38.2 395.72 38.2 393.5ZM42.4 393.5C42.4 395.62 42.79 397.33 43.57 398.63C44.35 399.93 45.38 400.58 46.66 400.58C47.96 400.58 48.99 399.93 49.75 398.63C50.53 397.33 50.92 395.62 50.92 393.5C50.92 391.36 50.53 389.65 49.75 388.37C48.99 387.07 47.96 386.42 46.66 386.42C45.38 386.42 44.35 387.07 43.57 388.37C42.79 389.65 42.4 391.36 42.4 393.5ZM66.2373 383.06H71.6973L65.5773 390.29C65.8773 390.17 66.1873 390.09 66.5073 390.05C66.8473 389.99 67.2173 389.96 67.6173 389.96C68.6973 389.96 69.7273 390.24 70.7073 390.8C71.6873 391.36 72.4873 392.15 73.1073 393.17C73.7273 394.19 74.0373 395.39 74.0373 396.77C74.0373 398.41 73.6673 399.8 72.9273 400.94C72.2073 402.08 71.2273 402.95 69.9873 403.55C68.7673 404.13 67.4073 404.42 65.9073 404.42C64.4073 404.42 63.0373 404.13 61.7973 403.55C60.5773 402.95 59.5973 402.08 58.8573 400.94C58.1373 399.8 57.7773 398.41 57.7773 396.77C57.7773 395.71 57.9773 394.73 58.3773 393.83C58.7773 392.93 59.2773 392.11 59.8773 391.37L66.2373 383.06ZM62.0073 396.77C62.0073 397.93 62.3773 398.88 63.1173 399.62C63.8773 400.34 64.8073 400.7 65.9073 400.7C67.0273 400.7 67.9473 400.34 68.6673 399.62C69.4073 398.88 69.7773 397.93 69.7773 396.77C69.7773 395.59 69.4073 394.63 68.6673 393.89C67.9473 393.15 67.0273 392.78 65.9073 392.78C64.8073 392.78 63.8773 393.15 63.1173 393.89C62.3773 394.63 62.0073 395.59 62.0073 396.77Z" fill="#E63E1A"/>
<path d="M38.2 329.5C38.2 327.28 38.55 325.36 39.25 323.74C39.97 322.1 40.96 320.84 42.22 319.96C43.5 319.08 44.98 318.64 46.66 318.64C48.38 318.64 49.87 319.08 51.13 319.96C52.41 320.84 53.39 322.1 54.07 323.74C54.77 325.36 55.12 327.28 55.12 329.5C55.12 331.72 54.77 333.64 54.07 335.26C53.39 336.88 52.41 338.14 51.13 339.04C49.87 339.92 48.38 340.36 46.66 340.36C44.98 340.36 43.5 339.92 42.22 339.04C40.96 338.14 39.97 336.88 39.25 335.26C38.55 333.64 38.2 331.72 38.2 329.5ZM42.4 329.5C42.4 331.62 42.79 333.33 43.57 334.63C44.35 335.93 45.38 336.58 46.66 336.58C47.96 336.58 48.99 335.93 49.75 334.63C50.53 333.33 50.92 331.62 50.92 329.5C50.92 327.36 50.53 325.65 49.75 324.37C48.99 323.07 47.96 322.42 46.66 322.42C45.38 322.42 44.35 323.07 43.57 324.37C42.79 325.65 42.4 327.36 42.4 329.5ZM73.6773 333.22C73.6773 334.44 73.4473 335.5 72.9873 336.4C72.5273 337.3 71.9073 338.04 71.1273 338.62C70.3673 339.2 69.5073 339.64 68.5473 339.94C67.5873 340.22 66.5973 340.36 65.5773 340.36C63.6373 340.36 62.0173 340.04 60.7173 339.4C59.4173 338.74 58.3173 337.98 57.4173 337.12L59.4573 333.76C60.1773 334.54 61.0173 335.18 61.9773 335.68C62.9373 336.16 63.8673 336.4 64.7673 336.4C66.1073 336.4 67.1473 336.1 67.8873 335.5C68.6473 334.88 69.0273 334 69.0273 332.86C69.0273 332.1 68.8273 331.46 68.4273 330.94C68.0273 330.42 67.4973 330.03 66.8373 329.77C66.1973 329.49 65.5073 329.35 64.7673 329.35C63.9073 329.35 62.9973 329.45 62.0373 329.65C61.0973 329.83 60.0973 330.22 59.0373 330.82L61.9173 319H73.3773V322.78H65.0973L63.8373 327.04C64.3773 326.76 64.9373 326.57 65.5173 326.47C66.1173 326.35 66.7273 326.29 67.3473 326.29C68.4873 326.29 69.5373 326.57 70.4973 327.13C71.4573 327.69 72.2273 328.49 72.8073 329.53C73.3873 330.55 73.6773 331.78 73.6773 333.22Z" fill="#E63E1A"/>
</svg>
