<svg width="144" height="409" viewBox="0 0 144 409" fill="none" xmlns="http://www.w3.org/2000/svg">
<path d="M3.6 91.5C3.6 84.84 4.65 79.08 6.75 74.22C8.91 69.3 11.88 65.52 15.66 62.88C19.5 60.24 23.94 58.92 28.98 58.92C34.14 58.92 38.61 60.24 42.39 62.88C46.23 65.52 49.17 69.3 51.21 74.22C53.31 79.08 54.36 84.84 54.36 91.5C54.36 98.16 53.31 103.92 51.21 108.78C49.17 113.64 46.23 117.42 42.39 120.12C38.61 122.76 34.14 124.08 28.98 124.08C23.94 124.08 19.5 122.76 15.66 120.12C11.88 117.42 8.91 113.64 6.75 108.78C4.65 103.92 3.6 98.16 3.6 91.5ZM16.2 91.5C16.2 97.86 17.37 102.99 19.71 106.89C22.05 110.79 25.14 112.74 28.98 112.74C32.88 112.74 35.97 110.79 38.25 106.89C40.59 102.99 41.76 97.86 41.76 91.5C41.76 85.08 40.59 79.95 38.25 76.11C35.97 72.21 32.88 70.26 28.98 70.26C25.14 70.26 22.05 72.21 19.71 76.11C17.37 79.95 16.2 85.08 16.2 91.5ZM59.632 123L88.252 93.12C90.652 90.6 92.512 88.26 93.832 86.1C95.152 83.94 95.812 81.6 95.812 79.08C95.812 76.8 95.002 74.76 93.382 72.96C91.762 71.1 89.362 70.17 86.182 70.17C82.942 70.17 80.362 71.34 78.442 73.68C76.582 76.02 75.652 79.08 75.652 82.86H62.872C62.872 78.36 63.772 74.31 65.572 70.71C67.372 67.05 70.042 64.17 73.582 62.07C77.122 59.91 81.442 58.83 86.542 58.83C90.322 58.83 93.622 59.43 96.442 60.63C99.322 61.77 101.692 63.3 103.552 65.22C105.472 67.08 106.882 69.15 107.782 71.43C108.742 73.71 109.222 75.99 109.222 78.27C109.222 81.57 108.382 84.72 106.702 87.72C105.082 90.66 102.952 93.33 100.312 95.73L84.112 111.12H110.392V123H59.632Z" fill="#E63E1A"/>
<path d="M39.2 21.5C39.2 19.28 39.55 17.36 40.25 15.74C40.97 14.1 41.96 12.84 43.22 11.96C44.5 11.08 45.98 10.64 47.66 10.64C49.38 10.64 50.87 11.08 52.13 11.96C53.41 12.84 54.39 14.1 55.07 15.74C55.77 17.36 56.12 19.28 56.12 21.5C56.12 23.72 55.77 25.64 55.07 27.26C54.39 28.88 53.41 30.14 52.13 31.04C50.87 31.92 49.38 32.36 47.66 32.36C45.98 32.36 44.5 31.92 43.22 31.04C41.96 30.14 40.97 28.88 40.25 27.26C39.55 25.64 39.2 23.72 39.2 21.5ZM43.4 21.5C43.4 23.62 43.79 25.33 44.57 26.63C45.35 27.93 46.38 28.58 47.66 28.58C48.96 28.58 49.99 27.93 50.75 26.63C51.53 25.33 51.92 23.62 51.92 21.5C51.92 19.36 51.53 17.65 50.75 16.37C49.99 15.07 48.96 14.42 47.66 14.42C46.38 14.42 45.35 15.07 44.57 16.37C43.79 17.65 43.4 19.36 43.4 21.5ZM59.4373 16.49V12.62L68.6473 10.64V32H64.4473V15.2L59.4373 16.49Z" fill="#E63E1A"/>
<path d="M43.2 166.5C43.2 164.28 43.55 162.36 44.25 160.74C44.97 159.1 45.96 157.84 47.22 156.96C48.5 156.08 49.98 155.64 51.66 155.64C53.38 155.64 54.87 156.08 56.13 156.96C57.41 157.84 58.39 159.1 59.07 160.74C59.77 162.36 60.12 164.28 60.12 166.5C60.12 168.72 59.77 170.64 59.07 172.26C58.39 173.88 57.41 175.14 56.13 176.04C54.87 176.92 53.38 177.36 51.66 177.36C49.98 177.36 48.5 176.92 47.22 176.04C45.96 175.14 44.97 173.88 44.25 172.26C43.55 170.64 43.2 168.72 43.2 166.5ZM47.4 166.5C47.4 168.62 47.79 170.33 48.57 171.63C49.35 172.93 50.38 173.58 51.66 173.58C52.96 173.58 53.99 172.93 54.75 171.63C55.53 170.33 55.92 168.62 55.92 166.5C55.92 164.36 55.53 162.65 54.75 161.37C53.99 160.07 52.96 159.42 51.66 159.42C50.38 159.42 49.35 160.07 48.57 161.37C47.79 162.65 47.4 164.36 47.4 166.5ZM70.4873 177.42C68.9073 177.42 67.5373 177.11 66.3773 176.49C65.2373 175.85 64.3573 175.02 63.7373 174C63.1373 172.98 62.8373 171.87 62.8373 170.67H67.0973C67.0973 171.69 67.4473 172.48 68.1473 173.04C68.8473 173.58 69.6773 173.85 70.6373 173.85C71.5973 173.85 72.3773 173.6 72.9773 173.1C73.5973 172.6 73.9073 171.86 73.9073 170.88C73.9073 169.88 73.5073 169.09 72.7073 168.51C71.9273 167.93 70.7973 167.64 69.3173 167.64V164.7C70.5573 164.7 71.5273 164.4 72.2273 163.8C72.9473 163.18 73.3073 162.46 73.3073 161.64C73.3073 160.92 73.0873 160.33 72.6473 159.87C72.2273 159.41 71.5773 159.18 70.6973 159.18C69.8573 159.18 69.1473 159.44 68.5673 159.96C68.0073 160.46 67.7273 161.1 67.7273 161.88H63.7373C63.7373 160.68 64.0273 159.61 64.6073 158.67C65.1873 157.73 65.9973 156.99 67.0373 156.45C68.0973 155.91 69.3173 155.64 70.6973 155.64C72.1573 155.64 73.3973 155.9 74.4173 156.42C75.4573 156.94 76.2473 157.64 76.7873 158.52C77.3273 159.38 77.5973 160.34 77.5973 161.4C77.5973 162.48 77.2673 163.41 76.6073 164.19C75.9473 164.95 75.0573 165.55 73.9373 165.99C75.2373 166.41 76.2673 167.06 77.0273 167.94C77.8073 168.8 78.1973 169.93 78.1973 171.33C78.1973 172.53 77.8773 173.59 77.2373 174.51C76.6173 175.43 75.7273 176.15 74.5673 176.67C73.4273 177.17 72.0673 177.42 70.4873 177.42Z" fill="#E63E1A"/>
<path d="M43.2 231.5C43.2 229.28 43.55 227.36 44.25 225.74C44.97 224.1 45.96 222.84 47.22 221.96C48.5 221.08 49.98 220.64 51.66 220.64C53.38 220.64 54.87 221.08 56.13 221.96C57.41 222.84 58.39 224.1 59.07 225.74C59.77 227.36 60.12 229.28 60.12 231.5C60.12 233.72 59.77 235.64 59.07 237.26C58.39 238.88 57.41 240.14 56.13 241.04C54.87 241.92 53.38 242.36 51.66 242.36C49.98 242.36 48.5 241.92 47.22 241.04C45.96 240.14 44.97 238.88 44.25 237.26C43.55 235.64 43.2 233.72 43.2 231.5ZM47.4 231.5C47.4 233.62 47.79 235.33 48.57 236.63C49.35 237.93 50.38 238.58 51.66 238.58C52.96 238.58 53.99 237.93 54.75 236.63C55.53 235.33 55.92 233.62 55.92 231.5C55.92 229.36 55.53 227.65 54.75 226.37C53.99 225.07 52.96 224.42 51.66 224.42C50.38 224.42 49.35 225.07 48.57 226.37C47.79 227.65 47.4 229.36 47.4 231.5ZM61.7573 238.13L73.7573 221H76.7273V234.44H80.0273V238.13H76.7273V242H72.2573V238.13H61.7573ZM67.6973 234.92H72.6773V227.84L67.6973 234.92Z" fill="#E63E1A"/>
<path d="M43.2 360.5C43.2 358.28 43.55 356.36 44.25 354.74C44.97 353.1 45.96 351.84 47.22 350.96C48.5 350.08 49.98 349.64 51.66 349.64C53.38 349.64 54.87 350.08 56.13 350.96C57.41 351.84 58.39 353.1 59.07 354.74C59.77 356.36 60.12 358.28 60.12 360.5C60.12 362.72 59.77 364.64 59.07 366.26C58.39 367.88 57.41 369.14 56.13 370.04C54.87 370.92 53.38 371.36 51.66 371.36C49.98 371.36 48.5 370.92 47.22 370.04C45.96 369.14 44.97 367.88 44.25 366.26C43.55 364.64 43.2 362.72 43.2 360.5ZM47.4 360.5C47.4 362.62 47.79 364.33 48.57 365.63C49.35 366.93 50.38 367.58 51.66 367.58C52.96 367.58 53.99 366.93 54.75 365.63C55.53 364.33 55.92 362.62 55.92 360.5C55.92 358.36 55.53 356.65 54.75 355.37C53.99 354.07 52.96 353.42 51.66 353.42C50.38 353.42 49.35 354.07 48.57 355.37C47.79 356.65 47.4 358.36 47.4 360.5ZM71.2373 350.06H76.6973L70.5773 357.29C70.8773 357.17 71.1873 357.09 71.5073 357.05C71.8473 356.99 72.2173 356.96 72.6173 356.96C73.6973 356.96 74.7273 357.24 75.7073 357.8C76.6873 358.36 77.4873 359.15 78.1073 360.17C78.7273 361.19 79.0373 362.39 79.0373 363.77C79.0373 365.41 78.6673 366.8 77.9273 367.94C77.2073 369.08 76.2273 369.95 74.9873 370.55C73.7673 371.13 72.4073 371.42 70.9073 371.42C69.4073 371.42 68.0373 371.13 66.7973 370.55C65.5773 369.95 64.5973 369.08 63.8573 367.94C63.1373 366.8 62.7773 365.41 62.7773 363.77C62.7773 362.71 62.9773 361.73 63.3773 360.83C63.7773 359.93 64.2773 359.11 64.8773 358.37L71.2373 350.06ZM67.0073 363.77C67.0073 364.93 67.3773 365.88 68.1173 366.62C68.8773 367.34 69.8073 367.7 70.9073 367.7C72.0273 367.7 72.9473 367.34 73.6673 366.62C74.4073 365.88 74.7773 364.93 74.7773 363.77C74.7773 362.59 74.4073 361.63 73.6673 360.89C72.9473 360.15 72.0273 359.78 70.9073 359.78C69.8073 359.78 68.8773 360.15 68.1173 360.89C67.3773 361.63 67.0073 362.59 67.0073 363.77Z" fill="#E63E1A"/>
<path d="M43.2 296.5C43.2 294.28 43.55 292.36 44.25 290.74C44.97 289.1 45.96 287.84 47.22 286.96C48.5 286.08 49.98 285.64 51.66 285.64C53.38 285.64 54.87 286.08 56.13 286.96C57.41 287.84 58.39 289.1 59.07 290.74C59.77 292.36 60.12 294.28 60.12 296.5C60.12 298.72 59.77 300.64 59.07 302.26C58.39 303.88 57.41 305.14 56.13 306.04C54.87 306.92 53.38 307.36 51.66 307.36C49.98 307.36 48.5 306.92 47.22 306.04C45.96 305.14 44.97 303.88 44.25 302.26C43.55 300.64 43.2 298.72 43.2 296.5ZM47.4 296.5C47.4 298.62 47.79 300.33 48.57 301.63C49.35 302.93 50.38 303.58 51.66 303.58C52.96 303.58 53.99 302.93 54.75 301.63C55.53 300.33 55.92 298.62 55.92 296.5C55.92 294.36 55.53 292.65 54.75 291.37C53.99 290.07 52.96 289.42 51.66 289.42C50.38 289.42 49.35 290.07 48.57 291.37C47.79 292.65 47.4 294.36 47.4 296.5ZM78.6773 300.22C78.6773 301.44 78.4473 302.5 77.9873 303.4C77.5273 304.3 76.9073 305.04 76.1273 305.62C75.3673 306.2 74.5073 306.64 73.5473 306.94C72.5873 307.22 71.5973 307.36 70.5773 307.36C68.6373 307.36 67.0173 307.04 65.7173 306.4C64.4173 305.74 63.3173 304.98 62.4173 304.12L64.4573 300.76C65.1773 301.54 66.0173 302.18 66.9773 302.68C67.9373 303.16 68.8673 303.4 69.7673 303.4C71.1073 303.4 72.1473 303.1 72.8873 302.5C73.6473 301.88 74.0273 301 74.0273 299.86C74.0273 299.1 73.8273 298.46 73.4273 297.94C73.0273 297.42 72.4973 297.03 71.8373 296.77C71.1973 296.49 70.5073 296.35 69.7673 296.35C68.9073 296.35 67.9973 296.45 67.0373 296.65C66.0973 296.83 65.0973 297.22 64.0373 297.82L66.9173 286H78.3773V289.78H70.0973L68.8373 294.04C69.3773 293.76 69.9373 293.57 70.5173 293.47C71.1173 293.35 71.7273 293.29 72.3473 293.29C73.4873 293.29 74.5373 293.57 75.4973 294.13C76.4573 294.69 77.2273 295.49 77.8073 296.53C78.3873 297.55 78.6773 298.78 78.6773 300.22Z" fill="#E63E1A"/>
</svg>
