<svg width="144" height="409" viewBox="0 0 144 409" fill="none" xmlns="http://www.w3.org/2000/svg">
<path d="M3.6 163.5C3.6 156.84 4.65 151.08 6.75 146.22C8.91 141.3 11.88 137.52 15.66 134.88C19.5 132.24 23.94 130.92 28.98 130.92C34.14 130.92 38.61 132.24 42.39 134.88C46.23 137.52 49.17 141.3 51.21 146.22C53.31 151.08 54.36 156.84 54.36 163.5C54.36 170.16 53.31 175.92 51.21 180.78C49.17 185.64 46.23 189.42 42.39 192.12C38.61 194.76 34.14 196.08 28.98 196.08C23.94 196.08 19.5 194.76 15.66 192.12C11.88 189.42 8.91 185.64 6.75 180.78C4.65 175.92 3.6 170.16 3.6 163.5ZM16.2 163.5C16.2 169.86 17.37 174.99 19.71 178.89C22.05 182.79 25.14 184.74 28.98 184.74C32.88 184.74 35.97 182.79 38.25 178.89C40.59 174.99 41.76 169.86 41.76 163.5C41.76 157.08 40.59 151.95 38.25 148.11C35.97 144.21 32.88 142.26 28.98 142.26C25.14 142.26 22.05 144.21 19.71 148.11C17.37 151.95 16.2 157.08 16.2 163.5ZM85.462 196.26C80.722 196.26 76.612 195.33 73.132 193.47C69.712 191.55 67.072 189.06 65.212 186C63.412 182.94 62.512 179.61 62.512 176.01H75.292C75.292 179.07 76.342 181.44 78.442 183.12C80.542 184.74 83.032 185.55 85.912 185.55C88.792 185.55 91.132 184.8 92.932 183.3C94.792 181.8 95.722 179.58 95.722 176.64C95.722 173.64 94.522 171.27 92.122 169.53C89.782 167.79 86.392 166.92 81.952 166.92V158.1C85.672 158.1 88.582 157.2 90.682 155.4C92.842 153.54 93.922 151.38 93.922 148.92C93.922 146.76 93.262 144.99 91.942 143.61C90.682 142.23 88.732 141.54 86.092 141.54C83.572 141.54 81.442 142.32 79.702 143.88C78.022 145.38 77.182 147.3 77.182 149.64H65.212C65.212 146.04 66.082 142.83 67.822 140.01C69.562 137.19 71.992 134.97 75.112 133.35C78.292 131.73 81.952 130.92 86.092 130.92C90.472 130.92 94.192 131.7 97.252 133.26C100.372 134.82 102.742 136.92 104.362 139.56C105.982 142.14 106.792 145.02 106.792 148.2C106.792 151.44 105.802 154.23 103.822 156.57C101.842 158.85 99.172 160.65 95.812 161.97C99.712 163.23 102.802 165.18 105.082 167.82C107.422 170.4 108.592 173.79 108.592 177.99C108.592 181.59 107.632 184.77 105.712 187.53C103.852 190.29 101.182 192.45 97.702 194.01C94.282 195.51 90.202 196.26 85.462 196.26Z" fill="#E63E1A"/>
<path d="M36.2 21.5C36.2 19.28 36.55 17.36 37.25 15.74C37.97 14.1 38.96 12.84 40.22 11.96C41.5 11.08 42.98 10.64 44.66 10.64C46.38 10.64 47.87 11.08 49.13 11.96C50.41 12.84 51.39 14.1 52.07 15.74C52.77 17.36 53.12 19.28 53.12 21.5C53.12 23.72 52.77 25.64 52.07 27.26C51.39 28.88 50.41 30.14 49.13 31.04C47.87 31.92 46.38 32.36 44.66 32.36C42.98 32.36 41.5 31.92 40.22 31.04C38.96 30.14 37.97 28.88 37.25 27.26C36.55 25.64 36.2 23.72 36.2 21.5ZM40.4 21.5C40.4 23.62 40.79 25.33 41.57 26.63C42.35 27.93 43.38 28.58 44.66 28.58C45.96 28.58 46.99 27.93 47.75 26.63C48.53 25.33 48.92 23.62 48.92 21.5C48.92 19.36 48.53 17.65 47.75 16.37C46.99 15.07 45.96 14.42 44.66 14.42C43.38 14.42 42.35 15.07 41.57 16.37C40.79 17.65 40.4 19.36 40.4 21.5ZM56.4373 16.49V12.62L65.6473 10.64V32H61.4473V15.2L56.4373 16.49Z" fill="#E63E1A"/>
<path d="M36.2 84.5C36.2 82.28 36.55 80.36 37.25 78.74C37.97 77.1 38.96 75.84 40.22 74.96C41.5 74.08 42.98 73.64 44.66 73.64C46.38 73.64 47.87 74.08 49.13 74.96C50.41 75.84 51.39 77.1 52.07 78.74C52.77 80.36 53.12 82.28 53.12 84.5C53.12 86.72 52.77 88.64 52.07 90.26C51.39 91.88 50.41 93.14 49.13 94.04C47.87 94.92 46.38 95.36 44.66 95.36C42.98 95.36 41.5 94.92 40.22 94.04C38.96 93.14 37.97 91.88 37.25 90.26C36.55 88.64 36.2 86.72 36.2 84.5ZM40.4 84.5C40.4 86.62 40.79 88.33 41.57 89.63C42.35 90.93 43.38 91.58 44.66 91.58C45.96 91.58 46.99 90.93 47.75 89.63C48.53 88.33 48.92 86.62 48.92 84.5C48.92 82.36 48.53 80.65 47.75 79.37C46.99 78.07 45.96 77.42 44.66 77.42C43.38 77.42 42.35 78.07 41.57 79.37C40.79 80.65 40.4 82.36 40.4 84.5ZM54.8773 95L64.4173 85.04C65.2173 84.2 65.8373 83.42 66.2773 82.7C66.7173 81.98 66.9373 81.2 66.9373 80.36C66.9373 79.6 66.6673 78.92 66.1273 78.32C65.5873 77.7 64.7873 77.39 63.7273 77.39C62.6473 77.39 61.7873 77.78 61.1473 78.56C60.5273 79.34 60.2173 80.36 60.2173 81.62H55.9573C55.9573 80.12 56.2573 78.77 56.8573 77.57C57.4573 76.35 58.3473 75.39 59.5273 74.69C60.7073 73.97 62.1473 73.61 63.8473 73.61C65.1073 73.61 66.2073 73.81 67.1473 74.21C68.1073 74.59 68.8973 75.1 69.5173 75.74C70.1573 76.36 70.6273 77.05 70.9273 77.81C71.2473 78.57 71.4073 79.33 71.4073 80.09C71.4073 81.19 71.1273 82.24 70.5673 83.24C70.0273 84.22 69.3173 85.11 68.4373 85.91L63.0373 91.04H71.7973V95H54.8773Z" fill="#E63E1A"/>
<path d="M36.2 231.5C36.2 229.28 36.55 227.36 37.25 225.74C37.97 224.1 38.96 222.84 40.22 221.96C41.5 221.08 42.98 220.64 44.66 220.64C46.38 220.64 47.87 221.08 49.13 221.96C50.41 222.84 51.39 224.1 52.07 225.74C52.77 227.36 53.12 229.28 53.12 231.5C53.12 233.72 52.77 235.64 52.07 237.26C51.39 238.88 50.41 240.14 49.13 241.04C47.87 241.92 46.38 242.36 44.66 242.36C42.98 242.36 41.5 241.92 40.22 241.04C38.96 240.14 37.97 238.88 37.25 237.26C36.55 235.64 36.2 233.72 36.2 231.5ZM40.4 231.5C40.4 233.62 40.79 235.33 41.57 236.63C42.35 237.93 43.38 238.58 44.66 238.58C45.96 238.58 46.99 237.93 47.75 236.63C48.53 235.33 48.92 233.62 48.92 231.5C48.92 229.36 48.53 227.65 47.75 226.37C46.99 225.07 45.96 224.42 44.66 224.42C43.38 224.42 42.35 225.07 41.57 226.37C40.79 227.65 40.4 229.36 40.4 231.5ZM54.7573 238.13L66.7573 221H69.7273V234.44H73.0273V238.13H69.7273V242H65.2573V238.13H54.7573ZM60.6973 234.92H65.6773V227.84L60.6973 234.92Z" fill="#E63E1A"/>
<path d="M36.2 360.5C36.2 358.28 36.55 356.36 37.25 354.74C37.97 353.1 38.96 351.84 40.22 350.96C41.5 350.08 42.98 349.64 44.66 349.64C46.38 349.64 47.87 350.08 49.13 350.96C50.41 351.84 51.39 353.1 52.07 354.74C52.77 356.36 53.12 358.28 53.12 360.5C53.12 362.72 52.77 364.64 52.07 366.26C51.39 367.88 50.41 369.14 49.13 370.04C47.87 370.92 46.38 371.36 44.66 371.36C42.98 371.36 41.5 370.92 40.22 370.04C38.96 369.14 37.97 367.88 37.25 366.26C36.55 364.64 36.2 362.72 36.2 360.5ZM40.4 360.5C40.4 362.62 40.79 364.33 41.57 365.63C42.35 366.93 43.38 367.58 44.66 367.58C45.96 367.58 46.99 366.93 47.75 365.63C48.53 364.33 48.92 362.62 48.92 360.5C48.92 358.36 48.53 356.65 47.75 355.37C46.99 354.07 45.96 353.42 44.66 353.42C43.38 353.42 42.35 354.07 41.57 355.37C40.79 356.65 40.4 358.36 40.4 360.5ZM64.2373 350.06H69.6973L63.5773 357.29C63.8773 357.17 64.1873 357.09 64.5073 357.05C64.8473 356.99 65.2173 356.96 65.6173 356.96C66.6973 356.96 67.7273 357.24 68.7073 357.8C69.6873 358.36 70.4873 359.15 71.1073 360.17C71.7273 361.19 72.0373 362.39 72.0373 363.77C72.0373 365.41 71.6673 366.8 70.9273 367.94C70.2073 369.08 69.2273 369.95 67.9873 370.55C66.7673 371.13 65.4073 371.42 63.9073 371.42C62.4073 371.42 61.0373 371.13 59.7973 370.55C58.5773 369.95 57.5973 369.08 56.8573 367.94C56.1373 366.8 55.7773 365.41 55.7773 363.77C55.7773 362.71 55.9773 361.73 56.3773 360.83C56.7773 359.93 57.2773 359.11 57.8773 358.37L64.2373 350.06ZM60.0073 363.77C60.0073 364.93 60.3773 365.88 61.1173 366.62C61.8773 367.34 62.8073 367.7 63.9073 367.7C65.0273 367.7 65.9473 367.34 66.6673 366.62C67.4073 365.88 67.7773 364.93 67.7773 363.77C67.7773 362.59 67.4073 361.63 66.6673 360.89C65.9473 360.15 65.0273 359.78 63.9073 359.78C62.8073 359.78 61.8773 360.15 61.1173 360.89C60.3773 361.63 60.0073 362.59 60.0073 363.77Z" fill="#E63E1A"/>
<path d="M36.2 296.5C36.2 294.28 36.55 292.36 37.25 290.74C37.97 289.1 38.96 287.84 40.22 286.96C41.5 286.08 42.98 285.64 44.66 285.64C46.38 285.64 47.87 286.08 49.13 286.96C50.41 287.84 51.39 289.1 52.07 290.74C52.77 292.36 53.12 294.28 53.12 296.5C53.12 298.72 52.77 300.64 52.07 302.26C51.39 303.88 50.41 305.14 49.13 306.04C47.87 306.92 46.38 307.36 44.66 307.36C42.98 307.36 41.5 306.92 40.22 306.04C38.96 305.14 37.97 303.88 37.25 302.26C36.55 300.64 36.2 298.72 36.2 296.5ZM40.4 296.5C40.4 298.62 40.79 300.33 41.57 301.63C42.35 302.93 43.38 303.58 44.66 303.58C45.96 303.58 46.99 302.93 47.75 301.63C48.53 300.33 48.92 298.62 48.92 296.5C48.92 294.36 48.53 292.65 47.75 291.37C46.99 290.07 45.96 289.42 44.66 289.42C43.38 289.42 42.35 290.07 41.57 291.37C40.79 292.65 40.4 294.36 40.4 296.5ZM71.6773 300.22C71.6773 301.44 71.4473 302.5 70.9873 303.4C70.5273 304.3 69.9073 305.04 69.1273 305.62C68.3673 306.2 67.5073 306.64 66.5473 306.94C65.5873 307.22 64.5973 307.36 63.5773 307.36C61.6373 307.36 60.0173 307.04 58.7173 306.4C57.4173 305.74 56.3173 304.98 55.4173 304.12L57.4573 300.76C58.1773 301.54 59.0173 302.18 59.9773 302.68C60.9373 303.16 61.8673 303.4 62.7673 303.4C64.1073 303.4 65.1473 303.1 65.8873 302.5C66.6473 301.88 67.0273 301 67.0273 299.86C67.0273 299.1 66.8273 298.46 66.4273 297.94C66.0273 297.42 65.4973 297.03 64.8373 296.77C64.1973 296.49 63.5073 296.35 62.7673 296.35C61.9073 296.35 60.9973 296.45 60.0373 296.65C59.0973 296.83 58.0973 297.22 57.0373 297.82L59.9173 286H71.3773V289.78H63.0973L61.8373 294.04C62.3773 293.76 62.9373 293.57 63.5173 293.47C64.1173 293.35 64.7273 293.29 65.3473 293.29C66.4873 293.29 67.5373 293.57 68.4973 294.13C69.4573 294.69 70.2273 295.49 70.8073 296.53C71.3873 297.55 71.6773 298.78 71.6773 300.22Z" fill="#E63E1A"/>
</svg>
