<svg width="144" height="409" viewBox="0 0 144 409" fill="none" xmlns="http://www.w3.org/2000/svg">
<path d="M3.6 223.5C3.6 216.84 4.65 211.08 6.75 206.22C8.91 201.3 11.88 197.52 15.66 194.88C19.5 192.24 23.94 190.92 28.98 190.92C34.14 190.92 38.61 192.24 42.39 194.88C46.23 197.52 49.17 201.3 51.21 206.22C53.31 211.08 54.36 216.84 54.36 223.5C54.36 230.16 53.31 235.92 51.21 240.78C49.17 245.64 46.23 249.42 42.39 252.12C38.61 254.76 34.14 256.08 28.98 256.08C23.94 256.08 19.5 254.76 15.66 252.12C11.88 249.42 8.91 245.64 6.75 240.78C4.65 235.92 3.6 230.16 3.6 223.5ZM16.2 223.5C16.2 229.86 17.37 234.99 19.71 238.89C22.05 242.79 25.14 244.74 28.98 244.74C32.88 244.74 35.97 242.79 38.25 238.89C40.59 234.99 41.76 229.86 41.76 223.5C41.76 217.08 40.59 211.95 38.25 208.11C35.97 204.21 32.88 202.26 28.98 202.26C25.14 202.26 22.05 204.21 19.71 208.11C17.37 211.95 16.2 217.08 16.2 223.5ZM59.272 243.39L95.272 192H104.182V232.32H114.082V243.39H104.182V255H90.772V243.39H59.272ZM77.092 233.76H92.032V212.52L77.092 233.76Z" fill="#E63E1A"/>
<path d="M42.2 21.5C42.2 19.28 42.55 17.36 43.25 15.74C43.97 14.1 44.96 12.84 46.22 11.96C47.5 11.08 48.98 10.64 50.66 10.64C52.38 10.64 53.87 11.08 55.13 11.96C56.41 12.84 57.39 14.1 58.07 15.74C58.77 17.36 59.12 19.28 59.12 21.5C59.12 23.72 58.77 25.64 58.07 27.26C57.39 28.88 56.41 30.14 55.13 31.04C53.87 31.92 52.38 32.36 50.66 32.36C48.98 32.36 47.5 31.92 46.22 31.04C44.96 30.14 43.97 28.88 43.25 27.26C42.55 25.64 42.2 23.72 42.2 21.5ZM46.4 21.5C46.4 23.62 46.79 25.33 47.57 26.63C48.35 27.93 49.38 28.58 50.66 28.58C51.96 28.58 52.99 27.93 53.75 26.63C54.53 25.33 54.92 23.62 54.92 21.5C54.92 19.36 54.53 17.65 53.75 16.37C52.99 15.07 51.96 14.42 50.66 14.42C49.38 14.42 48.35 15.07 47.57 16.37C46.79 17.65 46.4 19.36 46.4 21.5ZM62.4373 16.49V12.62L71.6473 10.64V32H67.4473V15.2L62.4373 16.49Z" fill="#E63E1A"/>
<path d="M42.2 85.5C42.2 83.28 42.55 81.36 43.25 79.74C43.97 78.1 44.96 76.84 46.22 75.96C47.5 75.08 48.98 74.64 50.66 74.64C52.38 74.64 53.87 75.08 55.13 75.96C56.41 76.84 57.39 78.1 58.07 79.74C58.77 81.36 59.12 83.28 59.12 85.5C59.12 87.72 58.77 89.64 58.07 91.26C57.39 92.88 56.41 94.14 55.13 95.04C53.87 95.92 52.38 96.36 50.66 96.36C48.98 96.36 47.5 95.92 46.22 95.04C44.96 94.14 43.97 92.88 43.25 91.26C42.55 89.64 42.2 87.72 42.2 85.5ZM46.4 85.5C46.4 87.62 46.79 89.33 47.57 90.63C48.35 91.93 49.38 92.58 50.66 92.58C51.96 92.58 52.99 91.93 53.75 90.63C54.53 89.33 54.92 87.62 54.92 85.5C54.92 83.36 54.53 81.65 53.75 80.37C52.99 79.07 51.96 78.42 50.66 78.42C49.38 78.42 48.35 79.07 47.57 80.37C46.79 81.65 46.4 83.36 46.4 85.5ZM60.8773 96L70.4173 86.04C71.2173 85.2 71.8373 84.42 72.2773 83.7C72.7173 82.98 72.9373 82.2 72.9373 81.36C72.9373 80.6 72.6673 79.92 72.1273 79.32C71.5873 78.7 70.7873 78.39 69.7273 78.39C68.6473 78.39 67.7873 78.78 67.1473 79.56C66.5273 80.34 66.2173 81.36 66.2173 82.62H61.9573C61.9573 81.12 62.2573 79.77 62.8573 78.57C63.4573 77.35 64.3473 76.39 65.5273 75.69C66.7073 74.97 68.1473 74.61 69.8473 74.61C71.1073 74.61 72.2073 74.81 73.1473 75.21C74.1073 75.59 74.8973 76.1 75.5173 76.74C76.1573 77.36 76.6273 78.05 76.9273 78.81C77.2473 79.57 77.4073 80.33 77.4073 81.09C77.4073 82.19 77.1273 83.24 76.5673 84.24C76.0273 85.22 75.3173 86.11 74.4373 86.91L69.0373 92.04H77.7973V96H60.8773Z" fill="#E63E1A"/>
<path d="M42.2 150.5C42.2 148.28 42.55 146.36 43.25 144.74C43.97 143.1 44.96 141.84 46.22 140.96C47.5 140.08 48.98 139.64 50.66 139.64C52.38 139.64 53.87 140.08 55.13 140.96C56.41 141.84 57.39 143.1 58.07 144.74C58.77 146.36 59.12 148.28 59.12 150.5C59.12 152.72 58.77 154.64 58.07 156.26C57.39 157.88 56.41 159.14 55.13 160.04C53.87 160.92 52.38 161.36 50.66 161.36C48.98 161.36 47.5 160.92 46.22 160.04C44.96 159.14 43.97 157.88 43.25 156.26C42.55 154.64 42.2 152.72 42.2 150.5ZM46.4 150.5C46.4 152.62 46.79 154.33 47.57 155.63C48.35 156.93 49.38 157.58 50.66 157.58C51.96 157.58 52.99 156.93 53.75 155.63C54.53 154.33 54.92 152.62 54.92 150.5C54.92 148.36 54.53 146.65 53.75 145.37C52.99 144.07 51.96 143.42 50.66 143.42C49.38 143.42 48.35 144.07 47.57 145.37C46.79 146.65 46.4 148.36 46.4 150.5ZM69.4873 161.42C67.9073 161.42 66.5373 161.11 65.3773 160.49C64.2373 159.85 63.3573 159.02 62.7373 158C62.1373 156.98 61.8373 155.87 61.8373 154.67H66.0973C66.0973 155.69 66.4473 156.48 67.1473 157.04C67.8473 157.58 68.6773 157.85 69.6373 157.85C70.5973 157.85 71.3773 157.6 71.9773 157.1C72.5973 156.6 72.9073 155.86 72.9073 154.88C72.9073 153.88 72.5073 153.09 71.7073 152.51C70.9273 151.93 69.7973 151.64 68.3173 151.64V148.7C69.5573 148.7 70.5273 148.4 71.2273 147.8C71.9473 147.18 72.3073 146.46 72.3073 145.64C72.3073 144.92 72.0873 144.33 71.6473 143.87C71.2273 143.41 70.5773 143.18 69.6973 143.18C68.8573 143.18 68.1473 143.44 67.5673 143.96C67.0073 144.46 66.7273 145.1 66.7273 145.88H62.7373C62.7373 144.68 63.0273 143.61 63.6073 142.67C64.1873 141.73 64.9973 140.99 66.0373 140.45C67.0973 139.91 68.3173 139.64 69.6973 139.64C71.1573 139.64 72.3973 139.9 73.4173 140.42C74.4573 140.94 75.2473 141.64 75.7873 142.52C76.3273 143.38 76.5973 144.34 76.5973 145.4C76.5973 146.48 76.2673 147.41 75.6073 148.19C74.9473 148.95 74.0573 149.55 72.9373 149.99C74.2373 150.41 75.2673 151.06 76.0273 151.94C76.8073 152.8 77.1973 153.93 77.1973 155.33C77.1973 156.53 76.8773 157.59 76.2373 158.51C75.6173 159.43 74.7273 160.15 73.5673 160.67C72.4273 161.17 71.0673 161.42 69.4873 161.42Z" fill="#E63E1A"/>
<path d="M42.2 360.5C42.2 358.28 42.55 356.36 43.25 354.74C43.97 353.1 44.96 351.84 46.22 350.96C47.5 350.08 48.98 349.64 50.66 349.64C52.38 349.64 53.87 350.08 55.13 350.96C56.41 351.84 57.39 353.1 58.07 354.74C58.77 356.36 59.12 358.28 59.12 360.5C59.12 362.72 58.77 364.64 58.07 366.26C57.39 367.88 56.41 369.14 55.13 370.04C53.87 370.92 52.38 371.36 50.66 371.36C48.98 371.36 47.5 370.92 46.22 370.04C44.96 369.14 43.97 367.88 43.25 366.26C42.55 364.64 42.2 362.72 42.2 360.5ZM46.4 360.5C46.4 362.62 46.79 364.33 47.57 365.63C48.35 366.93 49.38 367.58 50.66 367.58C51.96 367.58 52.99 366.93 53.75 365.63C54.53 364.33 54.92 362.62 54.92 360.5C54.92 358.36 54.53 356.65 53.75 355.37C52.99 354.07 51.96 353.42 50.66 353.42C49.38 353.42 48.35 354.07 47.57 355.37C46.79 356.65 46.4 358.36 46.4 360.5ZM70.2373 350.06H75.6973L69.5773 357.29C69.8773 357.17 70.1873 357.09 70.5073 357.05C70.8473 356.99 71.2173 356.96 71.6173 356.96C72.6973 356.96 73.7273 357.24 74.7073 357.8C75.6873 358.36 76.4873 359.15 77.1073 360.17C77.7273 361.19 78.0373 362.39 78.0373 363.77C78.0373 365.41 77.6673 366.8 76.9273 367.94C76.2073 369.08 75.2273 369.95 73.9873 370.55C72.7673 371.13 71.4073 371.42 69.9073 371.42C68.4073 371.42 67.0373 371.13 65.7973 370.55C64.5773 369.95 63.5973 369.08 62.8573 367.94C62.1373 366.8 61.7773 365.41 61.7773 363.77C61.7773 362.71 61.9773 361.73 62.3773 360.83C62.7773 359.93 63.2773 359.11 63.8773 358.37L70.2373 350.06ZM66.0073 363.77C66.0073 364.93 66.3773 365.88 67.1173 366.62C67.8773 367.34 68.8073 367.7 69.9073 367.7C71.0273 367.7 71.9473 367.34 72.6673 366.62C73.4073 365.88 73.7773 364.93 73.7773 363.77C73.7773 362.59 73.4073 361.63 72.6673 360.89C71.9473 360.15 71.0273 359.78 69.9073 359.78C68.8073 359.78 67.8773 360.15 67.1173 360.89C66.3773 361.63 66.0073 362.59 66.0073 363.77Z" fill="#E63E1A"/>
<path d="M42.2 296.5C42.2 294.28 42.55 292.36 43.25 290.74C43.97 289.1 44.96 287.84 46.22 286.96C47.5 286.08 48.98 285.64 50.66 285.64C52.38 285.64 53.87 286.08 55.13 286.96C56.41 287.84 57.39 289.1 58.07 290.74C58.77 292.36 59.12 294.28 59.12 296.5C59.12 298.72 58.77 300.64 58.07 302.26C57.39 303.88 56.41 305.14 55.13 306.04C53.87 306.92 52.38 307.36 50.66 307.36C48.98 307.36 47.5 306.92 46.22 306.04C44.96 305.14 43.97 303.88 43.25 302.26C42.55 300.64 42.2 298.72 42.2 296.5ZM46.4 296.5C46.4 298.62 46.79 300.33 47.57 301.63C48.35 302.93 49.38 303.58 50.66 303.58C51.96 303.58 52.99 302.93 53.75 301.63C54.53 300.33 54.92 298.62 54.92 296.5C54.92 294.36 54.53 292.65 53.75 291.37C52.99 290.07 51.96 289.42 50.66 289.42C49.38 289.42 48.35 290.07 47.57 291.37C46.79 292.65 46.4 294.36 46.4 296.5ZM77.6773 300.22C77.6773 301.44 77.4473 302.5 76.9873 303.4C76.5273 304.3 75.9073 305.04 75.1273 305.62C74.3673 306.2 73.5073 306.64 72.5473 306.94C71.5873 307.22 70.5973 307.36 69.5773 307.36C67.6373 307.36 66.0173 307.04 64.7173 306.4C63.4173 305.74 62.3173 304.98 61.4173 304.12L63.4573 300.76C64.1773 301.54 65.0173 302.18 65.9773 302.68C66.9373 303.16 67.8673 303.4 68.7673 303.4C70.1073 303.4 71.1473 303.1 71.8873 302.5C72.6473 301.88 73.0273 301 73.0273 299.86C73.0273 299.1 72.8273 298.46 72.4273 297.94C72.0273 297.42 71.4973 297.03 70.8373 296.77C70.1973 296.49 69.5073 296.35 68.7673 296.35C67.9073 296.35 66.9973 296.45 66.0373 296.65C65.0973 296.83 64.0973 297.22 63.0373 297.82L65.9173 286H77.3773V289.78H69.0973L67.8373 294.04C68.3773 293.76 68.9373 293.57 69.5173 293.47C70.1173 293.35 70.7273 293.29 71.3473 293.29C72.4873 293.29 73.5373 293.57 74.4973 294.13C75.4573 294.69 76.2273 295.49 76.8073 296.53C77.3873 297.55 77.6773 298.78 77.6773 300.22Z" fill="#E63E1A"/>
</svg>
