<svg width="144" height="409" viewBox="0 0 144 409" fill="none" xmlns="http://www.w3.org/2000/svg">
<path d="M3.6 287.5C3.6 280.84 4.65 275.08 6.75 270.22C8.91 265.3 11.88 261.52 15.66 258.88C19.5 256.24 23.94 254.92 28.98 254.92C34.14 254.92 38.61 256.24 42.39 258.88C46.23 261.52 49.17 265.3 51.21 270.22C53.31 275.08 54.36 280.84 54.36 287.5C54.36 294.16 53.31 299.92 51.21 304.78C49.17 309.64 46.23 313.42 42.39 316.12C38.61 318.76 34.14 320.08 28.98 320.08C23.94 320.08 19.5 318.76 15.66 316.12C11.88 313.42 8.91 309.64 6.75 304.78C4.65 299.92 3.6 294.16 3.6 287.5ZM16.2 287.5C16.2 293.86 17.37 298.99 19.71 302.89C22.05 306.79 25.14 308.74 28.98 308.74C32.88 308.74 35.97 306.79 38.25 302.89C40.59 298.99 41.76 293.86 41.76 287.5C41.76 281.08 40.59 275.95 38.25 272.11C35.97 268.21 32.88 266.26 28.98 266.26C25.14 266.26 22.05 268.21 19.71 272.11C17.37 275.95 16.2 281.08 16.2 287.5ZM110.032 298.66C110.032 302.32 109.342 305.5 107.962 308.2C106.582 310.9 104.722 313.12 102.382 314.86C100.102 316.6 97.522 317.92 94.642 318.82C91.762 319.66 88.792 320.08 85.732 320.08C79.912 320.08 75.052 319.12 71.152 317.2C67.252 315.22 63.952 312.94 61.252 310.36L67.372 300.28C69.532 302.62 72.052 304.54 74.932 306.04C77.812 307.48 80.602 308.2 83.302 308.2C87.322 308.2 90.442 307.3 92.662 305.5C94.942 303.64 96.082 301 96.082 297.58C96.082 295.3 95.482 293.38 94.282 291.82C93.082 290.26 91.492 289.09 89.512 288.31C87.592 287.47 85.522 287.05 83.302 287.05C80.722 287.05 77.992 287.35 75.112 287.95C72.292 288.49 69.292 289.66 66.112 291.46L74.752 256H109.132V267.34H84.292L80.512 280.12C82.132 279.28 83.812 278.71 85.552 278.41C87.352 278.05 89.182 277.87 91.042 277.87C94.462 277.87 97.612 278.71 100.492 280.39C103.372 282.07 105.682 284.47 107.422 287.59C109.162 290.65 110.032 294.34 110.032 298.66Z" fill="#E63E1A"/>
<path d="M36.2 21.5C36.2 19.28 36.55 17.36 37.25 15.74C37.97 14.1 38.96 12.84 40.22 11.96C41.5 11.08 42.98 10.64 44.66 10.64C46.38 10.64 47.87 11.08 49.13 11.96C50.41 12.84 51.39 14.1 52.07 15.74C52.77 17.36 53.12 19.28 53.12 21.5C53.12 23.72 52.77 25.64 52.07 27.26C51.39 28.88 50.41 30.14 49.13 31.04C47.87 31.92 46.38 32.36 44.66 32.36C42.98 32.36 41.5 31.92 40.22 31.04C38.96 30.14 37.97 28.88 37.25 27.26C36.55 25.64 36.2 23.72 36.2 21.5ZM40.4 21.5C40.4 23.62 40.79 25.33 41.57 26.63C42.35 27.93 43.38 28.58 44.66 28.58C45.96 28.58 46.99 27.93 47.75 26.63C48.53 25.33 48.92 23.62 48.92 21.5C48.92 19.36 48.53 17.65 47.75 16.37C46.99 15.07 45.96 14.42 44.66 14.42C43.38 14.42 42.35 15.07 41.57 16.37C40.79 17.65 40.4 19.36 40.4 21.5ZM56.4373 16.49V12.62L65.6473 10.64V32H61.4473V15.2L56.4373 16.49Z" fill="#E63E1A"/>
<path d="M36.2 85.5C36.2 83.28 36.55 81.36 37.25 79.74C37.97 78.1 38.96 76.84 40.22 75.96C41.5 75.08 42.98 74.64 44.66 74.64C46.38 74.64 47.87 75.08 49.13 75.96C50.41 76.84 51.39 78.1 52.07 79.74C52.77 81.36 53.12 83.28 53.12 85.5C53.12 87.72 52.77 89.64 52.07 91.26C51.39 92.88 50.41 94.14 49.13 95.04C47.87 95.92 46.38 96.36 44.66 96.36C42.98 96.36 41.5 95.92 40.22 95.04C38.96 94.14 37.97 92.88 37.25 91.26C36.55 89.64 36.2 87.72 36.2 85.5ZM40.4 85.5C40.4 87.62 40.79 89.33 41.57 90.63C42.35 91.93 43.38 92.58 44.66 92.58C45.96 92.58 46.99 91.93 47.75 90.63C48.53 89.33 48.92 87.62 48.92 85.5C48.92 83.36 48.53 81.65 47.75 80.37C46.99 79.07 45.96 78.42 44.66 78.42C43.38 78.42 42.35 79.07 41.57 80.37C40.79 81.65 40.4 83.36 40.4 85.5ZM54.8773 96L64.4173 86.04C65.2173 85.2 65.8373 84.42 66.2773 83.7C66.7173 82.98 66.9373 82.2 66.9373 81.36C66.9373 80.6 66.6673 79.92 66.1273 79.32C65.5873 78.7 64.7873 78.39 63.7273 78.39C62.6473 78.39 61.7873 78.78 61.1473 79.56C60.5273 80.34 60.2173 81.36 60.2173 82.62H55.9573C55.9573 81.12 56.2573 79.77 56.8573 78.57C57.4573 77.35 58.3473 76.39 59.5273 75.69C60.7073 74.97 62.1473 74.61 63.8473 74.61C65.1073 74.61 66.2073 74.81 67.1473 75.21C68.1073 75.59 68.8973 76.1 69.5173 76.74C70.1573 77.36 70.6273 78.05 70.9273 78.81C71.2473 79.57 71.4073 80.33 71.4073 81.09C71.4073 82.19 71.1273 83.24 70.5673 84.24C70.0273 85.22 69.3173 86.11 68.4373 86.91L63.0373 92.04H71.7973V96H54.8773Z" fill="#E63E1A"/>
<path d="M36.2 150.5C36.2 148.28 36.55 146.36 37.25 144.74C37.97 143.1 38.96 141.84 40.22 140.96C41.5 140.08 42.98 139.64 44.66 139.64C46.38 139.64 47.87 140.08 49.13 140.96C50.41 141.84 51.39 143.1 52.07 144.74C52.77 146.36 53.12 148.28 53.12 150.5C53.12 152.72 52.77 154.64 52.07 156.26C51.39 157.88 50.41 159.14 49.13 160.04C47.87 160.92 46.38 161.36 44.66 161.36C42.98 161.36 41.5 160.92 40.22 160.04C38.96 159.14 37.97 157.88 37.25 156.26C36.55 154.64 36.2 152.72 36.2 150.5ZM40.4 150.5C40.4 152.62 40.79 154.33 41.57 155.63C42.35 156.93 43.38 157.58 44.66 157.58C45.96 157.58 46.99 156.93 47.75 155.63C48.53 154.33 48.92 152.62 48.92 150.5C48.92 148.36 48.53 146.65 47.75 145.37C46.99 144.07 45.96 143.42 44.66 143.42C43.38 143.42 42.35 144.07 41.57 145.37C40.79 146.65 40.4 148.36 40.4 150.5ZM63.4873 161.42C61.9073 161.42 60.5373 161.11 59.3773 160.49C58.2373 159.85 57.3573 159.02 56.7373 158C56.1373 156.98 55.8373 155.87 55.8373 154.67H60.0973C60.0973 155.69 60.4473 156.48 61.1473 157.04C61.8473 157.58 62.6773 157.85 63.6373 157.85C64.5973 157.85 65.3773 157.6 65.9773 157.1C66.5973 156.6 66.9073 155.86 66.9073 154.88C66.9073 153.88 66.5073 153.09 65.7073 152.51C64.9273 151.93 63.7973 151.64 62.3173 151.64V148.7C63.5573 148.7 64.5273 148.4 65.2273 147.8C65.9473 147.18 66.3073 146.46 66.3073 145.64C66.3073 144.92 66.0873 144.33 65.6473 143.87C65.2273 143.41 64.5773 143.18 63.6973 143.18C62.8573 143.18 62.1473 143.44 61.5673 143.96C61.0073 144.46 60.7273 145.1 60.7273 145.88H56.7373C56.7373 144.68 57.0273 143.61 57.6073 142.67C58.1873 141.73 58.9973 140.99 60.0373 140.45C61.0973 139.91 62.3173 139.64 63.6973 139.64C65.1573 139.64 66.3973 139.9 67.4173 140.42C68.4573 140.94 69.2473 141.64 69.7873 142.52C70.3273 143.38 70.5973 144.34 70.5973 145.4C70.5973 146.48 70.2673 147.41 69.6073 148.19C68.9473 148.95 68.0573 149.55 66.9373 149.99C68.2373 150.41 69.2673 151.06 70.0273 151.94C70.8073 152.8 71.1973 153.93 71.1973 155.33C71.1973 156.53 70.8773 157.59 70.2373 158.51C69.6173 159.43 68.7273 160.15 67.5673 160.67C66.4273 161.17 65.0673 161.42 63.4873 161.42Z" fill="#E63E1A"/>
<path d="M36.2 360.5C36.2 358.28 36.55 356.36 37.25 354.74C37.97 353.1 38.96 351.84 40.22 350.96C41.5 350.08 42.98 349.64 44.66 349.64C46.38 349.64 47.87 350.08 49.13 350.96C50.41 351.84 51.39 353.1 52.07 354.74C52.77 356.36 53.12 358.28 53.12 360.5C53.12 362.72 52.77 364.64 52.07 366.26C51.39 367.88 50.41 369.14 49.13 370.04C47.87 370.92 46.38 371.36 44.66 371.36C42.98 371.36 41.5 370.92 40.22 370.04C38.96 369.14 37.97 367.88 37.25 366.26C36.55 364.64 36.2 362.72 36.2 360.5ZM40.4 360.5C40.4 362.62 40.79 364.33 41.57 365.63C42.35 366.93 43.38 367.58 44.66 367.58C45.96 367.58 46.99 366.93 47.75 365.63C48.53 364.33 48.92 362.62 48.92 360.5C48.92 358.36 48.53 356.65 47.75 355.37C46.99 354.07 45.96 353.42 44.66 353.42C43.38 353.42 42.35 354.07 41.57 355.37C40.79 356.65 40.4 358.36 40.4 360.5ZM64.2373 350.06H69.6973L63.5773 357.29C63.8773 357.17 64.1873 357.09 64.5073 357.05C64.8473 356.99 65.2173 356.96 65.6173 356.96C66.6973 356.96 67.7273 357.24 68.7073 357.8C69.6873 358.36 70.4873 359.15 71.1073 360.17C71.7273 361.19 72.0373 362.39 72.0373 363.77C72.0373 365.41 71.6673 366.8 70.9273 367.94C70.2073 369.08 69.2273 369.95 67.9873 370.55C66.7673 371.13 65.4073 371.42 63.9073 371.42C62.4073 371.42 61.0373 371.13 59.7973 370.55C58.5773 369.95 57.5973 369.08 56.8573 367.94C56.1373 366.8 55.7773 365.41 55.7773 363.77C55.7773 362.71 55.9773 361.73 56.3773 360.83C56.7773 359.93 57.2773 359.11 57.8773 358.37L64.2373 350.06ZM60.0073 363.77C60.0073 364.93 60.3773 365.88 61.1173 366.62C61.8773 367.34 62.8073 367.7 63.9073 367.7C65.0273 367.7 65.9473 367.34 66.6673 366.62C67.4073 365.88 67.7773 364.93 67.7773 363.77C67.7773 362.59 67.4073 361.63 66.6673 360.89C65.9473 360.15 65.0273 359.78 63.9073 359.78C62.8073 359.78 61.8773 360.15 61.1173 360.89C60.3773 361.63 60.0073 362.59 60.0073 363.77Z" fill="#E63E1A"/>
<path d="M36.2 215.5C36.2 213.28 36.55 211.36 37.25 209.74C37.97 208.1 38.96 206.84 40.22 205.96C41.5 205.08 42.98 204.64 44.66 204.64C46.38 204.64 47.87 205.08 49.13 205.96C50.41 206.84 51.39 208.1 52.07 209.74C52.77 211.36 53.12 213.28 53.12 215.5C53.12 217.72 52.77 219.64 52.07 221.26C51.39 222.88 50.41 224.14 49.13 225.04C47.87 225.92 46.38 226.36 44.66 226.36C42.98 226.36 41.5 225.92 40.22 225.04C38.96 224.14 37.97 222.88 37.25 221.26C36.55 219.64 36.2 217.72 36.2 215.5ZM40.4 215.5C40.4 217.62 40.79 219.33 41.57 220.63C42.35 221.93 43.38 222.58 44.66 222.58C45.96 222.58 46.99 221.93 47.75 220.63C48.53 219.33 48.92 217.62 48.92 215.5C48.92 213.36 48.53 211.65 47.75 210.37C46.99 209.07 45.96 208.42 44.66 208.42C43.38 208.42 42.35 209.07 41.57 210.37C40.79 211.65 40.4 213.36 40.4 215.5ZM54.7573 222.13L66.7573 205H69.7273V218.44H73.0273V222.13H69.7273V226H65.2573V222.13H54.7573ZM60.6973 218.92H65.6773V211.84L60.6973 218.92Z" fill="#E63E1A"/>
</svg>
