<svg width="144" height="381" viewBox="0 0 144 381" fill="none" xmlns="http://www.w3.org/2000/svg">
<path d="M3.6 347.5C3.6 340.84 4.65 335.08 6.75 330.22C8.91 325.3 11.88 321.52 15.66 318.88C19.5 316.24 23.94 314.92 28.98 314.92C34.14 314.92 38.61 316.24 42.39 318.88C46.23 321.52 49.17 325.3 51.21 330.22C53.31 335.08 54.36 340.84 54.36 347.5C54.36 354.16 53.31 359.92 51.21 364.78C49.17 369.64 46.23 373.42 42.39 376.12C38.61 378.76 34.14 380.08 28.98 380.08C23.94 380.08 19.5 378.76 15.66 376.12C11.88 373.42 8.91 369.64 6.75 364.78C4.65 359.92 3.6 354.16 3.6 347.5ZM16.2 347.5C16.2 353.86 17.37 358.99 19.71 362.89C22.05 366.79 25.14 368.74 28.98 368.74C32.88 368.74 35.97 366.79 38.25 362.89C40.59 358.99 41.76 353.86 41.76 347.5C41.76 341.08 40.59 335.95 38.25 332.11C35.97 328.21 32.88 326.26 28.98 326.26C25.14 326.26 22.05 328.21 19.71 332.11C17.37 335.95 16.2 341.08 16.2 347.5ZM87.712 316.18H104.092L85.732 337.87C86.632 337.51 87.562 337.27 88.522 337.15C89.542 336.97 90.652 336.88 91.852 336.88C95.092 336.88 98.182 337.72 101.122 339.4C104.062 341.08 106.462 343.45 108.322 346.51C110.182 349.57 111.112 353.17 111.112 357.31C111.112 362.23 110.002 366.4 107.782 369.82C105.622 373.24 102.682 375.85 98.962 377.65C95.302 379.39 91.222 380.26 86.722 380.26C82.222 380.26 78.112 379.39 74.392 377.65C70.732 375.85 67.792 373.24 65.572 369.82C63.412 366.4 62.332 362.23 62.332 357.31C62.332 354.13 62.932 351.19 64.132 348.49C65.332 345.79 66.832 343.33 68.632 341.11L87.712 316.18ZM75.022 357.31C75.022 360.79 76.132 363.64 78.352 365.86C80.632 368.02 83.422 369.1 86.722 369.1C90.082 369.1 92.842 368.02 95.002 365.86C97.222 363.64 98.332 360.79 98.332 357.31C98.332 353.77 97.222 350.89 95.002 348.67C92.842 346.45 90.082 345.34 86.722 345.34C83.422 345.34 80.632 346.45 78.352 348.67C76.132 350.89 75.022 353.77 75.022 357.31Z" fill="#E63E1A"/>
<path d="M39.2 21.5C39.2 19.28 39.55 17.36 40.25 15.74C40.97 14.1 41.96 12.84 43.22 11.96C44.5 11.08 45.98 10.64 47.66 10.64C49.38 10.64 50.87 11.08 52.13 11.96C53.41 12.84 54.39 14.1 55.07 15.74C55.77 17.36 56.12 19.28 56.12 21.5C56.12 23.72 55.77 25.64 55.07 27.26C54.39 28.88 53.41 30.14 52.13 31.04C50.87 31.92 49.38 32.36 47.66 32.36C45.98 32.36 44.5 31.92 43.22 31.04C41.96 30.14 40.97 28.88 40.25 27.26C39.55 25.64 39.2 23.72 39.2 21.5ZM43.4 21.5C43.4 23.62 43.79 25.33 44.57 26.63C45.35 27.93 46.38 28.58 47.66 28.58C48.96 28.58 49.99 27.93 50.75 26.63C51.53 25.33 51.92 23.62 51.92 21.5C51.92 19.36 51.53 17.65 50.75 16.37C49.99 15.07 48.96 14.42 47.66 14.42C46.38 14.42 45.35 15.07 44.57 16.37C43.79 17.65 43.4 19.36 43.4 21.5ZM59.4373 16.49V12.62L68.6473 10.64V32H64.4473V15.2L59.4373 16.49Z" fill="#E63E1A"/>
<path d="M39.2 85.5C39.2 83.28 39.55 81.36 40.25 79.74C40.97 78.1 41.96 76.84 43.22 75.96C44.5 75.08 45.98 74.64 47.66 74.64C49.38 74.64 50.87 75.08 52.13 75.96C53.41 76.84 54.39 78.1 55.07 79.74C55.77 81.36 56.12 83.28 56.12 85.5C56.12 87.72 55.77 89.64 55.07 91.26C54.39 92.88 53.41 94.14 52.13 95.04C50.87 95.92 49.38 96.36 47.66 96.36C45.98 96.36 44.5 95.92 43.22 95.04C41.96 94.14 40.97 92.88 40.25 91.26C39.55 89.64 39.2 87.72 39.2 85.5ZM43.4 85.5C43.4 87.62 43.79 89.33 44.57 90.63C45.35 91.93 46.38 92.58 47.66 92.58C48.96 92.58 49.99 91.93 50.75 90.63C51.53 89.33 51.92 87.62 51.92 85.5C51.92 83.36 51.53 81.65 50.75 80.37C49.99 79.07 48.96 78.42 47.66 78.42C46.38 78.42 45.35 79.07 44.57 80.37C43.79 81.65 43.4 83.36 43.4 85.5ZM57.8773 96L67.4173 86.04C68.2173 85.2 68.8373 84.42 69.2773 83.7C69.7173 82.98 69.9373 82.2 69.9373 81.36C69.9373 80.6 69.6673 79.92 69.1273 79.32C68.5873 78.7 67.7873 78.39 66.7273 78.39C65.6473 78.39 64.7873 78.78 64.1473 79.56C63.5273 80.34 63.2173 81.36 63.2173 82.62H58.9573C58.9573 81.12 59.2573 79.77 59.8573 78.57C60.4573 77.35 61.3473 76.39 62.5273 75.69C63.7073 74.97 65.1473 74.61 66.8473 74.61C68.1073 74.61 69.2073 74.81 70.1473 75.21C71.1073 75.59 71.8973 76.1 72.5173 76.74C73.1573 77.36 73.6273 78.05 73.9273 78.81C74.2473 79.57 74.4073 80.33 74.4073 81.09C74.4073 82.19 74.1273 83.24 73.5673 84.24C73.0273 85.22 72.3173 86.11 71.4373 86.91L66.0373 92.04H74.7973V96H57.8773Z" fill="#E63E1A"/>
<path d="M39.2 150.5C39.2 148.28 39.55 146.36 40.25 144.74C40.97 143.1 41.96 141.84 43.22 140.96C44.5 140.08 45.98 139.64 47.66 139.64C49.38 139.64 50.87 140.08 52.13 140.96C53.41 141.84 54.39 143.1 55.07 144.74C55.77 146.36 56.12 148.28 56.12 150.5C56.12 152.72 55.77 154.64 55.07 156.26C54.39 157.88 53.41 159.14 52.13 160.04C50.87 160.92 49.38 161.36 47.66 161.36C45.98 161.36 44.5 160.92 43.22 160.04C41.96 159.14 40.97 157.88 40.25 156.26C39.55 154.64 39.2 152.72 39.2 150.5ZM43.4 150.5C43.4 152.62 43.79 154.33 44.57 155.63C45.35 156.93 46.38 157.58 47.66 157.58C48.96 157.58 49.99 156.93 50.75 155.63C51.53 154.33 51.92 152.62 51.92 150.5C51.92 148.36 51.53 146.65 50.75 145.37C49.99 144.07 48.96 143.42 47.66 143.42C46.38 143.42 45.35 144.07 44.57 145.37C43.79 146.65 43.4 148.36 43.4 150.5ZM66.4873 161.42C64.9073 161.42 63.5373 161.11 62.3773 160.49C61.2373 159.85 60.3573 159.02 59.7373 158C59.1373 156.98 58.8373 155.87 58.8373 154.67H63.0973C63.0973 155.69 63.4473 156.48 64.1473 157.04C64.8473 157.58 65.6773 157.85 66.6373 157.85C67.5973 157.85 68.3773 157.6 68.9773 157.1C69.5973 156.6 69.9073 155.86 69.9073 154.88C69.9073 153.88 69.5073 153.09 68.7073 152.51C67.9273 151.93 66.7973 151.64 65.3173 151.64V148.7C66.5573 148.7 67.5273 148.4 68.2273 147.8C68.9473 147.18 69.3073 146.46 69.3073 145.64C69.3073 144.92 69.0873 144.33 68.6473 143.87C68.2273 143.41 67.5773 143.18 66.6973 143.18C65.8573 143.18 65.1473 143.44 64.5673 143.96C64.0073 144.46 63.7273 145.1 63.7273 145.88H59.7373C59.7373 144.68 60.0273 143.61 60.6073 142.67C61.1873 141.73 61.9973 140.99 63.0373 140.45C64.0973 139.91 65.3173 139.64 66.6973 139.64C68.1573 139.64 69.3973 139.9 70.4173 140.42C71.4573 140.94 72.2473 141.64 72.7873 142.52C73.3273 143.38 73.5973 144.34 73.5973 145.4C73.5973 146.48 73.2673 147.41 72.6073 148.19C71.9473 148.95 71.0573 149.55 69.9373 149.99C71.2373 150.41 72.2673 151.06 73.0273 151.94C73.8073 152.8 74.1973 153.93 74.1973 155.33C74.1973 156.53 73.8773 157.59 73.2373 158.51C72.6173 159.43 71.7273 160.15 70.5673 160.67C69.4273 161.17 68.0673 161.42 66.4873 161.42Z" fill="#E63E1A"/>
<path d="M39.2 279.5C39.2 277.28 39.55 275.36 40.25 273.74C40.97 272.1 41.96 270.84 43.22 269.96C44.5 269.08 45.98 268.64 47.66 268.64C49.38 268.64 50.87 269.08 52.13 269.96C53.41 270.84 54.39 272.1 55.07 273.74C55.77 275.36 56.12 277.28 56.12 279.5C56.12 281.72 55.77 283.64 55.07 285.26C54.39 286.88 53.41 288.14 52.13 289.04C50.87 289.92 49.38 290.36 47.66 290.36C45.98 290.36 44.5 289.92 43.22 289.04C41.96 288.14 40.97 286.88 40.25 285.26C39.55 283.64 39.2 281.72 39.2 279.5ZM43.4 279.5C43.4 281.62 43.79 283.33 44.57 284.63C45.35 285.93 46.38 286.58 47.66 286.58C48.96 286.58 49.99 285.93 50.75 284.63C51.53 283.33 51.92 281.62 51.92 279.5C51.92 277.36 51.53 275.65 50.75 274.37C49.99 273.07 48.96 272.42 47.66 272.42C46.38 272.42 45.35 273.07 44.57 274.37C43.79 275.65 43.4 277.36 43.4 279.5ZM74.6773 283.22C74.6773 284.44 74.4473 285.5 73.9873 286.4C73.5273 287.3 72.9073 288.04 72.1273 288.62C71.3673 289.2 70.5073 289.64 69.5473 289.94C68.5873 290.22 67.5973 290.36 66.5773 290.36C64.6373 290.36 63.0173 290.04 61.7173 289.4C60.4173 288.74 59.3173 287.98 58.4173 287.12L60.4573 283.76C61.1773 284.54 62.0173 285.18 62.9773 285.68C63.9373 286.16 64.8673 286.4 65.7673 286.4C67.1073 286.4 68.1473 286.1 68.8873 285.5C69.6473 284.88 70.0273 284 70.0273 282.86C70.0273 282.1 69.8273 281.46 69.4273 280.94C69.0273 280.42 68.4973 280.03 67.8373 279.77C67.1973 279.49 66.5073 279.35 65.7673 279.35C64.9073 279.35 63.9973 279.45 63.0373 279.65C62.0973 279.83 61.0973 280.22 60.0373 280.82L62.9173 269H74.3773V272.78H66.0973L64.8373 277.04C65.3773 276.76 65.9373 276.57 66.5173 276.47C67.1173 276.35 67.7273 276.29 68.3473 276.29C69.4873 276.29 70.5373 276.57 71.4973 277.13C72.4573 277.69 73.2273 278.49 73.8073 279.53C74.3873 280.55 74.6773 281.78 74.6773 283.22Z" fill="#E63E1A"/>
<path d="M39.2 215.5C39.2 213.28 39.55 211.36 40.25 209.74C40.97 208.1 41.96 206.84 43.22 205.96C44.5 205.08 45.98 204.64 47.66 204.64C49.38 204.64 50.87 205.08 52.13 205.96C53.41 206.84 54.39 208.1 55.07 209.74C55.77 211.36 56.12 213.28 56.12 215.5C56.12 217.72 55.77 219.64 55.07 221.26C54.39 222.88 53.41 224.14 52.13 225.04C50.87 225.92 49.38 226.36 47.66 226.36C45.98 226.36 44.5 225.92 43.22 225.04C41.96 224.14 40.97 222.88 40.25 221.26C39.55 219.64 39.2 217.72 39.2 215.5ZM43.4 215.5C43.4 217.62 43.79 219.33 44.57 220.63C45.35 221.93 46.38 222.58 47.66 222.58C48.96 222.58 49.99 221.93 50.75 220.63C51.53 219.33 51.92 217.62 51.92 215.5C51.92 213.36 51.53 211.65 50.75 210.37C49.99 209.07 48.96 208.42 47.66 208.42C46.38 208.42 45.35 209.07 44.57 210.37C43.79 211.65 43.4 213.36 43.4 215.5ZM57.7573 222.13L69.7573 205H72.7273V218.44H76.0273V222.13H72.7273V226H68.2573V222.13H57.7573ZM63.6973 218.92H68.6773V211.84L63.6973 218.92Z" fill="#E63E1A"/>
</svg>
