<svg width="389" height="148" viewBox="0 0 389 148" fill="none" xmlns="http://www.w3.org/2000/svg">
<path d="M3.41 120.29C2.45667 119.77 1.76333 119.293 1.33 118.86C0.983333 118.427 0.81 117.863 0.81 117.17C0.81 116.303 1.15667 115.09 1.85 113.53C2.63 111.883 3.93 109.327 5.75 105.86C6.27 104.733 7.26667 102.74 8.74 99.88C12.4667 92.7733 14.33 87.53 14.33 84.15C14.2433 83.9767 14.2 83.7167 14.2 83.37C14.2 82.5033 14.8933 81.7233 16.28 81.03C16.54 80.77 17.45 80.0333 19.01 78.82C20.6567 77.6067 21.9567 76.22 22.91 74.66C24.0367 72.06 25.4667 69.2 27.2 66.08C28.9333 62.8733 31.9233 57.6733 36.17 50.48C40.33 42.8533 44.75 35.9633 49.43 29.81C50.2967 28.5967 51.25 27.6433 52.29 26.95C53.4167 26.2567 54.37 25.91 55.15 25.91C57.8367 25.91 60.5667 26.95 63.34 29.03C66.2 31.11 68.0633 33.19 68.93 35.27C69.2767 35.8767 69.45 37.1767 69.45 39.17C69.45 41.8567 69.1467 46.4067 68.54 52.82C68.3667 53.9467 68.1933 55.7233 68.02 58.15C67.76 62.05 67.37 66.21 66.85 70.63C65.8967 80.3367 65.2033 87.92 64.77 93.38C64.3367 98.84 64.12 103.953 64.12 108.72C64.12 111.147 64.1633 112.923 64.25 114.05V114.96L64.12 117.95C63.6 118.47 62.56 118.73 61 118.73C59.2667 118.73 57.5333 118.427 55.8 117.82C54.0667 117.3 53.1133 116.65 52.94 115.87C52.8533 115.783 52.7233 115.697 52.55 115.61C52.3767 115.523 52.29 115.133 52.29 114.44L52.42 111.58L52.81 104.3L53.46 84.41L51.77 84.54C50.0367 84.54 46.3533 84.8867 40.72 85.58C35.1733 86.2733 31.6633 86.8367 30.19 87.27C29.41 87.27 28.4567 87.79 27.33 88.83C26.2033 89.87 25.2067 91.2133 24.34 92.86C24.08 93.7267 23.4733 94.9833 22.52 96.63C21.5667 98.19 21.09 99.1 21.09 99.36C20.57 99.7067 20.0933 100.183 19.66 100.79C19.3133 101.31 19.0967 101.657 19.01 101.83C19.01 102.783 18.1433 105.253 16.41 109.24C14.7633 113.14 13.1167 116.347 11.47 118.86L7.96 123.8L3.41 120.29ZM34.48 75.57C35.0867 75.4833 36.3 75.31 38.12 75.05C39.94 74.7033 41.5433 74.4867 42.93 74.4C47.09 73.36 49.95 72.84 51.51 72.84C52.3767 72.84 52.9833 72.9267 53.33 73.1C53.59 73.4467 53.85 73.7067 54.11 73.88C54.4567 73.9667 54.6733 74.01 54.76 74.01C54.9333 73.3167 55.6267 68.5933 56.84 59.84C58.0533 51.0867 58.66 45.7133 58.66 43.72C58.66 42.3333 58.6167 41.1633 58.53 40.21C58.4433 39.17 58.3567 38.52 58.27 38.26C57.49 38.26 55.7133 40.34 52.94 44.5C50.1667 48.5733 47.48 53.21 44.88 58.41C42.8867 61.9633 41.5 63.74 40.72 63.74C40.1133 64.3467 38.8133 66.3833 36.82 69.85C34.8267 73.3167 34.0467 75.2233 34.48 75.57ZM66.07 24.74C65.55 24.74 65.1167 24.4367 64.77 23.83C64.4233 23.1367 64.1633 22.14 63.99 20.84C63.73 19.9733 62.69 17.9367 60.87 14.73C59.6567 12.65 58.7033 10.9167 58.01 9.52999C57.3167 8.14333 56.97 6.97333 56.97 6.02C56.97 5.06666 57.3167 4.15666 58.01 3.28999C58.79 2.42333 59.6567 1.73 60.61 1.21C61.5633 0.689994 62.17 0.429992 62.43 0.429992C63.6433 0.429992 64.64 0.993326 65.42 2.11999C66.3733 2.89999 67.8033 5.58666 69.71 10.18C71.6167 14.7733 72.57 17.6333 72.57 18.76C72.57 19.4533 71.7467 20.58 70.1 22.14C68.4533 23.6133 67.2833 24.4367 66.59 24.61L66.07 24.74ZM99.4983 146.42C98.6316 146.42 97.9816 146.03 97.5483 145.25C97.4616 145.163 97.0716 144.643 96.3783 143.69C95.6849 142.737 95.3383 141.35 95.3383 139.53C95.3383 139.183 95.4249 138.49 95.5983 137.45C96.5516 133.81 97.0283 131.297 97.0283 129.91C97.0283 129.477 97.1149 128.827 97.2883 127.96C97.4616 127.18 97.5916 126.443 97.6783 125.75C98.0249 125.143 98.3283 124.19 98.5883 122.89C98.9349 121.677 99.1083 120.593 99.1083 119.64C99.1083 119.207 99.2383 118.687 99.4983 118.08C99.8449 117.56 100.235 117.127 100.668 116.78C100.668 116.26 100.798 115.48 101.058 114.44C101.318 113.313 101.492 112.533 101.578 112.1C102.012 109.76 103.702 104.213 106.648 95.46C109.595 86.7067 112.108 79.6433 114.188 74.27C115.228 71.8433 116.095 69.59 116.788 67.51C117.482 65.43 117.828 63.9567 117.828 63.09C117.828 62.7433 117.915 62.44 118.088 62.18C118.348 61.8333 118.738 61.4 119.258 60.88C119.952 60.1867 120.862 59.84 121.988 59.84C123.462 59.84 124.892 60.3167 126.278 61.27C126.885 62.2233 127.318 63.0467 127.578 63.74C127.838 64.4333 127.968 65.2133 127.968 66.08C127.968 66.34 127.882 67.1633 127.708 68.55C127.708 70.37 127.188 72.0167 126.148 73.49C125.108 74.9633 124.632 75.6567 124.718 75.57C128.965 72.97 132.908 71.67 136.548 71.67C140.448 71.67 143.568 73.0567 145.908 75.83C148.248 78.5167 149.418 81.7233 149.418 85.45C149.418 86.9233 148.725 89.1333 147.338 92.08C145.952 94.94 144.825 96.76 143.958 97.54C143.438 97.54 142.745 98.45 141.878 100.27C140.838 101.657 138.845 103.13 135.898 104.69C133.038 106.163 131.088 106.727 130.048 106.38C129.962 106.38 129.832 106.51 129.658 106.77C129.485 106.943 129.398 107.203 129.398 107.55C129.398 107.897 128.098 108.503 125.498 109.37C122.898 110.237 120.645 110.67 118.738 110.67C117.698 110.67 116.918 110.627 116.398 110.54C115.878 110.367 115.358 110.063 114.838 109.63C114.232 110.237 113.928 110.8 113.928 111.32C113.928 112.187 113.495 113.573 112.628 115.48C111.762 117.3 111.068 118.21 110.548 118.21C110.462 118.297 110.332 118.47 110.158 118.73C110.072 118.99 110.202 119.293 110.548 119.64C110.548 119.9 110.505 120.507 110.418 121.46C110.332 122.413 110.115 123.15 109.768 123.67C109.768 124.45 109.638 125.49 109.378 126.79C109.118 128.177 108.815 129.217 108.468 129.91C108.468 130.95 108.295 131.947 107.948 132.9C107.688 133.94 107.385 134.46 107.038 134.46C106.518 134.633 106.258 135.89 106.258 138.23C106.172 140.31 105.478 142.173 104.178 143.82C102.965 145.467 101.795 146.29 100.668 146.29L99.4983 146.42ZM117.308 100.79C118.522 100.79 120.775 100.14 124.068 98.84C127.448 97.4533 129.918 96.11 131.478 94.81C133.472 93.1633 134.988 91.6467 136.028 90.26C137.068 88.8733 137.588 87.4867 137.588 86.1C137.588 84.8867 137.198 83.7167 136.418 82.59C135.812 81.6367 134.902 81.16 133.688 81.16C130.828 81.16 127.102 83.37 122.508 87.79C120.948 89.4367 119.562 91.5167 118.348 94.03C117.135 96.4567 116.528 98.32 116.528 99.62C116.528 100.4 116.788 100.79 117.308 100.79ZM164.879 113.27C164.186 113.27 163.189 113.097 161.889 112.75C160.676 112.403 159.939 112.1 159.679 111.84C159.159 111.407 158.639 110.757 158.119 109.89C157.599 108.937 157.339 107.853 157.339 106.64C157.339 104.733 158.032 102.74 159.419 100.66C159.939 99.62 161.239 96.0233 163.319 89.87L165.919 82.72C166.092 81.2467 166.006 80.2067 165.659 79.6C165.312 78.9067 164.576 78.5167 163.449 78.43C162.496 78.43 161.802 78.1267 161.369 77.52C160.936 76.8267 160.719 75.7433 160.719 74.27C160.979 71.7567 161.976 69.9367 163.709 68.81C165.096 68.1167 167.002 67.77 169.429 67.77C171.596 67.77 173.026 68.0733 173.719 68.68C174.412 69.2 175.019 70.37 175.539 72.19C176.059 74.01 176.449 75.7 176.709 77.26C177.142 77 178.269 75.83 180.089 73.75L182.949 70.76C184.422 69.72 186.112 68.7233 188.019 67.77C189.926 66.8167 191.269 66.34 192.049 66.34C192.916 66.34 194.042 66.7733 195.429 67.64C196.816 68.5067 197.726 69.33 198.159 70.11C199.459 72.5367 200.109 74.53 200.109 76.09C200.109 77.3033 199.806 78.2567 199.199 78.95C196.859 81.8967 194.259 83.37 191.399 83.37C190.706 83.37 190.142 83.3267 189.709 83.24C189.276 83.1533 188.756 82.5467 188.149 81.42C187.542 80.2933 187.196 79.4267 187.109 78.82C187.109 78.56 186.459 79.08 185.159 80.38C183.946 81.5933 183.166 82.3733 182.819 82.72L180.609 85.06C179.222 86.7067 177.792 88.8733 176.319 91.56C174.932 94.2467 172.852 98.32 170.079 103.78L168.389 107.81C167.522 109.803 166.872 111.233 166.439 112.1C166.006 112.88 165.486 113.27 164.879 113.27ZM210.555 115.09C209.515 115.09 208.692 114.917 208.085 114.57C207.478 114.223 206.612 113.573 205.485 112.62C203.752 110.8 202.408 108.937 201.455 107.03C200.502 105.037 200.155 103.303 200.415 101.83C200.675 101.223 200.762 100.617 200.675 100.01C200.675 99.4033 200.675 99.0133 200.675 98.84C200.328 98.4933 200.155 98.2767 200.155 98.19C200.155 98.0167 200.242 97.8867 200.415 97.8C200.588 97.6267 200.718 97.4533 200.805 97.28C201.325 97.28 201.498 96.8033 201.325 95.85C201.152 95.1567 201.455 93.64 202.235 91.3C203.015 88.96 204.012 86.7933 205.225 84.8C206.178 83.24 207.565 81.29 209.385 78.95C211.292 76.61 212.982 74.8333 214.455 73.62C218.788 69.8933 222.688 67.64 226.155 66.86C227.888 66.4267 229.578 66.21 231.225 66.21C233.738 66.21 235.688 66.9033 237.075 68.29C238.982 69.07 240.368 70.1967 241.235 71.67C242.102 73.1433 242.665 75.0933 242.925 77.52C243.012 78.04 243.055 78.9067 243.055 80.12C243.055 86.5333 240.628 93.2067 235.775 100.14C233.782 103 231.788 105.297 229.795 107.03C227.802 108.763 225.375 110.497 222.515 112.23C220.955 113.27 219.308 113.963 217.575 114.31C215.842 114.657 213.502 114.917 210.555 115.09ZM223.815 99.23C225.462 97.7567 226.632 96.2833 227.325 94.81C228.105 93.25 229.188 90.5633 230.575 86.75C231.095 85.97 231.355 84.41 231.355 82.07C231.355 79.99 231.052 78.82 230.445 78.56C230.012 78.2133 229.492 78.04 228.885 78.04C228.105 78.04 226.848 78.6467 225.115 79.86C222.082 82.46 219.525 85.19 217.445 88.05C215.452 90.8233 214.065 94.03 213.285 97.67C213.198 98.0167 213.155 98.5367 213.155 99.23C213.155 102.177 214.195 103.65 216.275 103.65C218.268 103.65 220.782 102.177 223.815 99.23ZM243.224 147.59C242.184 147.243 240.624 146.03 238.544 143.95C236.551 141.957 235.554 140.57 235.554 139.79C235.554 138.49 236.421 134.2 238.154 126.92C239.888 119.727 241.578 113.877 243.224 109.37C243.311 109.023 243.874 107.593 244.914 105.08C245.954 102.567 246.951 99.5333 247.904 95.98C248.598 93.4667 250.418 88.57 253.364 81.29L257.134 71.93C257.828 69.9367 258.651 67.77 259.604 65.43C260.558 63.09 261.121 61.66 261.294 61.14C261.641 60.1 263.548 59.1033 267.014 58.15C267.188 58.0633 267.491 58.02 267.924 58.02C269.138 58.02 270.178 58.7133 271.044 60.1C271.304 60.62 271.434 61.2267 271.434 61.92C271.434 63.5667 270.958 65.4733 270.004 67.64L269.094 70.24L273.774 69.2C279.841 69.5467 283.221 69.8067 283.914 69.98C285.821 70.0667 287.164 70.4133 287.944 71.02C288.811 71.6267 289.634 72.58 290.414 73.88C291.974 75.3533 292.841 76.6533 293.014 77.78C293.101 78.1267 293.144 78.69 293.144 79.47C293.144 82.5033 291.974 86.0133 289.634 90C287.294 93.9867 284.868 96.8033 282.354 98.45C281.488 98.7967 280.751 99.1433 280.144 99.49C279.538 99.8367 279.148 100.053 278.974 100.14C278.801 100.573 277.848 101.31 276.114 102.35C274.381 103.39 272.388 104.387 270.134 105.34C267.968 106.293 266.104 106.857 264.544 107.03C263.678 107.203 262.681 107.29 261.554 107.29C260.601 107.29 259.864 107.16 259.344 106.9C258.304 106.727 257.611 106.64 257.264 106.64C257.004 106.64 256.874 106.813 256.874 107.16C256.874 107.247 256.311 108.46 255.184 110.8C254.144 113.053 252.931 116.823 251.544 122.11C249.031 129.65 246.821 136.54 244.914 142.78C243.961 145.727 243.398 147.33 243.224 147.59ZM259.994 95.72C260.081 96.0667 260.601 96.24 261.554 96.24C262.941 96.24 264.761 95.85 267.014 95.07C269.268 94.29 271.304 93.2933 273.124 92.08C274.944 90.8667 275.984 89.6533 276.244 88.44C276.678 88.0067 277.371 87.27 278.324 86.23C279.278 85.1033 279.928 84.28 280.274 83.76C280.621 83.1533 280.794 82.6767 280.794 82.33C280.794 82.07 280.578 81.7233 280.144 81.29C279.191 79.99 277.978 79.34 276.504 79.34C274.598 79.34 271.651 80.4233 267.664 82.59C266.018 83.1967 264.934 83.7167 264.414 84.15C263.981 84.5833 263.461 85.5367 262.854 87.01C262.334 88.31 261.988 89.1333 261.814 89.48C260.428 92.7733 259.821 94.8533 259.994 95.72ZM310.295 114.96C309.862 115.047 309.299 115.09 308.605 115.09C307.479 115.09 306.569 114.917 305.875 114.57C305.182 114.137 304.359 113.443 303.405 112.49C301.412 111.537 299.679 109.933 298.205 107.68C296.732 105.427 296.082 103.65 296.255 102.35C296.689 98.19 297.859 93.6833 299.765 88.83C301.672 83.89 304.142 79.47 307.175 75.57C310.295 71.5833 313.589 68.81 317.055 67.25C318.615 66.6433 320.045 66.34 321.345 66.34C324.032 66.34 325.809 67.2067 326.675 68.94C327.282 70.1533 327.585 71.0633 327.585 71.67C327.585 72.71 326.979 73.4033 325.765 73.75C325.505 73.75 325.202 73.88 324.855 74.14C324.509 74.4 324.335 74.66 324.335 74.92C324.422 75.0067 324.812 75.05 325.505 75.05C326.979 75.05 328.799 74.8333 330.965 74.4C333.132 73.9667 334.519 73.49 335.125 72.97C335.645 72.71 336.079 72.58 336.425 72.58L338.245 72.84C339.719 73.2733 340.455 73.7933 340.455 74.4C340.455 74.8333 340.585 75.3967 340.845 76.09C341.192 76.7833 341.495 77.13 341.755 77.13C342.189 77.13 342.405 77.4333 342.405 78.04C342.405 78.56 342.102 79.2533 341.495 80.12C340.975 80.9 340.195 81.68 339.155 82.46C338.722 82.72 338.072 83.11 337.205 83.63C336.425 84.15 335.949 84.5833 335.775 84.93C335.689 85.2767 335.732 85.7533 335.905 86.36C336.252 87.0533 336.425 87.92 336.425 88.96C336.425 91.9067 334.995 95.3733 332.135 99.36C329.275 103.26 325.765 106.727 321.605 109.76C317.532 112.793 313.762 114.527 310.295 114.96ZM310.685 104.04C311.205 104.04 312.505 103.52 314.585 102.48C315.712 101.353 316.622 100.66 317.315 100.4C317.575 100.4 317.792 100.183 317.965 99.75C318.225 99.23 318.615 98.4933 319.135 97.54C319.742 96.5 320.695 95.1567 321.995 93.51C323.382 91.95 324.335 90.6933 324.855 89.74C325.462 88.7867 325.765 87.8333 325.765 86.88C325.765 86.5333 325.679 85.9267 325.505 85.06C325.419 84.8 325.115 84.5833 324.595 84.41C324.162 84.15 323.729 83.9333 323.295 83.76C322.862 83.76 322.429 83.89 321.995 84.15C321.562 84.3233 321.259 84.41 321.085 84.41C320.652 84.41 320.175 84.1933 319.655 83.76L317.575 81.16L315.365 83.37C313.372 85.3633 311.682 88.05 310.295 91.43C308.995 94.81 308.215 97.8867 307.955 100.66C307.869 101.873 308.042 102.74 308.475 103.26C308.995 103.693 309.732 103.953 310.685 104.04ZM358.045 117.95C355.965 117.95 353.798 117.517 351.545 116.65C349.378 115.783 347.515 114.743 345.955 113.53C344.482 112.23 343.745 111.06 343.745 110.02C343.745 108.98 344.222 108.33 345.175 108.07L345.825 107.55C345.998 107.463 346.345 107.42 346.865 107.42C347.212 107.333 347.645 107.377 348.165 107.55C348.685 107.637 349.118 107.68 349.465 107.68C350.072 107.853 350.982 108.027 352.195 108.2L355.575 108.59C357.308 108.59 358.912 108.417 360.385 108.07C361.945 107.723 362.725 107.333 362.725 106.9C362.725 106.64 362.378 106.207 361.685 105.6C360.992 104.993 360.255 104.69 359.475 104.69C359.475 104.343 358.132 103.173 355.445 101.18C353.972 100.053 352.542 98.9267 351.155 97.8C349.855 96.6733 349.205 95.85 349.205 95.33L349.335 95.07V94.42C348.728 94.42 348.165 93.5967 347.645 91.95C347.125 90.3033 346.865 88.7 346.865 87.14C346.865 84.1933 348.165 80.9433 350.765 77.39C353.365 73.8367 356.572 70.63 360.385 67.77C364.285 64.91 367.968 62.96 371.435 61.92C372.735 61.3133 374.642 61.01 377.155 61.01C378.802 61.01 379.928 61.1833 380.535 61.53L381.575 61.27C382.615 61.27 383.958 62.1367 385.605 63.87C387.252 65.6033 388.292 66.99 388.725 68.03C388.725 70.89 388.638 73.1867 388.465 74.92C388.292 76.6533 387.858 77.52 387.165 77.52C387.078 77.52 386.948 77.5633 386.775 77.65C386.602 77.7367 386.515 77.9533 386.515 78.3C386.515 79.5133 385.432 80.8567 383.265 82.33C381.185 83.8033 379.278 84.54 377.545 84.54L377.025 84.41C376.505 84.3233 375.725 83.8033 374.685 82.85C373.732 81.8967 373.255 80.9433 373.255 79.99C373.255 79.73 373.775 79.0367 374.815 77.91C375.855 76.7833 376.722 75.7 377.415 74.66C378.195 73.5333 378.585 72.3633 378.585 71.15C378.585 70.7167 378.412 70.4567 378.065 70.37C377.805 70.1967 377.242 70.11 376.375 70.11C371.608 72.2767 368.185 74.3133 366.105 76.22C365.845 76.74 365.585 77.13 365.325 77.39C365.152 77.65 364.892 77.78 364.545 77.78C364.545 77.6933 364.502 77.65 364.415 77.65C364.242 77.65 363.678 78.17 362.725 79.21C361.772 80.1633 360.862 81.29 359.995 82.59C359.215 83.89 358.738 85.1033 358.565 86.23L358.305 86.62V87.27C358.218 87.4433 358.175 87.79 358.175 88.31C358.175 89.09 358.522 89.9133 359.215 90.78C359.908 91.56 361.295 92.6867 363.375 94.16C367.275 97.1067 369.918 99.3167 371.305 100.79C372.778 102.177 373.688 103.433 374.035 104.56C374.815 106.12 375.205 107.507 375.205 108.72C375.205 111.667 373.645 113.963 370.525 115.61C367.492 117.17 363.332 117.95 358.045 117.95Z" fill="#E63E1A"/>
</svg>
