<svg width="853" height="252" viewBox="0 0 853 252" fill="none" xmlns="http://www.w3.org/2000/svg">
<g clip-path="url(#clip0)">
<path d="M539.795 250.251C534.598 247.699 539.956 224.724 565.404 226C590.853 227.276 594.389 246.422 588.602 250.251C582.816 254.08 539.795 250.251 539.795 250.251Z" fill="#9D9D9F"/>
<path d="M566.743 239.453C566.743 238.396 565.844 237.538 564.734 237.538C563.625 237.538 562.725 238.396 562.725 239.453V242.006C562.725 243.063 563.625 243.92 564.734 243.92C565.844 243.92 566.743 243.063 566.743 242.006V239.453Z" fill="#686868"/>
<path d="M564.734 240.729V226.026" stroke="#686868" stroke-width="0.75" stroke-miterlimit="10"/>
</g>
<g clip-path="url(#clip1)">
<path d="M761.56 154.3C761.56 154.3 763.15 140.57 759.35 121.43C755.55 102.29 750.56 91.2999 748.56 50.2999" stroke="#589D83" stroke-width="2" stroke-miterlimit="10"/>
<path d="M761.56 150.3C761.56 150.3 766.56 101.3 734.56 91.2999C719.56 87.2999 712.56 101.3 712.56 101.3" stroke="#589D83" stroke-width="2" stroke-miterlimit="10"/>
<path d="M806.56 37.2999C807.56 51.2999 792.56 67.2999 779.56 94.2999C766.56 121.3 770.56 150.3 770.56 150.3C770.56 150.3 763.56 98.2999 797.56 98.2999C816.56 98.2999 822.56 121.3 822.56 121.3" stroke="#589D83" stroke-width="2" stroke-miterlimit="10"/>
<path d="M777.56 152.3C777.56 152.3 785.56 89.3 813.56 81.3C820.496 79.4656 827.829 79.8148 834.56 82.3" stroke="#589D83" stroke-width="2" stroke-miterlimit="10"/>
<path d="M782.12 146.3H757C752.891 146.3 749.56 149.631 749.56 153.74V241.86C749.56 245.969 752.891 249.3 757 249.3H782.12C786.229 249.3 789.56 245.969 789.56 241.86V153.74C789.56 149.631 786.229 146.3 782.12 146.3Z" fill="#252B2D"/>
<path d="M714 100.79C723 103.07 720.12 115.74 715.74 121.11C711.36 126.48 703.57 130.92 701.74 126.48C699.05 120.21 697.33 96.5999 714 100.79Z" fill="#589D83"/>
<path d="M823 119.93C830.55 117.93 832.93 127.83 831.61 133.23C830.29 138.63 826.1 144.72 823.12 142.4C818.94 139.1 809.15 123.52 823 119.93Z" fill="#589D83"/>
<path d="M834.1 82.0699C828.23 87.2099 835.15 95.1699 840.42 97.3299C845.69 99.4899 853.15 99.6499 852.87 95.7399C852.48 90.2199 844.92 72.5999 834.1 82.0699Z" fill="#589D83"/>
<path d="M704.507 111.587C704.614 111.046 704.266 110.52 703.729 110.414C703.193 110.309 702.671 110.662 702.564 111.204C702.457 111.746 702.806 112.271 703.342 112.377C703.878 112.483 704.4 112.129 704.507 111.587Z" fill="#CAE3CC"/>
<path d="M704.536 107.463C704.715 106.94 704.647 106.444 704.386 106.355C704.124 106.266 703.768 106.617 703.59 107.14C703.412 107.663 703.479 108.159 703.74 108.248C704.002 108.337 704.358 107.986 704.536 107.463Z" fill="#CAE3CC"/>
<path d="M746.56 48.3C742.44 44.42 725.56 47.3 725.56 57.3C725.56 60.3 722.56 62.3 725.56 66.3C728.56 70.3 740.56 78.3 746.56 76.3C752.56 74.3 763.56 64.3 746.56 48.3Z" fill="#E63E1A"/>
<path d="M743.79 46.7399C743.79 46.7399 752.56 53.2999 755.56 60.2999C758.56 67.2999 759.56 69.2999 765.56 67.2999C771.56 65.2999 783.56 57.2999 774.56 45.2999C765.56 33.2999 743.79 46.7399 743.79 46.7399Z" fill="#E63E1A"/>
<path d="M746.44 47.36C742.44 47.36 738.56 37.3 738.56 34.3C738.56 31.3 739.9 28.65 738.56 25.3C736.56 20.3 747.56 13.3 755.56 18.3C763.56 23.3 763.56 29.3 761.56 33.3C759.56 37.3 757.31 47.41 746.44 47.36Z" fill="#E63E1A"/>
<path d="M747.12 47.36C747.56 44.3 741.56 34.3 730.56 33.3C719.56 32.3 714.56 37.3 713.56 40.3C712.56 43.3 708.56 45.3 711.56 52.3C714.56 59.3 720.56 60.3 726.56 58.3C732.56 56.3 747.12 47.36 747.12 47.36Z" fill="#E63E1A"/>
<path d="M805.56 32.2999C807.7 34.1499 806.56 61.2999 791.56 59.2999C776.56 57.2999 785.56 51.2999 781.56 43.2999C777.56 35.2999 790.56 19.2999 805.56 32.2999Z" fill="#E63E1A"/>
<path d="M805.56 32.3C805.56 32.3 799.56 50.3 808.56 55.3C817.56 60.3 818.56 63.3 824.56 61.3C830.56 59.3 839.56 37.3 835.56 32.3C831.56 27.3 822.56 25.3 805.56 32.3Z" fill="#E63E1A"/>
<path d="M806.86 38.7799C809.56 38.2999 828.56 31.2999 829.56 20.2999C830.56 9.29995 822.56 11.3 817.56 6.29995C812.56 1.29995 811.56 -2.70005 803.56 2.29995C795.56 7.29995 787.56 6.29995 785.56 15.3C783.56 24.2999 806.86 38.7799 806.86 38.7799Z" fill="#E63E1A"/>
<path d="M819.56 128.3C820.112 128.3 820.56 127.852 820.56 127.3C820.56 126.748 820.112 126.3 819.56 126.3C819.008 126.3 818.56 126.748 818.56 127.3C818.56 127.852 819.008 128.3 819.56 128.3Z" fill="#CAE3CC"/>
<path d="M842.887 82.4989C843.072 82.0551 842.737 81.4945 842.141 81.2466C841.544 80.9987 840.911 81.1574 840.726 81.6011C840.542 82.0448 840.876 82.6055 841.473 82.8534C842.07 83.1013 842.703 82.9426 842.887 82.4989Z" fill="#CAE3CC"/>
<path d="M845.06 84.2999C845.336 84.2999 845.56 84.0761 845.56 83.7999C845.56 83.5238 845.336 83.2999 845.06 83.2999C844.784 83.2999 844.56 83.5238 844.56 83.7999C844.56 84.0761 844.784 84.2999 845.06 84.2999Z" fill="#CAE3CC"/>
<path d="M740.56 47.2999L735.56 46.2999" stroke="black" stroke-linecap="round" stroke-linejoin="round"/>
<path d="M752.56 49.2999L747.56 48.2999" stroke="black" stroke-linecap="round" stroke-linejoin="round"/>
<path d="M740.92 50.86L737.6 53.41" stroke="black" stroke-linecap="round" stroke-linejoin="round"/>
<path d="M744.22 52.0399L744.3 56.2299" stroke="black" stroke-linecap="round" stroke-linejoin="round"/>
<path d="M747.12 51.36L748.78 54.19" stroke="black" stroke-linecap="round" stroke-linejoin="round"/>
<path d="M741.12 42.36L742.78 45.19" stroke="black" stroke-linecap="round" stroke-linejoin="round"/>
<path d="M748.56 41.2999L746.15 45.2099" stroke="black" stroke-linecap="round" stroke-linejoin="round"/>
<path d="M744.56 50.2999C745.665 50.2999 746.56 49.4045 746.56 48.2999C746.56 47.1954 745.665 46.2999 744.56 46.2999C743.455 46.2999 742.56 47.1954 742.56 48.2999C742.56 49.4045 743.455 50.2999 744.56 50.2999Z" fill="#F18E6C"/>
<path d="M804.37 32.63L799.73 34.75" stroke="black" stroke-linecap="round" stroke-linejoin="round"/>
<path d="M815.26 27.21L810.62 29.33" stroke="black" stroke-linecap="round" stroke-linejoin="round"/>
<path d="M806.75 35.2999L805.56 39.3199" stroke="black" stroke-linecap="round" stroke-linejoin="round"/>
<path d="M810.11 34.3199L812.64 37.6699" stroke="black" stroke-linecap="round" stroke-linejoin="round"/>
<path d="M812.06 32.0699L815.07 33.3899" stroke="black" stroke-linecap="round" stroke-linejoin="round"/>
<path d="M801.92 28.3099L804.93 29.6199" stroke="black" stroke-linecap="round" stroke-linejoin="round"/>
<path d="M807.32 23.08L807.67 27.66" stroke="black" stroke-linecap="round" stroke-linejoin="round"/>
<path d="M808.19 33.09C809.295 33.09 810.19 32.1945 810.19 31.09C810.19 29.9854 809.295 29.09 808.19 29.09C807.085 29.09 806.19 29.9854 806.19 31.09C806.19 32.1945 807.085 33.09 808.19 33.09Z" fill="#F18E6C"/>
</g>
<g clip-path="url(#clip2)">
<path d="M485.46 233H416.04C414.223 233 412.75 234.473 412.75 236.29V244.71C412.75 246.527 414.223 248 416.04 248H485.46C487.277 248 488.75 246.527 488.75 244.71V236.29C488.75 234.473 487.277 233 485.46 233Z" fill="#9D9D9F"/>
<path d="M268.75 248H439.75C439.75 248 447.75 247 442.75 236C437.75 225 401.75 133 401.75 133C401.75 133 398.75 125 393.75 125H228.75C228.75 125 221.75 126 224.75 134C227.75 142 261.75 241 261.75 241C261.75 241 263.75 248 268.75 248Z" fill="#686868"/>
<path d="M323 178.8C325.7 175.19 338.72 185.61 334.53 195.57C330.86 200.81 323 200.81 321.42 195.57C320.42 192.2 324.05 188.76 323.52 185.57C322.99 182.38 321.39 180.9 323 178.8Z" fill="#9D9D9F"/>
<path d="M322.43 177.09C322.43 177.09 318.84 171.09 310.43 175.84C315.51 182.83 322.43 177.09 322.43 177.09Z" fill="#9D9D9F"/>
</g>
<path d="M174.44 202H129.56C128.146 202 127 203.146 127 204.56V221.44C127 222.854 128.146 224 129.56 224H174.44C175.854 224 177 222.854 177 221.44V204.56C177 203.146 175.854 202 174.44 202Z" fill="#F18E6C"/>
<path d="M232.44 224H106.56C105.146 224 104 225.146 104 226.56V245.44C104 246.854 105.146 248 106.56 248H232.44C233.854 248 235 246.854 235 245.44V226.56C235 225.146 233.854 224 232.44 224Z" fill="#EAB3A1"/>
<path d="M115.751 241.474C115.484 241.474 115.226 241.389 114.978 241.217C114.74 241.045 114.539 240.802 114.377 240.487C114.224 240.163 114.148 239.791 114.148 239.371C114.148 238.112 114.344 236.914 114.735 235.779C115.183 234.453 115.655 233.418 116.152 232.674C116.657 231.93 117.139 231.415 117.597 231.128C117.74 231.042 117.955 230.957 118.241 230.871C118.527 230.785 118.813 230.742 119.099 230.742C119.252 230.742 119.429 230.756 119.629 230.785C120.03 230.89 120.421 231.071 120.802 231.329C121.193 231.586 121.389 231.868 121.389 232.173C121.389 232.326 121.303 232.483 121.131 232.645C120.96 232.798 120.783 232.874 120.602 232.874C120.507 232.874 120.435 232.846 120.387 232.788C120.206 232.531 120.025 232.34 119.844 232.216C119.662 232.082 119.443 232.016 119.185 232.016C118.489 232.016 117.864 232.45 117.311 233.318C116.757 234.176 116.319 235.183 115.994 236.337C115.67 237.492 115.484 238.469 115.436 239.271C115.436 239.576 115.479 239.8 115.565 239.943C115.651 240.086 115.803 240.158 116.023 240.158C116.385 240.158 116.81 240.02 117.296 239.743C117.792 239.457 118.203 239.061 118.527 238.555C118.937 237.783 119.142 237.263 119.142 236.995C119.142 236.843 119.071 236.766 118.928 236.766C118.451 236.766 118.107 236.747 117.897 236.709C117.687 236.671 117.549 236.58 117.482 236.437C117.358 236.399 117.296 236.304 117.296 236.151C117.296 235.932 117.392 235.77 117.583 235.665C117.773 235.56 118.107 235.507 118.584 235.507C118.985 235.517 119.309 235.56 119.557 235.636C119.815 235.703 120.02 235.846 120.173 236.065C120.325 236.275 120.402 236.58 120.402 236.981C120.402 237.153 120.387 237.31 120.359 237.453C120.177 238.274 119.815 238.989 119.271 239.6C118.727 240.21 118.126 240.673 117.468 240.988C116.819 241.312 116.247 241.474 115.751 241.474ZM122.89 234.548C122.795 234.482 122.719 234.396 122.661 234.291C122.604 234.186 122.571 234.086 122.561 233.99C122.552 233.895 122.561 233.838 122.59 233.819C122.647 233.752 122.704 233.661 122.761 233.547C122.819 233.432 122.862 233.351 122.89 233.303C122.967 233.132 123.029 233.008 123.076 232.931C123.143 232.798 123.205 232.726 123.262 232.717C123.339 232.679 123.401 232.66 123.448 232.66C123.572 232.66 123.706 232.702 123.849 232.788C124.002 232.874 124.116 232.974 124.192 233.089C124.259 233.241 124.293 233.375 124.293 233.49C124.293 233.718 124.183 233.971 123.963 234.248C123.868 234.372 123.754 234.467 123.62 234.534C123.486 234.601 123.353 234.634 123.219 234.634C123.086 234.634 122.976 234.606 122.89 234.548ZM121.345 240.287C121.211 240.153 121.144 239.915 121.144 239.571C121.144 239.39 121.168 239.252 121.216 239.156C121.216 239.109 121.225 239.051 121.245 238.985C121.264 238.918 121.273 238.875 121.273 238.856C121.264 238.799 121.302 238.641 121.388 238.384C121.502 238.126 121.645 237.73 121.817 237.196C121.998 236.662 122.122 236.28 122.189 236.051C122.189 236.003 122.208 235.965 122.246 235.937C122.284 235.898 122.342 235.875 122.418 235.865C122.523 235.827 122.656 235.875 122.819 236.008C122.981 236.132 123.114 236.275 123.219 236.437C123.277 236.495 123.305 236.571 123.305 236.666C123.305 236.809 123.243 237.01 123.119 237.267C123.071 237.372 123.024 237.501 122.976 237.654C122.938 237.806 122.905 237.949 122.876 238.083C122.761 238.341 122.671 238.579 122.604 238.799C122.575 238.923 122.556 239.018 122.547 239.085C122.48 239.438 122.418 239.667 122.361 239.772C122.304 240.01 122.222 240.191 122.117 240.315C122.013 240.43 121.893 240.487 121.76 240.487C121.598 240.487 121.459 240.42 121.345 240.287ZM125.957 240.444C125.604 240.406 125.37 240.253 125.256 239.986C125.179 239.91 125.131 239.848 125.112 239.8C125.103 239.753 125.103 239.705 125.112 239.657C125.227 239.657 125.294 239.638 125.313 239.6C125.313 239.571 125.327 239.552 125.356 239.543C125.394 239.533 125.432 239.533 125.47 239.543C125.718 239.562 126.062 239.428 126.5 239.142C126.949 238.856 127.431 238.474 127.946 237.997C128.213 237.654 128.394 237.41 128.49 237.267C128.585 237.115 128.633 236.991 128.633 236.895C128.633 236.848 128.609 236.776 128.561 236.681C128.513 236.604 128.437 236.566 128.332 236.566C128.16 236.566 127.927 236.662 127.631 236.852C127.221 237.11 126.892 237.348 126.644 237.568C126.396 237.778 126.167 238.026 125.957 238.312C125.833 238.474 125.713 238.622 125.599 238.756C125.494 238.88 125.422 238.965 125.384 239.013C125.384 239.051 125.327 239.099 125.213 239.156C125.108 239.214 125.017 239.242 124.941 239.242C124.893 239.223 124.836 239.185 124.769 239.128C124.712 239.07 124.678 239.004 124.669 238.927C124.65 238.908 124.607 238.88 124.54 238.841C124.483 238.794 124.44 238.741 124.411 238.684C124.383 238.627 124.368 238.56 124.368 238.484C124.368 238.341 124.416 238.097 124.511 237.754C124.597 237.363 124.693 236.976 124.798 236.595C124.912 236.204 124.988 235.989 125.027 235.951C125.036 235.932 125.055 235.879 125.084 235.793C125.122 235.708 125.141 235.617 125.141 235.522C125.16 235.436 125.189 235.34 125.227 235.235C125.275 235.121 125.298 235.054 125.298 235.035C125.346 234.997 125.499 234.62 125.756 233.904C125.756 233.866 125.861 233.614 126.071 233.146C126.376 232.431 126.567 231.973 126.644 231.772C126.691 231.696 126.772 231.558 126.887 231.357C126.906 231.329 126.944 231.267 127.001 231.171C127.068 231.066 127.121 231.004 127.159 230.985C127.226 230.966 127.369 231.014 127.588 231.128C127.817 231.243 127.965 231.353 128.032 231.457C128.041 231.477 128.051 231.5 128.06 231.529C128.079 231.548 128.089 231.572 128.089 231.601C128.089 231.648 128.06 231.734 128.003 231.858C127.955 231.982 127.898 232.111 127.831 232.245C127.774 232.369 127.731 232.464 127.703 232.531L127.288 233.389C126.887 234.267 126.543 235.121 126.257 235.951C126.171 236.218 126.095 236.433 126.028 236.595L125.957 236.91L126.329 236.495C126.5 236.323 126.715 236.146 126.973 235.965C127.087 235.889 127.254 235.803 127.474 235.708C127.693 235.612 127.846 235.555 127.931 235.536C128.237 235.46 128.499 235.421 128.719 235.421C129.072 235.421 129.396 235.674 129.692 236.18C129.777 236.332 129.82 236.528 129.82 236.766C129.82 236.938 129.797 237.11 129.749 237.282C129.701 237.453 129.639 237.606 129.563 237.74C129.515 237.778 129.467 237.83 129.42 237.897C129.372 237.954 129.348 238.002 129.348 238.04C129.339 238.097 129.258 238.226 129.105 238.426C128.952 238.627 128.785 238.827 128.604 239.027C128.356 239.285 128.027 239.543 127.617 239.8C127.216 240.058 126.882 240.234 126.615 240.33C126.558 240.339 126.448 240.358 126.286 240.387C126.133 240.406 126.023 240.425 125.957 240.444ZM131.571 240.23C131.495 240.23 131.385 240.21 131.242 240.172C131.108 240.134 131.027 240.101 130.999 240.072C130.941 240.024 130.884 239.953 130.827 239.857C130.77 239.753 130.741 239.633 130.741 239.5C130.741 239.29 130.817 239.07 130.97 238.841C131.027 238.727 131.17 238.331 131.399 237.654L131.686 236.867C131.705 236.704 131.695 236.59 131.657 236.523C131.619 236.447 131.538 236.404 131.414 236.394C131.309 236.394 131.232 236.361 131.185 236.294C131.137 236.218 131.113 236.099 131.113 235.937C131.142 235.66 131.251 235.46 131.442 235.335C131.595 235.259 131.805 235.221 132.072 235.221C132.31 235.221 132.468 235.254 132.544 235.321C132.62 235.378 132.687 235.507 132.744 235.708C132.802 235.908 132.845 236.094 132.873 236.266C132.921 236.237 133.045 236.108 133.245 235.879L133.56 235.55C133.722 235.436 133.908 235.326 134.118 235.221C134.328 235.116 134.476 235.064 134.562 235.064C134.657 235.064 134.781 235.111 134.934 235.207C135.087 235.302 135.187 235.393 135.234 235.479C135.377 235.746 135.449 235.965 135.449 236.137C135.449 236.27 135.416 236.375 135.349 236.452C135.091 236.776 134.805 236.938 134.49 236.938C134.414 236.938 134.352 236.933 134.304 236.924C134.257 236.914 134.199 236.848 134.133 236.724C134.066 236.6 134.028 236.504 134.018 236.437C134.018 236.409 133.946 236.466 133.803 236.609C133.67 236.743 133.584 236.829 133.546 236.867L133.303 237.124C133.15 237.306 132.992 237.544 132.83 237.84C132.678 238.135 132.449 238.584 132.143 239.185L131.957 239.628C131.862 239.848 131.79 240.005 131.743 240.101C131.695 240.187 131.638 240.23 131.571 240.23ZM136.899 240.33C136.804 240.349 136.718 240.358 136.642 240.358C136.518 240.358 136.403 240.349 136.298 240.33C136.193 240.301 136.141 240.268 136.141 240.23C136.141 240.201 136.136 240.182 136.127 240.172C136.117 240.163 136.098 240.158 136.069 240.158C136.041 240.129 135.974 240.082 135.869 240.015C135.774 239.939 135.693 239.886 135.626 239.857C135.511 239.695 135.454 239.519 135.454 239.328C135.454 239.147 135.511 238.856 135.626 238.455C135.635 238.083 135.769 237.668 136.026 237.21C136.294 236.743 136.613 236.313 136.985 235.922C137.357 235.522 137.691 235.235 137.987 235.064C138.13 234.921 138.33 234.849 138.588 234.849C138.788 234.849 138.965 234.892 139.117 234.978C139.241 235.054 139.394 235.216 139.575 235.464C139.766 235.712 139.909 235.937 140.005 236.137C140.024 236.204 140.048 236.294 140.076 236.409C140.114 236.523 140.133 236.662 140.133 236.824L140.105 237.224C139.99 237.616 139.933 237.969 139.933 238.283C139.914 238.417 139.924 238.527 139.962 238.612C140 238.689 140.052 238.727 140.119 238.727C140.167 238.727 140.219 238.713 140.277 238.684C140.334 238.655 140.401 238.641 140.477 238.641C140.601 238.641 140.706 238.679 140.792 238.756C140.878 238.832 140.92 238.927 140.92 239.042C140.92 239.137 140.897 239.228 140.849 239.314C140.763 239.504 140.601 239.676 140.362 239.829C140.133 239.981 139.919 240.058 139.718 240.058C139.556 240.058 139.399 239.972 139.246 239.8C139.103 239.628 138.989 239.404 138.903 239.128L138.817 238.799L138.302 239.271L137.973 239.6C137.82 239.753 137.734 239.843 137.715 239.872C137.667 239.948 137.581 240.02 137.457 240.086C137.343 240.153 137.157 240.234 136.899 240.33ZM137.286 238.956C137.457 238.861 137.601 238.741 137.715 238.598C137.839 238.455 137.992 238.255 138.173 237.997C138.211 237.94 138.249 237.883 138.287 237.825C138.326 237.759 138.373 237.692 138.431 237.625C138.593 237.406 138.707 237.229 138.774 237.096C138.85 236.962 138.908 236.819 138.946 236.666C138.908 236.542 138.85 236.428 138.774 236.323C138.707 236.208 138.645 236.146 138.588 236.137C138.321 236.137 137.958 236.452 137.5 237.081C137.453 237.148 137.376 237.267 137.271 237.439C137.176 237.611 137.114 237.725 137.085 237.783C137.038 237.849 136.971 238.011 136.885 238.269C136.809 238.517 136.771 238.679 136.771 238.756C136.771 238.965 136.833 239.07 136.957 239.07C137.052 239.07 137.162 239.032 137.286 238.956ZM142.826 241.389C142.454 241.379 142.187 241.288 142.025 241.117C141.872 240.955 141.796 240.721 141.796 240.416C141.796 240.339 141.805 240.215 141.824 240.043C141.862 239.91 141.891 239.776 141.91 239.643C141.958 239.433 142.006 239.309 142.053 239.271C142.063 239.261 142.072 239.242 142.082 239.214C142.091 239.185 142.082 239.161 142.053 239.142C142.053 239.018 142.096 238.846 142.182 238.627C142.201 238.56 142.225 238.493 142.254 238.426C142.282 238.36 142.301 238.317 142.311 238.298C142.292 238.279 142.282 238.25 142.282 238.212C142.282 238.164 142.306 238.116 142.354 238.069C142.411 238.021 142.449 237.978 142.468 237.94C142.497 237.902 142.497 237.864 142.468 237.825C142.449 237.778 142.54 237.563 142.74 237.181C142.864 236.933 142.931 236.795 142.94 236.766C142.931 236.738 142.998 236.561 143.141 236.237C143.293 235.913 143.413 235.669 143.499 235.507C143.584 235.46 143.551 235.426 143.398 235.407C143.246 235.388 143.06 235.383 142.84 235.393C142.525 235.383 142.282 235.369 142.11 235.35C141.939 235.321 141.8 235.278 141.695 235.221C141.629 235.154 141.595 235.068 141.595 234.963C141.595 234.839 141.638 234.725 141.724 234.62C141.819 234.515 141.934 234.458 142.068 234.448C142.316 234.439 142.697 234.405 143.212 234.348L143.942 234.291L143.985 234.048C144.033 233.962 144.076 233.89 144.114 233.833C144.162 233.766 144.19 233.709 144.2 233.661C144.219 233.614 144.233 233.542 144.243 233.447C144.271 233.408 144.319 233.313 144.386 233.16C144.462 233.008 144.51 232.86 144.529 232.717C144.634 232.536 144.729 232.364 144.815 232.202C144.91 232.03 144.968 231.93 144.987 231.901C145.158 231.644 145.349 231.515 145.559 231.515C145.674 231.515 145.793 231.553 145.917 231.629C146.041 231.715 146.136 231.791 146.203 231.858C146.27 231.925 146.303 232.016 146.303 232.13C146.303 232.216 146.26 232.34 146.174 232.502C146.136 232.578 146.079 232.731 146.003 232.96C145.936 233.046 145.864 233.165 145.788 233.318C145.712 233.461 145.659 233.599 145.631 233.733C145.612 233.78 145.583 233.847 145.545 233.933C145.507 234.009 145.478 234.057 145.459 234.076C145.449 234.086 145.43 234.091 145.402 234.091C145.411 234.148 145.43 234.186 145.459 234.205C145.488 234.224 145.535 234.234 145.602 234.234C145.65 234.234 145.707 234.229 145.774 234.219C145.85 234.21 145.941 234.205 146.046 234.205C146.141 234.195 146.222 234.181 146.289 234.162C146.365 234.143 146.437 234.133 146.504 234.133C146.542 234.133 146.599 234.148 146.675 234.176C146.723 234.234 146.747 234.343 146.747 234.506C146.747 234.63 146.728 234.749 146.69 234.863C146.651 234.968 146.604 235.035 146.547 235.064C146.499 235.073 146.394 235.102 146.232 235.149C146.07 235.197 145.893 235.226 145.702 235.235L144.944 235.307L144.701 235.793C144.634 235.908 144.577 236.018 144.529 236.123C144.481 236.227 144.448 236.289 144.429 236.309C144.429 236.356 144.391 236.452 144.314 236.595C144.238 236.738 144.181 236.852 144.142 236.938C144.095 237.072 144.038 237.205 143.971 237.339C143.904 237.463 143.861 237.544 143.842 237.582C143.813 237.582 143.794 237.592 143.785 237.611C143.785 237.62 143.785 237.639 143.785 237.668L143.813 237.783C143.813 237.83 143.789 237.878 143.742 237.926C143.704 237.945 143.665 237.978 143.627 238.026C143.599 238.073 143.58 238.107 143.57 238.126C143.589 238.145 143.599 238.169 143.599 238.197C143.599 238.264 143.565 238.35 143.499 238.455C143.499 238.617 143.432 238.861 143.298 239.185C143.308 239.357 143.317 239.466 143.327 239.514C143.336 239.562 143.36 239.581 143.398 239.571H143.47L143.785 239.557C143.852 239.528 143.866 239.6 143.828 239.772C143.799 239.943 143.718 240.206 143.584 240.559C143.441 240.778 143.289 240.969 143.126 241.131C142.974 241.303 142.874 241.389 142.826 241.389ZM161.44 241.403C160.773 241.241 160.277 240.683 159.952 239.729C159.943 239.671 159.938 239.557 159.938 239.385C159.938 239.147 159.947 238.913 159.967 238.684C159.986 238.446 160.009 238.307 160.038 238.269C160.067 238.25 160.081 238.193 160.081 238.097C160.071 238.04 160.105 237.883 160.181 237.625C160.248 237.453 160.267 237.306 160.238 237.181C160.248 237.162 160.262 237.129 160.281 237.081C160.31 237.034 160.343 236.986 160.382 236.938C160.429 236.891 160.453 236.843 160.453 236.795C160.463 236.738 160.463 236.7 160.453 236.681V236.666C160.453 236.628 160.463 236.58 160.482 236.523C160.51 236.456 160.539 236.404 160.568 236.366C160.596 236.337 160.62 236.299 160.639 236.251C160.668 236.204 160.687 236.17 160.696 236.151C160.706 236.084 160.777 235.875 160.911 235.522C161.054 235.159 161.149 234.94 161.197 234.863V234.835C161.235 234.739 161.288 234.639 161.355 234.534C161.374 234.401 161.44 234.215 161.555 233.976C161.774 233.49 162.08 232.931 162.471 232.302C162.871 231.663 163.186 231.233 163.415 231.014C163.663 230.728 163.887 230.585 164.088 230.585C164.193 230.585 164.288 230.628 164.374 230.713C164.441 230.78 164.493 230.876 164.531 231C164.579 231.124 164.603 231.233 164.603 231.329C164.603 231.462 164.565 231.534 164.488 231.543C164.393 231.61 164.245 231.806 164.045 232.13C163.854 232.454 163.597 232.912 163.272 233.504L163.057 233.904C162.933 234.172 162.824 234.396 162.728 234.577C162.643 234.758 162.585 234.878 162.557 234.935L162.499 235.064C162.27 235.55 162.056 236.075 161.855 236.638C161.808 236.695 161.774 236.757 161.755 236.824C161.746 236.881 161.741 236.919 161.741 236.938C161.722 236.929 161.703 236.957 161.684 237.024C161.674 237.081 161.66 237.134 161.641 237.181C161.574 237.239 161.541 237.377 161.541 237.596C161.455 237.825 161.378 238.112 161.312 238.455C161.245 238.799 161.212 239.08 161.212 239.299C161.212 239.509 161.245 239.681 161.312 239.815C161.388 239.948 161.502 240.048 161.655 240.115C161.884 240.23 162.056 240.287 162.17 240.287C162.237 240.296 162.337 240.292 162.471 240.272C162.614 240.253 162.776 240.23 162.957 240.201H162.943C162.991 240.191 163.253 240.134 163.73 240.029C163.959 240.001 164.15 239.958 164.302 239.9C164.379 239.881 164.484 239.853 164.617 239.815C164.76 239.767 164.865 239.743 164.932 239.743C164.999 239.733 165.047 239.738 165.075 239.757C165.132 239.815 165.185 239.896 165.233 240.001C165.29 240.096 165.304 240.182 165.276 240.258C165.256 240.306 165.156 240.406 164.975 240.559C164.794 240.721 164.593 240.873 164.374 241.017C164.155 241.16 163.964 241.255 163.802 241.303C163.477 241.446 163.01 241.517 162.399 241.517C161.97 241.517 161.65 241.479 161.44 241.403ZM167.662 234.334C167.443 234.334 167.314 234.238 167.276 234.048V233.99C167.276 233.904 167.324 233.8 167.419 233.676C167.533 233.504 167.591 233.418 167.591 233.418C167.629 233.361 167.715 233.222 167.848 233.003C167.982 232.784 168.068 232.612 168.106 232.488C168.106 232.45 168.111 232.416 168.12 232.388C167.958 232.416 167.791 232.359 167.619 232.216C167.495 232.101 167.433 231.949 167.433 231.758C167.433 231.596 167.481 231.434 167.576 231.271C167.672 231.109 167.801 230.971 167.963 230.856C168.144 230.742 168.32 230.685 168.492 230.685C168.607 230.685 168.755 230.718 168.936 230.785C169.098 230.89 169.227 231.038 169.322 231.229C169.427 231.419 169.46 231.577 169.422 231.701C169.394 231.949 169.313 232.24 169.179 232.574L169.079 232.874C168.993 233.189 168.707 233.623 168.22 234.176C168.22 234.195 168.206 234.215 168.177 234.234C168.149 234.243 168.106 234.257 168.049 234.277C168.001 234.286 167.944 234.3 167.877 234.319L167.662 234.334ZM168.409 239.986C168.237 239.958 168.08 239.862 167.937 239.7C167.794 239.538 167.722 239.352 167.722 239.142C167.722 238.913 167.865 238.326 168.151 237.382C168.199 237.134 168.304 236.814 168.466 236.423C168.523 236.261 168.557 236.165 168.566 236.137C168.738 235.564 168.972 234.863 169.268 234.033L169.396 233.69C169.73 232.784 169.931 232.23 169.997 232.03L170.226 231.4C170.226 231.324 170.279 231.252 170.384 231.186C170.498 231.109 170.594 231.071 170.67 231.071C170.823 231.071 170.97 231.171 171.114 231.372C171.257 231.572 171.333 231.782 171.343 232.001C171.343 232.116 171.319 232.221 171.271 232.316C171.052 232.793 170.78 233.532 170.455 234.534C170.312 234.954 170.169 235.355 170.026 235.736C169.883 236.108 169.768 236.375 169.683 236.538L169.525 236.852L169.325 237.611C169.325 237.639 169.32 237.663 169.311 237.682C169.301 237.701 169.296 237.716 169.296 237.725C169.296 237.754 169.301 237.768 169.311 237.768L169.554 237.525C169.83 237.248 170.16 236.967 170.541 236.681C170.856 236.461 171.018 236.337 171.028 236.309C171.037 236.28 171.075 236.237 171.142 236.18L171.285 236.065C171.591 235.846 171.92 235.736 172.273 235.736C172.378 235.736 172.502 235.789 172.645 235.894C172.788 235.999 172.907 236.146 173.003 236.337C173.107 236.518 173.16 236.714 173.16 236.924V237.038V237.139C173.16 237.377 173.112 237.692 173.017 238.083C172.931 238.465 172.883 238.684 172.874 238.741C172.921 238.741 172.993 238.732 173.088 238.713C173.231 238.713 173.332 238.727 173.389 238.756C173.456 238.784 173.513 238.822 173.561 238.87C173.608 238.918 173.651 238.946 173.689 238.956C173.708 238.975 173.718 239.004 173.718 239.042C173.718 239.261 173.599 239.452 173.36 239.614C173.122 239.776 172.893 239.867 172.673 239.886C172.406 239.886 172.192 239.786 172.029 239.586C171.867 239.385 171.786 239.142 171.786 238.856C171.786 238.741 171.791 238.627 171.8 238.512C171.81 238.398 171.82 238.298 171.829 238.212C171.858 238.021 171.872 237.868 171.872 237.754C171.872 237.63 171.858 237.549 171.829 237.511C171.81 237.463 171.772 237.439 171.715 237.439C171.524 237.439 171.19 237.616 170.713 237.969C170.245 238.312 169.768 238.76 169.282 239.314C168.977 239.762 168.686 239.986 168.409 239.986ZM176.217 234.548C176.122 234.482 176.046 234.396 175.988 234.291C175.931 234.186 175.898 234.086 175.888 233.99C175.879 233.895 175.888 233.838 175.917 233.819C175.974 233.752 176.031 233.661 176.089 233.547C176.146 233.432 176.189 233.351 176.217 233.303C176.294 233.132 176.356 233.008 176.403 232.931C176.47 232.798 176.532 232.726 176.589 232.717C176.666 232.679 176.728 232.66 176.775 232.66C176.899 232.66 177.033 232.702 177.176 232.788C177.329 232.874 177.443 232.974 177.52 233.089C177.586 233.241 177.62 233.375 177.62 233.49C177.62 233.718 177.51 233.971 177.291 234.248C177.195 234.372 177.081 234.467 176.947 234.534C176.814 234.601 176.68 234.634 176.546 234.634C176.413 234.634 176.303 234.606 176.217 234.548ZM174.672 240.287C174.538 240.153 174.472 239.915 174.472 239.571C174.472 239.39 174.495 239.252 174.543 239.156C174.543 239.109 174.553 239.051 174.572 238.985C174.591 238.918 174.6 238.875 174.6 238.856C174.591 238.799 174.629 238.641 174.715 238.384C174.829 238.126 174.972 237.73 175.144 237.196C175.325 236.662 175.449 236.28 175.516 236.051C175.516 236.003 175.535 235.965 175.573 235.937C175.612 235.898 175.669 235.875 175.745 235.865C175.85 235.827 175.984 235.875 176.146 236.008C176.308 236.132 176.442 236.275 176.546 236.437C176.604 236.495 176.632 236.571 176.632 236.666C176.632 236.809 176.57 237.01 176.446 237.267C176.399 237.372 176.351 237.501 176.303 237.654C176.265 237.806 176.232 237.949 176.203 238.083C176.089 238.341 175.998 238.579 175.931 238.799C175.903 238.923 175.883 239.018 175.874 239.085C175.807 239.438 175.745 239.667 175.688 239.772C175.631 240.01 175.55 240.191 175.445 240.315C175.34 240.43 175.22 240.487 175.087 240.487C174.925 240.487 174.786 240.42 174.672 240.287ZM179.155 240.158C179.05 240.234 178.936 240.272 178.812 240.272C178.668 240.272 178.544 240.22 178.44 240.115C178.249 239.924 178.087 239.566 177.953 239.042C177.829 238.517 177.767 237.84 177.767 237.01C177.815 236.495 177.838 235.946 177.838 235.364C177.915 235.316 178.015 235.293 178.139 235.293C178.311 235.293 178.482 235.331 178.654 235.407C178.75 235.455 178.816 235.531 178.855 235.636C178.902 235.731 178.931 235.894 178.94 236.123C178.959 236.352 178.969 236.724 178.969 237.239L178.94 237.582L178.912 238.298C178.912 238.45 178.921 238.536 178.94 238.555C178.95 238.574 178.959 238.598 178.969 238.627C178.979 238.646 178.988 238.655 178.998 238.655C179.007 238.655 179.079 238.589 179.212 238.455L179.456 238.04C179.57 237.83 179.651 237.692 179.699 237.625C179.746 237.577 179.832 237.463 179.956 237.282L180.185 236.995C180.214 236.948 180.262 236.881 180.328 236.795C180.405 236.7 180.452 236.628 180.472 236.58C180.576 236.409 180.686 236.261 180.801 236.137C180.915 236.013 180.991 235.951 181.03 235.951C181.039 235.96 181.058 235.965 181.087 235.965C181.125 235.965 181.187 235.951 181.273 235.922C181.359 235.894 181.421 235.875 181.459 235.865C181.497 235.827 181.535 235.808 181.573 235.808C181.631 235.808 181.683 235.827 181.731 235.865C181.826 235.941 181.874 236.008 181.874 236.065C181.874 236.151 181.817 236.366 181.702 236.709C181.588 237.053 181.497 237.239 181.43 237.267L181.287 237.41C181.259 237.534 181.073 237.84 180.729 238.326C180.386 238.813 180.071 239.237 179.785 239.6C179.689 239.724 179.58 239.838 179.456 239.943C179.341 240.048 179.241 240.12 179.155 240.158ZM183.621 240.788C182.533 240.788 181.989 240.168 181.989 238.927C181.989 238.479 182.099 237.973 182.318 237.41C182.547 236.838 182.829 236.328 183.163 235.879C183.506 235.421 183.845 235.116 184.179 234.963C184.36 234.868 184.57 234.82 184.808 234.82C185.238 234.82 185.61 234.916 185.924 235.107C186.249 235.288 186.411 235.636 186.411 236.151C186.411 236.447 186.311 236.771 186.11 237.124C185.91 237.477 185.657 237.778 185.352 238.026C185.056 238.264 184.765 238.384 184.479 238.384C184.05 238.384 183.687 238.245 183.392 237.969C183.229 238.293 183.148 238.603 183.148 238.899C183.148 239.137 183.177 239.323 183.234 239.457C183.291 239.581 183.425 239.643 183.635 239.643C183.835 239.643 183.997 239.614 184.121 239.557C184.245 239.5 184.36 239.433 184.465 239.357C184.57 239.28 184.651 239.223 184.708 239.185L184.765 239.156H184.751C184.923 239.061 185.047 238.989 185.123 238.942C185.209 238.884 185.28 238.846 185.338 238.827C185.481 238.827 185.614 238.87 185.738 238.956C185.862 239.042 185.924 239.147 185.924 239.271C185.924 239.366 185.839 239.524 185.667 239.743C185.495 239.953 185.319 240.101 185.137 240.187L184.966 240.272H184.98C184.894 240.387 184.808 240.444 184.722 240.444H184.608C184.57 240.52 184.441 240.597 184.222 240.673C184.012 240.749 183.811 240.788 183.621 240.788ZM184.365 237.339C184.632 237.339 184.851 237.224 185.023 236.995C185.204 236.766 185.295 236.538 185.295 236.309C185.295 236.204 185.266 236.108 185.209 236.022C185.161 235.937 185.094 235.894 185.009 235.894C184.846 235.894 184.665 235.97 184.465 236.123C184.264 236.275 184.088 236.476 183.935 236.724L183.749 237.024C183.787 237.005 183.816 236.995 183.835 236.995C183.911 236.995 183.969 237.029 184.007 237.096C184.045 237.162 184.088 237.22 184.136 237.267C184.183 237.315 184.26 237.339 184.365 237.339ZM187.384 240.315C187.317 240.315 187.226 240.268 187.112 240.172C187.007 240.077 186.945 239.991 186.926 239.915C186.916 239.896 186.912 239.853 186.912 239.786C186.912 239.662 186.969 239.419 187.083 239.056L187.183 238.598C187.279 238.178 187.365 237.825 187.441 237.539C187.47 237.482 187.527 237.32 187.613 237.053C187.67 236.843 187.746 236.638 187.842 236.437C187.956 236.008 188.137 235.584 188.386 235.164C188.414 235.116 188.462 235.059 188.529 234.992C188.595 234.925 188.643 234.892 188.672 234.892C188.729 234.835 188.81 234.806 188.915 234.806C189.068 234.806 189.206 234.858 189.33 234.963C189.454 235.107 189.516 235.259 189.516 235.421C189.516 235.603 189.449 235.827 189.316 236.094C189.239 236.304 189.115 236.571 188.944 236.895C188.81 237.134 188.729 237.291 188.7 237.368C188.815 237.215 189.063 236.929 189.444 236.509C189.559 236.385 189.669 236.285 189.774 236.208C189.879 236.123 190.036 236.013 190.246 235.879C190.456 235.727 190.623 235.622 190.747 235.564C190.871 235.498 191.014 235.464 191.176 235.464C191.252 235.464 191.31 235.469 191.348 235.479C191.472 235.469 191.601 235.55 191.734 235.722C191.877 235.894 191.949 236.089 191.949 236.309C191.949 236.394 191.934 236.48 191.906 236.566C191.791 236.547 191.71 236.538 191.663 236.538C191.472 236.538 191.3 236.576 191.147 236.652C191.004 236.728 190.885 236.805 190.79 236.881C190.694 236.948 190.632 236.991 190.604 237.01C190.27 237.229 189.874 237.525 189.416 237.897C189.187 238.088 189.015 238.255 188.901 238.398C188.786 238.541 188.696 238.694 188.629 238.856C188.61 238.913 188.519 239.137 188.357 239.528C188.195 239.91 188.071 240.134 187.985 240.201C187.937 240.306 187.813 240.358 187.613 240.358C187.508 240.358 187.432 240.344 187.384 240.315ZM196.536 240.401C196.221 240.277 195.987 240.086 195.834 239.829C195.691 239.562 195.62 239.218 195.62 238.799C195.62 238.703 195.629 238.531 195.648 238.283C195.658 238.207 195.663 238.116 195.663 238.011C195.663 237.849 195.644 237.73 195.605 237.654C195.567 237.568 195.501 237.482 195.405 237.396C195.377 237.368 195.31 237.306 195.205 237.21C195.1 237.115 195.052 237.043 195.062 236.995V236.953C195.062 236.886 195.076 236.814 195.105 236.738C195.143 236.652 195.176 236.6 195.205 236.58C195.233 236.571 195.291 236.542 195.377 236.495C195.462 236.447 195.529 236.433 195.577 236.452C195.615 236.452 195.672 236.476 195.749 236.523C195.834 236.571 195.877 236.614 195.877 236.652C195.935 236.766 196.082 236.58 196.321 236.094C196.455 235.894 196.636 235.698 196.865 235.507C197.094 235.307 197.304 235.154 197.494 235.049C197.561 235.021 197.709 234.983 197.938 234.935C198.177 234.878 198.363 234.849 198.496 234.849C198.649 234.849 198.825 234.911 199.026 235.035C199.235 235.159 199.407 235.293 199.541 235.436C199.741 235.579 199.841 235.851 199.841 236.251C199.841 236.49 199.803 236.695 199.727 236.867C199.689 237.01 199.498 237.229 199.154 237.525C198.82 237.811 198.549 237.997 198.339 238.083C198.129 238.131 197.895 238.155 197.637 238.155C197.38 238.155 197.203 238.131 197.108 238.083C197.041 238.045 196.984 238.064 196.936 238.14C196.898 238.207 196.865 238.364 196.836 238.612L196.822 238.756C196.822 238.861 196.846 238.961 196.893 239.056C196.96 239.171 197.022 239.252 197.079 239.299C197.137 239.347 197.223 239.371 197.337 239.371L197.466 239.357C197.571 239.347 197.68 239.295 197.795 239.199C197.919 239.104 198.062 238.975 198.224 238.813C198.396 238.651 198.496 238.555 198.525 238.527C198.572 238.431 198.701 238.384 198.911 238.384C198.997 238.384 199.107 238.398 199.24 238.426C199.336 238.503 199.383 238.598 199.383 238.713C199.383 238.875 199.307 239.094 199.154 239.371C199.107 239.466 198.959 239.628 198.711 239.857C198.472 240.086 198.281 240.244 198.138 240.33C197.881 240.473 197.595 240.544 197.28 240.544C197.041 240.544 196.793 240.497 196.536 240.401ZM197.595 237.181C197.824 237.124 198 237.057 198.124 236.981C198.258 236.895 198.41 236.733 198.582 236.495C198.658 236.266 198.673 236.127 198.625 236.08C198.568 236.022 198.501 235.994 198.425 235.994C198.329 235.994 198.215 236.046 198.081 236.151C197.986 236.18 197.852 236.27 197.68 236.423C197.518 236.566 197.38 236.709 197.265 236.852C197.151 236.986 197.118 237.067 197.165 237.096C197.146 237.124 197.194 237.148 197.308 237.167C197.423 237.177 197.518 237.181 197.595 237.181ZM205.25 240.187C204.649 240.168 204.349 239.829 204.349 239.171C204.349 238.989 204.363 238.813 204.392 238.641C204.411 238.431 204.42 238.283 204.42 238.197V238.126V237.969C204.392 237.778 204.33 237.682 204.234 237.682C204.062 237.682 203.743 237.849 203.275 238.183C202.817 238.508 202.336 238.899 201.83 239.357C201.677 239.519 201.549 239.671 201.444 239.815C201.348 239.939 201.277 240.015 201.229 240.043C201.181 240.072 201.105 240.086 201 240.086C200.867 240.067 200.714 239.967 200.542 239.786C200.37 239.605 200.256 239.442 200.199 239.299C200.199 239.032 200.246 238.779 200.342 238.541C200.437 238.293 200.58 237.983 200.771 237.611C200.857 237.325 200.967 237.038 201.1 236.752C201.243 236.418 201.344 236.165 201.401 235.994C201.468 235.812 201.511 235.626 201.53 235.436C201.53 235.426 201.525 235.421 201.515 235.421C201.515 235.383 201.53 235.35 201.558 235.321C201.587 235.293 201.62 235.278 201.658 235.278C201.677 235.25 201.735 235.235 201.83 235.235C202.078 235.235 202.293 235.302 202.474 235.436C202.655 235.569 202.746 235.774 202.746 236.051C202.746 236.194 202.717 236.332 202.66 236.466C202.612 236.59 202.517 236.8 202.374 237.096L202.216 237.41C202.188 237.468 202.145 237.554 202.088 237.668C202.03 237.773 202.002 237.84 202.002 237.868C202.24 237.706 202.522 237.492 202.846 237.224C203.323 236.843 203.714 236.547 204.02 236.337C204.325 236.127 204.549 236.022 204.692 236.022C204.816 236.022 204.988 236.094 205.207 236.237C205.436 236.371 205.57 236.495 205.608 236.609C205.608 236.676 205.598 236.776 205.579 236.91C205.57 237.043 205.56 237.162 205.551 237.267L205.565 237.711C205.575 237.787 205.579 237.902 205.579 238.054C205.579 238.36 205.56 238.574 205.522 238.698C205.532 238.708 205.541 238.722 205.551 238.741C205.56 238.76 205.565 238.775 205.565 238.784L205.551 238.813C205.56 238.908 205.613 239.061 205.708 239.271C205.804 239.481 205.851 239.595 205.851 239.614C205.851 239.719 205.78 239.838 205.637 239.972C205.503 240.096 205.374 240.168 205.25 240.187ZM212.093 240.53C211.549 240.53 211.11 240.377 210.776 240.072C210.442 239.767 210.275 239.333 210.275 238.77C210.275 238.55 210.29 238.307 210.318 238.04C210.337 237.811 210.428 237.496 210.59 237.096C210.762 236.695 210.991 236.304 211.277 235.922C211.573 235.541 211.916 235.259 212.307 235.078C212.489 234.992 212.641 234.935 212.765 234.906C212.889 234.868 213.033 234.849 213.195 234.849C213.586 234.849 213.901 234.921 214.139 235.064C214.387 235.207 214.559 235.369 214.654 235.55C214.759 235.731 214.812 235.889 214.812 236.022V236.094V236.137C214.812 236.251 214.745 236.461 214.611 236.766C214.478 237.072 214.263 237.358 213.967 237.625C213.681 237.892 213.309 238.04 212.851 238.069C212.622 238.069 212.398 238.05 212.179 238.011C211.969 237.964 211.835 237.94 211.778 237.94C211.635 237.94 211.544 237.992 211.506 238.097C211.468 238.202 211.449 238.379 211.449 238.627C211.478 238.894 211.549 239.08 211.664 239.185C211.788 239.29 211.964 239.342 212.193 239.342C212.307 239.342 212.441 239.309 212.594 239.242C212.746 239.166 212.928 239.047 213.137 238.884C213.252 238.789 213.343 238.722 213.409 238.684C213.476 238.646 213.557 238.627 213.653 238.627C213.738 238.627 213.839 238.684 213.953 238.799C214.068 238.913 214.13 239.023 214.139 239.128C214.12 239.242 214.015 239.414 213.824 239.643C213.634 239.872 213.386 240.077 213.08 240.258C212.775 240.439 212.446 240.53 212.093 240.53ZM212.594 237.081C212.775 237.081 212.899 237.062 212.966 237.024C213.061 236.976 213.204 236.857 213.395 236.666C213.595 236.466 213.7 236.328 213.71 236.251C213.71 236.156 213.667 236.08 213.581 236.022C213.505 235.956 213.395 235.913 213.252 235.894H213.095C212.971 235.894 212.789 235.999 212.551 236.208C212.322 236.409 212.121 236.642 211.95 236.91C211.959 236.957 212.031 237 212.164 237.038C212.298 237.067 212.441 237.081 212.594 237.081ZM213.867 234.377C213.581 234.377 213.438 234.148 213.438 233.69L213.452 233.547C213.471 233.461 213.676 233.208 214.068 232.788C214.459 232.369 214.721 232.135 214.855 232.087C214.931 232.039 215.003 232.011 215.069 232.001C215.193 232.001 215.313 232.068 215.427 232.202C215.551 232.335 215.613 232.512 215.613 232.731C215.613 232.817 215.556 232.917 215.441 233.032C215.336 233.146 215.16 233.303 214.912 233.504C214.568 233.771 214.354 233.971 214.268 234.105C214.144 234.286 214.01 234.377 213.867 234.377ZM216.06 240.544C215.907 240.516 215.735 240.396 215.544 240.187C215.354 239.967 215.234 239.781 215.187 239.628C215.187 239.609 215.177 239.59 215.158 239.571C215.139 239.543 215.125 239.524 215.115 239.514C215.077 239.485 215.058 239.328 215.058 239.042C215.058 238.813 215.067 238.574 215.086 238.326C215.115 238.078 215.148 237.878 215.187 237.725L215.444 236.967L215.645 236.394L216.031 235.564L215.458 235.407C215.392 235.398 215.334 235.364 215.287 235.307C215.249 235.25 215.23 235.197 215.23 235.149C215.23 235.073 215.268 234.963 215.344 234.82C215.43 234.677 215.497 234.606 215.544 234.606C215.573 234.615 215.649 234.62 215.773 234.62C216.06 234.62 216.274 234.606 216.417 234.577C216.513 234.539 216.579 234.463 216.618 234.348C216.665 234.243 216.713 234.157 216.761 234.091C216.808 234.014 216.856 233.933 216.904 233.847C216.932 233.79 216.975 233.704 217.033 233.59C217.099 233.466 217.18 233.327 217.276 233.175C217.295 233.146 217.338 233.079 217.405 232.974C217.471 232.86 217.553 232.764 217.648 232.688C217.705 232.64 217.781 232.602 217.877 232.574C217.972 232.536 218.068 232.516 218.163 232.516C218.335 232.516 218.473 232.564 218.578 232.66C218.664 232.793 218.707 232.893 218.707 232.96C218.707 233.036 218.669 233.137 218.592 233.261C218.535 233.375 218.44 233.528 218.306 233.718C218.192 233.89 218.106 234.029 218.049 234.133C217.953 234.257 217.905 234.353 217.905 234.42C217.905 234.486 217.968 234.52 218.092 234.52C218.225 234.52 218.449 234.491 218.764 234.434C218.812 234.424 218.879 234.42 218.964 234.42C219.193 234.42 219.356 234.486 219.451 234.62C219.546 234.754 219.594 234.921 219.594 235.121C219.594 235.254 219.546 235.335 219.451 235.364C219.365 235.393 219.165 235.407 218.85 235.407C218.545 235.455 218.23 235.479 217.905 235.479C217.848 235.479 217.781 235.483 217.705 235.493C217.638 235.493 217.567 235.502 217.491 235.522C217.414 235.541 217.357 235.569 217.319 235.607C217.29 235.646 217.257 235.708 217.219 235.793C217.19 235.822 217.123 235.932 217.018 236.123C216.885 236.399 216.799 236.566 216.761 236.623C216.513 237.348 216.322 238.097 216.188 238.87C216.179 238.927 216.174 238.999 216.174 239.085C216.174 239.209 216.212 239.299 216.288 239.357C216.374 239.404 216.537 239.428 216.775 239.428C217.042 239.428 217.295 239.395 217.533 239.328C217.82 239.204 218.034 239.099 218.177 239.013C218.263 238.965 218.34 238.923 218.406 238.884C218.483 238.837 218.535 238.803 218.564 238.784C218.602 238.708 218.664 238.717 218.75 238.813C218.845 238.908 218.917 239.018 218.964 239.142C218.964 239.314 218.931 239.471 218.864 239.614C218.797 239.748 218.631 239.891 218.363 240.043C218.058 240.234 217.743 240.373 217.419 240.458C217.095 240.544 216.789 240.587 216.503 240.587C216.341 240.587 216.193 240.573 216.06 240.544ZM221.484 240.53C220.94 240.53 220.501 240.377 220.167 240.072C219.833 239.767 219.666 239.333 219.666 238.77C219.666 238.55 219.681 238.307 219.709 238.04C219.728 237.811 219.819 237.496 219.981 237.096C220.153 236.695 220.382 236.304 220.668 235.922C220.964 235.541 221.307 235.259 221.698 235.078C221.88 234.992 222.032 234.935 222.156 234.906C222.28 234.868 222.423 234.849 222.586 234.849C222.977 234.849 223.292 234.921 223.53 235.064C223.778 235.207 223.95 235.369 224.045 235.55C224.15 235.731 224.203 235.889 224.203 236.022V236.094V236.137C224.203 236.251 224.136 236.461 224.002 236.766C223.869 237.072 223.654 237.358 223.358 237.625C223.072 237.892 222.7 238.04 222.242 238.069C222.013 238.069 221.789 238.05 221.57 238.011C221.36 237.964 221.226 237.94 221.169 237.94C221.026 237.94 220.935 237.992 220.897 238.097C220.859 238.202 220.84 238.379 220.84 238.627C220.868 238.894 220.94 239.08 221.054 239.185C221.178 239.29 221.355 239.342 221.584 239.342C221.698 239.342 221.832 239.309 221.985 239.242C222.137 239.166 222.319 239.047 222.528 238.884C222.643 238.789 222.734 238.722 222.8 238.684C222.867 238.646 222.948 238.627 223.044 238.627C223.129 238.627 223.23 238.684 223.344 238.799C223.459 238.913 223.521 239.023 223.53 239.128C223.511 239.242 223.406 239.414 223.215 239.643C223.024 239.872 222.776 240.077 222.471 240.258C222.166 240.439 221.837 240.53 221.484 240.53ZM221.985 237.081C222.166 237.081 222.29 237.062 222.357 237.024C222.452 236.976 222.595 236.857 222.786 236.666C222.986 236.466 223.091 236.328 223.101 236.251C223.101 236.156 223.058 236.08 222.972 236.022C222.896 235.956 222.786 235.913 222.643 235.894H222.485C222.361 235.894 222.18 235.999 221.942 236.208C221.713 236.409 221.512 236.642 221.341 236.91C221.35 236.957 221.422 237 221.555 237.038C221.689 237.067 221.832 237.081 221.985 237.081ZM223.258 234.377C222.972 234.377 222.829 234.148 222.829 233.69L222.843 233.547C222.862 233.461 223.067 233.208 223.459 232.788C223.85 232.369 224.112 232.135 224.246 232.087C224.322 232.039 224.393 232.011 224.46 232.001C224.584 232.001 224.704 232.068 224.818 232.202C224.942 232.335 225.004 232.512 225.004 232.731C225.004 232.817 224.947 232.917 224.832 233.032C224.727 233.146 224.551 233.303 224.303 233.504C223.959 233.771 223.745 233.971 223.659 234.105C223.535 234.286 223.401 234.377 223.258 234.377Z" fill="white"/>
<g clip-path="url(#clip3)">
<path d="M670 215C670 215 675 245 676 246C677 247 698 247 699 246C700 245 705 215 705 215H670Z" fill="#F18E6C"/>
<path d="M679 207C679 206 671 194 670 180C669 166 680 163 685 163C690 163 703 167 700 181C697 195 694 208 694 208L679 207Z" fill="#589D83"/>
<path d="M694.66 205.8C694.66 205.8 696 185 708 185C720 185 710 199 698 208C686 217 694.66 205.8 694.66 205.8Z" fill="#589D83"/>
<path d="M704.82 204H671.18C668.319 204 666 206.319 666 209.18V213.82C666 216.681 668.319 219 671.18 219H704.82C707.681 219 710 216.681 710 213.82V209.18C710 206.319 707.681 204 704.82 204Z" fill="#EAB3A1"/>
<path d="M675 178C675.552 178 676 177.105 676 176C676 174.895 675.552 174 675 174C674.448 174 674 174.895 674 176C674 177.105 674.448 178 675 178Z" fill="#CAE3CC"/>
<path d="M677 188C677.552 188 678 187.328 678 186.5C678 185.672 677.552 185 677 185C676.448 185 676 185.672 676 186.5C676 187.328 676.448 188 677 188Z" fill="#CAE3CC"/>
<path d="M679.5 182C679.776 182 680 181.552 680 181C680 180.448 679.776 180 679.5 180C679.224 180 679 180.448 679 181C679 181.552 679.224 182 679.5 182Z" fill="#CAE3CC"/>
<path d="M693.5 197C693.776 197 694 196.552 694 196C694 195.448 693.776 195 693.5 195C693.224 195 693 195.448 693 196C693 196.552 693.224 197 693.5 197Z" fill="#CAE3CC"/>
<path d="M710.797 191.497C711.13 190.867 711.13 190.214 710.798 190.039C710.466 189.863 709.927 190.232 709.594 190.862C709.262 191.492 709.261 192.145 709.593 192.32C709.925 192.495 710.464 192.127 710.797 191.497Z" fill="#CAE3CC"/>
<path d="M707.571 192.804C707.806 192.359 707.739 191.863 707.422 191.695C707.104 191.528 706.657 191.752 706.422 192.196C706.187 192.641 706.254 193.137 706.572 193.305C706.889 193.472 707.337 193.248 707.571 192.804Z" fill="#CAE3CC"/>
<path d="M678.5 171C678.776 171 679 170.552 679 170C679 169.448 678.776 169 678.5 169C678.224 169 678 169.448 678 170C678 170.552 678.224 171 678.5 171Z" fill="#CAE3CC"/>
</g>
<g clip-path="url(#clip4)">
<path d="M14 165.73C14 165.73 0 174.73 0 181.73V242.73C0 242.73 0 247.73 7 247.73H48C48 247.73 55 248.73 55 242.73V180.73C55 174.73 45 165.73 45 165.73C45 165.73 47 157.73 44 155.73C41 153.73 19 153.73 15 155.73C11 157.73 14 165.73 14 165.73Z" fill="#CAE3CC"/>
<path d="M17.88 222.48C12.63 219.22 3.31997 224 6.68997 236.62C7.79997 240.51 6.88997 242.51 5.95997 243.52C5.02997 244.53 8.74997 244.88 13.74 243.25C20.48 241.05 26.84 228.05 17.88 222.48Z" fill="#493A32"/>
<path d="M19.2701 207.71C19.2701 207.71 24.34 185.93 28.72 172C33.1 158.07 40.26 140.19 44.18 141C48.1 141.81 32.64 200.34 25.18 210.42C17.72 220.5 19.2701 207.71 19.2701 207.71Z" fill="#E63E1A"/>
<path d="M14.8899 222.46C14.8899 222.46 17.2599 224.3 18.9999 224.33C20.5299 221.51 25.2399 212.41 25.1699 210.45C24.1699 208.52 21.1699 207.64 19.2299 207.71C17.4899 212.69 14.8899 222.46 14.8899 222.46Z" fill="#252B2D"/>
<path opacity="0.56" d="M3 210.73V239.73C3 239.73 3 244.73 6.84 244.73H47.2C47.2 244.73 52 244.73 52 240.73V213.73C52 213.73 43.35 216.73 36.63 215.73C29.91 214.73 21.25 204.73 3 210.73Z" fill="#589D83"/>
</g>
<defs>
<clipPath id="clip0">
<rect width="53" height="26" fill="white" transform="translate(538 226)"/>
</clipPath>
<clipPath id="clip1">
<rect width="152.88" height="249.3" fill="white" transform="translate(700)"/>
</clipPath>
<clipPath id="clip2">
<rect width="264.75" height="123" fill="white" transform="translate(224 125)"/>
</clipPath>
<clipPath id="clip3">
<rect width="47.42" height="83.75" fill="white" transform="translate(666 163)"/>
</clipPath>
<clipPath id="clip4">
<rect width="55" height="106.79" fill="white" transform="translate(0 141)"/>
</clipPath>
</defs>
</svg>
