<svg width="43" height="44" viewBox="0 0 43 44" fill="none" xmlns="http://www.w3.org/2000/svg">
<g clip-path="url(#clip0)">
<path d="M33.74 2H8.73C5.01312 2 2 5.01312 2 8.73V35.01C2 38.7269 5.01312 41.74 8.73 41.74H33.74C37.4569 41.74 40.47 38.7269 40.47 35.01V8.73C40.47 5.01312 37.4569 2 33.74 2Z" stroke="#E63E1A" stroke-width="4" stroke-miterlimit="10"/>
<path d="M10.68 11.67C11.234 11.1909 11.9478 10.9375 12.68 10.96C13.4129 10.9325 14.1285 11.1865 14.68 11.67C14.944 11.8988 15.1537 12.1836 15.2938 12.5036C15.4339 12.8236 15.5009 13.1709 15.49 13.52C15.501 13.8707 15.4341 14.2194 15.294 14.5411C15.154 14.8627 14.9442 15.1493 14.68 15.38C14.136 15.8782 13.4169 16.1406 12.68 16.11C11.9439 16.1353 11.2267 15.8735 10.68 15.38C10.4219 15.1448 10.2158 14.8584 10.0747 14.5389C9.93369 14.2195 9.86084 13.8742 9.86084 13.525C9.86084 13.1759 9.93369 12.8305 10.0747 12.5111C10.2158 12.1917 10.4219 11.9053 10.68 11.67ZM15 19V33.51H10.34V19H15Z" fill="#E63E1A"/>
<path d="M27.8101 22.68C27.6223 22.4348 27.3748 22.2417 27.0912 22.1192C26.8076 21.9967 26.4974 21.9488 26.1901 21.98C25.7267 21.9708 25.2686 22.081 24.8601 22.3C24.4843 22.5111 24.1784 22.8274 23.9801 23.21C23.7567 23.6636 23.6469 24.1646 23.6601 24.67V33.51H18.8601V19H23.6601V21.18C24.052 20.414 24.647 19.7705 25.3801 19.32C26.2024 18.8562 27.1366 18.6279 28.0801 18.66C28.813 18.5855 29.5532 18.6772 30.2457 18.9282C30.9382 19.1793 31.5652 19.5832 32.0801 20.11C32.9641 21.2757 33.4006 22.7199 33.3101 24.18V33.53H28.3101V24.67C28.3537 23.9709 28.179 23.2755 27.8101 22.68Z" fill="#E63E1A"/>
</g>
<defs>
<clipPath id="clip0">
<rect width="42.47" height="43.74" fill="white"/>
</clipPath>
</defs>
</svg>
