<svg width="82" height="85" viewBox="0 0 82 85" fill="none" xmlns="http://www.w3.org/2000/svg">
<path d="M41.8877 67.7926C41.8877 67.7926 44.7555 70.0836 51.3315 72.5666C66.1581 78.1661 78.5852 71.7218 76.5065 78.23C74.7422 83.7527 66.5751 83.3496 54.1416 78.9148C45.9488 76.0031 46.1669 76.1054 40.8355 70.0836C40.2581 69.4437 39.3471 66.6919 40.0657 67.1783C40.7842 67.6646 40.2517 66.7623 41.7273 67.6326" fill="#252B2D"/>
<path d="M36.8065 63.2618C37.9421 63.0699 40.3287 68.6501 51.3443 74.576C59.8194 78.9532 64.2205 79.7915 64.0922 82.2553C63.9511 84.8982 60.307 85.2822 58.8891 84.847C55.1745 83.6887 47.604 78.1277 42.4908 72.381C39.1354 68.6053 35.0486 63.5562 36.8065 63.2618Z" fill="#252B2D"/>
<path d="M36.3831 28.1547C22.5574 33.4534 31.2506 44.2876 31.1287 40.16C30.9811 36.1924 33.0534 34.4645 35.0486 34.4709C40.2453 34.4709 40.2261 39.2513 40.3095 44.5372C40.3095 45.7211 40.3095 44.5372 40.3095 48.4344C40.3095 63.793 50.9273 65.6489 53.1407 65.892V43.6157C53.1022 30.2793 45.9488 26.1325 36.3831 28.1547Z" fill="#252B2D"/>
<path d="M15.3975 36.1667C15.3975 36.8067 15.3334 37.4466 15.2628 38.0866C15.2179 41.1903 15.9685 46.9306 22.1468 46.7066C27.9209 46.489 30.84 40.6335 29.4734 35.1876C26.0924 27.3996 18.8171 19.6627 5.92805 17.3973C5.92805 17.3973 15.3975 22.6192 15.3975 35.834C15.3975 35.9556 15.3975 36.0772 15.3975 36.1987V36.1667Z" fill="#E63E1A"/>
<path d="M22.1468 46.713C15.9685 46.9369 15.2179 41.1967 15.2628 38.093C14.7496 42.8285 13.2675 48.332 17.9638 57.2016C23.231 67.1847 36.7937 67.9206 42.0288 67.9206C34.3301 61.0732 32.3733 54.3091 31.7638 44.614C31.552 41.3655 30.7771 38.1783 29.4734 35.194C30.84 40.6399 27.9401 46.4954 22.1468 46.713Z" fill="#252B2D"/>
<path d="M9.85442 20.6993L14.6469 20.0338L10.573 15.8486L0 15.9766L9.85442 20.6993Z" fill="#252B2D"/>
<path d="M8.64828 17.0261C9.03322 16.7829 27.6899 -0.0923121 38.5836 19.7779C39.4241 21.7873 39.9181 20.2258 47.033 14.3512C55.3734 7.44619 65.9207 10.1403 78.4697 1.19397C85.9696 -3.97676 80.991 9.09724 68.5318 12.7961C54.8794 16.8277 49.1245 14.6647 39.2894 24.6158C38.6093 25.3069 37.6213 25.8253 36.7231 25.4349C36.3007 25.3333 35.9172 25.1109 35.6196 24.795C34.6701 23.8543 33.8938 21.6529 28.4341 18.498C20.53 13.8776 8.64828 17.0261 8.64828 17.0261Z" fill="#252B2D"/>
<path d="M50.9145 16.9621C42.7346 19.8802 53.7887 13.3144 54.1737 13.308C57.8562 13.2184 68.0699 14.3895 76.3076 8.75804C80.574 5.55834 80.5612 10.9786 72.7598 14.8823C66.4788 18.0244 61.1795 13.2888 50.9145 16.9621Z" fill="#252B2D"/>
<path d="M49.1887 33.0246C48.2584 33.9781 53.0381 43.1996 53.0381 41.8749C53.0381 40.4479 52.9483 35.2516 57.529 35.2516C62.1098 35.2516 62.8733 38.0481 62.8733 40.0191C62.8733 42.6237 62.8733 41.7918 62.9182 44.4027C62.9631 47.4168 62.9182 65.7575 62.9182 65.7575C64.5978 65.7575 66.261 65.4274 67.8128 64.7861C69.3645 64.1447 70.7743 63.2047 71.9618 62.0197C73.1492 60.8347 74.0909 59.428 74.7331 57.8798C75.3753 56.3317 75.7054 54.6725 75.7045 52.9971V43.5132C75.7045 30.0744 61.6864 20.3025 49.1887 33.0246Z" fill="#252B2D"/>
</svg>
