<svg width="357" height="101" viewBox="0 0 357 101" fill="none" xmlns="http://www.w3.org/2000/svg">
<path d="M15.73 100.58C13.0433 99.6267 10.4433 98.24 7.93 96.42C5.50333 94.6 3.72667 92.3033 2.6 89.53C1.21333 85.63 0.52 81.0367 0.52 75.75C0.52 70.6367 0.823334 66.3033 1.43 62.75C2.03667 59.11 3.07667 55.4267 4.55 51.7L5.72 48.97C7.10667 45.4167 8.10333 43.0767 8.71 41.95C10.1833 38.57 12.7833 34.1933 16.51 28.82C19.9767 23.62 22.7067 19.7633 24.7 17.25C26.78 14.65 28.9033 12.44 31.07 10.62C33.2367 8.71333 36.4 6.33 40.56 3.46999C43.0733 1.65 46.15 0.739997 49.79 0.739997C52.65 0.739997 55.25 1.43333 57.59 2.81999C60.0167 4.20666 61.8367 6.37333 63.05 9.32C63.9167 10.7933 64.35 12.83 64.35 15.43C64.35 19.59 63.3533 24.0967 61.36 28.95C59.3667 33.8033 56.9833 37.4867 54.21 40C53.6033 40.6067 52.78 40.91 51.74 40.91C50.7 40.91 49.5733 40.6067 48.36 40C47.1467 39.3933 46.0633 38.6567 45.11 37.79C44.33 36.3167 43.8967 35.45 43.81 35.19C43.7233 34.93 43.8967 34.7567 44.33 34.67C45.11 33.7167 46.2367 31.8967 47.71 29.21C49.27 26.4367 50.31 24.27 50.83 22.71L51.61 19.07C52.13 16.8167 52.39 15.3433 52.39 14.65C52.39 13.87 52.0867 13.1767 51.48 12.57C51.22 12.31 50.8733 12.18 50.44 12.18C49.7467 12.18 48.5333 12.6133 46.8 13.48C44.8067 14.3467 42.4233 16.1233 39.65 18.81C36.9633 21.41 34.2767 24.53 31.59 28.17C27.6033 33.37 24.5267 37.66 22.36 41.04C20.28 44.42 18.6767 47.8433 17.55 51.31L16.12 54.69C16.2067 55.0367 16.0767 55.9033 15.73 57.29C15.3833 58.6767 14.9933 59.8033 14.56 60.67C13.3467 65.6967 12.74 70.2467 12.74 74.32C12.74 77.5267 13.0433 80.3 13.65 82.64C14.3433 84.98 15.2967 86.7133 16.51 87.84C17.2033 88.4467 18.2 88.75 19.5 88.75C20.8867 88.75 22.4467 88.4467 24.18 87.84C26 87.1467 27.9067 86.3667 29.9 85.5C31.8933 84.6333 33.28 84.0267 34.06 83.68C36.0533 82.9 37.9167 81.99 39.65 80.95C41.47 79.91 42.8133 78.9567 43.68 78.09C45.9333 76.4433 47.7533 75.62 49.14 75.62C50.2667 75.2733 51.1333 75.62 51.74 76.66C52.4333 77.7 52.78 79.13 52.78 80.95C52.78 82.1633 51.9567 83.6367 50.31 85.37C48.6633 87.0167 46.7133 88.49 44.46 89.79C43.5067 90.7433 41.3833 91.87 38.09 93.17C35.3167 95.1633 32.0667 96.94 28.34 98.5C24.7 100.06 21.3633 100.84 18.33 100.84C17.6367 100.84 16.77 100.753 15.73 100.58ZM70.7931 91.09C69.7531 91.09 68.9298 90.9167 68.3231 90.57C67.7165 90.2233 66.8498 89.5733 65.7231 88.62C63.9898 86.8 62.6465 84.9367 61.6931 83.03C60.7398 81.0367 60.3931 79.3033 60.6531 77.83C60.9131 77.2233 60.9998 76.6167 60.9131 76.01C60.9131 75.4033 60.9131 75.0133 60.9131 74.84C60.5665 74.4933 60.3931 74.2767 60.3931 74.19C60.3931 74.0167 60.4798 73.8867 60.6531 73.8C60.8265 73.6267 60.9565 73.4533 61.0431 73.28C61.5631 73.28 61.7365 72.8033 61.5631 71.85C61.3898 71.1567 61.6931 69.64 62.4731 67.3C63.2531 64.96 64.2498 62.7933 65.4631 60.8C66.4165 59.24 67.8031 57.29 69.6231 54.95C71.5298 52.61 73.2198 50.8333 74.6931 49.62C79.0265 45.8933 82.9265 43.64 86.3931 42.86C88.1265 42.4267 89.8165 42.21 91.4631 42.21C93.9765 42.21 95.9265 42.9033 97.3131 44.29C99.2198 45.07 100.606 46.1967 101.473 47.67C102.34 49.1433 102.903 51.0933 103.163 53.52C103.25 54.04 103.293 54.9067 103.293 56.12C103.293 62.5333 100.866 69.2067 96.0131 76.14C94.0198 79 92.0265 81.2967 90.0331 83.03C88.0398 84.7633 85.6131 86.4967 82.7531 88.23C81.1931 89.27 79.5465 89.9633 77.8131 90.31C76.0798 90.6567 73.7398 90.9167 70.7931 91.09ZM84.0531 75.23C85.6998 73.7567 86.8698 72.2833 87.5631 70.81C88.3431 69.25 89.4265 66.5633 90.8131 62.75C91.3331 61.97 91.5931 60.41 91.5931 58.07C91.5931 55.99 91.2898 54.82 90.6831 54.56C90.2498 54.2133 89.7298 54.04 89.1231 54.04C88.3431 54.04 87.0865 54.6467 85.3531 55.86C82.3198 58.46 79.7631 61.19 77.6831 64.05C75.6898 66.8233 74.3031 70.03 73.5231 73.67C73.4365 74.0167 73.3931 74.5367 73.3931 75.23C73.3931 78.1767 74.4331 79.65 76.5131 79.65C78.5065 79.65 81.0198 78.1767 84.0531 75.23ZM153.513 88.88C148.053 88.7067 145.323 85.63 145.323 79.65C145.323 78.0033 145.453 76.4 145.713 74.84C145.886 72.9333 145.973 71.59 145.973 70.81V70.16V68.73C145.713 66.9967 145.149 66.13 144.283 66.13C142.723 66.13 139.819 67.6467 135.573 70.68C131.413 73.6267 127.036 77.18 122.443 81.34C121.056 82.8133 119.886 84.2 118.933 85.5C118.066 86.6267 117.416 87.32 116.983 87.58C116.549 87.84 115.856 87.97 114.903 87.97C113.689 87.7967 112.303 86.8867 110.743 85.24C109.183 83.5933 108.143 82.12 107.623 80.82C107.623 78.3933 108.056 76.0967 108.923 73.93C109.789 71.6767 111.089 68.86 112.823 65.48C113.603 62.88 114.599 60.28 115.813 57.68C117.113 54.6467 118.023 52.35 118.543 50.79C119.149 49.1433 119.539 47.4533 119.713 45.72C119.713 45.6333 119.669 45.59 119.583 45.59C119.583 45.2433 119.713 44.94 119.973 44.68C120.233 44.42 120.536 44.29 120.883 44.29C121.056 44.03 121.576 43.9 122.443 43.9C124.696 43.9 126.646 44.5067 128.293 45.72C129.939 46.9333 130.763 48.7967 130.763 51.31C130.763 52.61 130.503 53.8667 129.983 55.08C129.549 56.2067 128.683 58.1133 127.383 60.8L125.953 63.66C125.693 64.18 125.303 64.96 124.783 66C124.263 66.9533 124.003 67.56 124.003 67.82C126.169 66.3467 128.726 64.3967 131.673 61.97C136.006 58.5033 139.559 55.8167 142.333 53.91C145.106 52.0033 147.143 51.05 148.443 51.05C149.569 51.05 151.129 51.7 153.123 53C155.203 54.2133 156.416 55.34 156.763 56.38C156.763 56.9867 156.676 57.8967 156.503 59.11C156.416 60.3233 156.329 61.4067 156.243 62.36L156.373 66.39C156.459 67.0833 156.503 68.1233 156.503 69.51C156.503 72.2833 156.329 74.2333 155.983 75.36C156.069 75.4467 156.156 75.5767 156.243 75.75C156.329 75.9233 156.373 76.0533 156.373 76.14L156.243 76.4C156.329 77.2667 156.806 78.6533 157.673 80.56C158.539 82.4667 158.973 83.5067 158.973 83.68C158.973 84.6333 158.323 85.7167 157.023 86.93C155.809 88.0567 154.639 88.7067 153.513 88.88ZM185.621 92.78C183.714 92.26 181.244 90.6567 178.211 87.97C176.737 86.0633 175.871 84.3733 175.611 82.9C175.351 81.34 175.221 78.3067 175.221 73.8C175.221 71.72 176.261 66.52 178.341 58.2C178.427 57.8533 178.731 56.6833 179.251 54.69C179.511 53.7367 179.164 53.13 178.211 52.87C177.257 52.61 175.914 52.48 174.181 52.48C172.707 52.48 171.841 52.3933 171.581 52.22C171.321 52.1333 171.147 51.7433 171.061 51.05C171.061 50.3567 171.061 49.88 171.061 49.62C171.061 49.36 170.844 49.1 170.411 48.84C170.064 48.58 169.804 48.32 169.631 48.06C169.371 47.7133 169.587 47.0633 170.281 46.11C170.974 45.1567 171.754 44.5933 172.621 44.42C173.141 44.3333 174.267 44.2033 176.001 44.03C177.734 43.8567 179.381 43.51 180.941 42.99C182.587 42.47 183.801 41.7333 184.581 40.78C185.707 37.8333 187.007 34.7133 188.481 31.42C190.041 28.1267 191.124 26.1767 191.731 25.57C193.117 24.8767 194.374 24.53 195.501 24.53C197.407 24.53 198.881 25.31 199.921 26.87C200.181 27.2167 200.484 27.5633 200.831 27.91C201.177 28.2567 201.351 28.6467 201.351 29.08C201.351 29.6867 201.047 30.64 200.441 31.94C199.921 33.24 198.837 35.3633 197.191 38.31L195.501 41.56C195.761 41.6467 196.367 41.69 197.321 41.69C198.274 41.69 199.054 41.6467 199.661 41.56C201.567 41.2133 203.041 41.04 204.081 41.04C204.861 41.04 205.424 41.0833 205.771 41.17C209.411 41.17 211.404 43.1633 211.751 47.15C211.924 48.19 211.534 49.0567 210.581 49.75C209.714 50.3567 208.154 50.66 205.901 50.66C196.974 51.0067 192.467 51.3967 192.381 51.83C191.947 52.09 191.254 53.4333 190.301 55.86C189.347 58.2867 188.567 60.5833 187.961 62.75C186.921 67.2567 186.401 71.5033 186.401 75.49C186.401 79.3033 186.964 81.7733 188.091 82.9C188.437 83.2467 188.914 83.42 189.521 83.42C191.081 83.42 193.291 82.25 196.151 79.91C197.104 79.0433 198.144 78.61 199.271 78.61C200.224 78.61 200.961 78.9567 201.481 79.65C202.087 80.3433 202.391 81.2533 202.391 82.38C202.391 83.68 201.957 84.9367 201.091 86.15C199.791 88.1433 197.841 89.79 195.241 91.09C192.641 92.39 190.171 93.04 187.831 93.04C186.791 93.04 186.054 92.9533 185.621 92.78ZM223.328 90.18C222.461 90.3533 221.681 90.44 220.988 90.44C219.861 90.44 218.821 90.3533 217.868 90.18C216.914 89.92 216.438 89.6167 216.438 89.27C216.438 89.01 216.394 88.8367 216.308 88.75C216.221 88.6633 216.048 88.62 215.788 88.62C215.528 88.36 214.921 87.9267 213.968 87.32C213.101 86.6267 212.364 86.15 211.758 85.89C210.718 84.4167 210.198 82.8133 210.198 81.08C210.198 79.4333 210.718 76.79 211.758 73.15C211.844 69.77 213.058 66 215.398 61.84C217.824 57.5933 220.728 53.6933 224.108 50.14C227.488 46.5 230.521 43.9 233.208 42.34C234.508 41.04 236.328 40.39 238.668 40.39C240.488 40.39 242.091 40.78 243.478 41.56C244.604 42.2533 245.991 43.7267 247.638 45.98C249.371 48.2333 250.671 50.27 251.538 52.09C251.711 52.6967 251.928 53.52 252.188 54.56C252.534 55.6 252.708 56.8567 252.708 58.33L252.448 61.97C251.408 65.5233 250.888 68.73 250.888 71.59C250.714 72.8033 250.801 73.8 251.148 74.58C251.494 75.2733 251.971 75.62 252.578 75.62C253.011 75.62 253.488 75.49 254.008 75.23C254.528 74.97 255.134 74.84 255.828 74.84C256.954 74.84 257.908 75.1867 258.688 75.88C259.468 76.5733 259.858 77.44 259.858 78.48C259.858 79.3467 259.641 80.17 259.208 80.95C258.428 82.6833 256.954 84.2433 254.788 85.63C252.708 87.0167 250.758 87.71 248.938 87.71C247.464 87.71 246.034 86.93 244.648 85.37C243.348 83.81 242.308 81.7733 241.528 79.26L240.748 76.27L236.068 80.56L233.078 83.55C231.691 84.9367 230.911 85.76 230.738 86.02C230.304 86.7133 229.524 87.3633 228.398 87.97C227.358 88.5767 225.668 89.3133 223.328 90.18ZM226.838 77.7C228.398 76.8333 229.698 75.75 230.738 74.45C231.864 73.15 233.251 71.33 234.898 68.99C235.244 68.47 235.591 67.95 235.938 67.43C236.284 66.8233 236.718 66.2167 237.238 65.61C238.711 63.6167 239.751 62.0133 240.358 60.8C241.051 59.5867 241.571 58.2867 241.918 56.9C241.571 55.7733 241.051 54.7333 240.358 53.78C239.751 52.74 239.188 52.1767 238.668 52.09C236.241 52.09 232.948 54.95 228.788 60.67C228.354 61.2767 227.661 62.36 226.708 63.92C225.841 65.48 225.278 66.52 225.018 67.04C224.584 67.6467 223.978 69.12 223.198 71.46C222.504 73.7133 222.158 75.1867 222.158 75.88C222.158 77.7867 222.721 78.74 223.848 78.74C224.714 78.74 225.711 78.3933 226.838 77.7ZM284.318 90.83C283.278 91.2633 282.195 91.48 281.068 91.48C279.248 91.48 277.038 91.0033 274.438 90.05C274.091 90.05 272.921 89.2267 270.928 87.58C269.021 85.8467 267.851 84.5033 267.418 83.55C266.378 82.0767 265.858 80.1267 265.858 77.7C265.858 73.54 267.331 67.8633 270.278 60.67C271.231 58.6767 272.791 56.0767 274.958 52.87C277.211 49.5767 278.728 47.7133 279.508 47.28C279.768 47.1933 280.375 46.9767 281.328 46.63C282.281 46.1967 283.365 45.6767 284.578 45.07C285.185 44.81 286.441 44.5067 288.348 44.16C290.255 43.7267 291.598 43.51 292.378 43.51C294.025 43.51 295.845 44.1167 297.838 45.33C299.831 46.4567 301.391 47.8 302.518 49.36C303.731 50.92 304.165 52.2633 303.818 53.39C303.731 53.7367 303.255 54.7767 302.388 56.51C301.521 58.1567 300.828 59.24 300.308 59.76C299.961 60.1933 299.311 60.41 298.358 60.41C297.231 60.41 296.191 60.1067 295.238 59.5C294.285 58.8933 293.765 58.0267 293.678 56.9C293.505 56.38 292.941 55.8167 291.988 55.21C291.121 54.6033 290.515 54.2133 290.168 54.04C289.561 54.04 288.738 54.6467 287.698 55.86C286.658 56.9867 285.401 58.6333 283.928 60.8C282.281 62.4467 281.111 64.2233 280.418 66.13C279.811 67.95 279.378 69.64 279.118 71.2C278.945 72.6733 278.771 73.67 278.598 74.19C278.425 74.71 278.338 75.23 278.338 75.75C278.338 76.6167 278.511 77.4833 278.858 78.35C279.205 79.13 279.551 79.5633 279.898 79.65C281.458 79.7367 283.885 79.39 287.178 78.61C290.558 77.7433 293.548 76.79 296.148 75.75C297.361 74.97 298.661 74.58 300.048 74.58C300.655 74.58 301.261 74.6667 301.868 74.84C302.475 74.9267 302.908 75.0133 303.168 75.1C304.035 75.4467 304.468 76.2267 304.468 77.44C304.468 78.5667 304.078 79.7367 303.298 80.95C302.518 82.1633 301.435 83.16 300.048 83.94C298.575 84.72 297.318 85.5 296.278 86.28C295.238 87.06 294.718 87.6667 294.718 88.1C294.545 88.1 294.198 88.23 293.678 88.49C293.158 88.6633 292.811 88.7067 292.638 88.62C291.685 88.7067 290.211 89.01 288.218 89.53C286.225 90.05 284.925 90.4833 284.318 90.83ZM323.947 92.13C322.56 91.87 321 90.7867 319.267 88.88C317.533 86.8867 316.45 85.1967 316.017 83.81C316.017 83.6367 315.93 83.4633 315.757 83.29C315.583 83.03 315.453 82.8567 315.367 82.77C315.02 82.51 314.847 81.08 314.847 78.48C314.847 76.4 314.933 74.2333 315.107 71.98C315.367 69.7267 315.67 67.9067 316.017 66.52L318.357 59.63L320.177 54.43L323.687 46.89L318.487 45.46C317.88 45.3733 317.36 45.07 316.927 44.55C316.58 44.03 316.407 43.5533 316.407 43.12C316.407 42.4267 316.753 41.43 317.447 40.13C318.227 38.83 318.833 38.18 319.267 38.18C319.527 38.2667 320.22 38.31 321.347 38.31C323.947 38.31 325.897 38.18 327.197 37.92C328.063 37.5733 328.67 36.88 329.017 35.84C329.45 34.8867 329.883 34.1067 330.317 33.5C330.75 32.8067 331.183 32.07 331.617 31.29C331.877 30.77 332.267 29.99 332.787 28.95C333.393 27.8233 334.13 26.5667 334.997 25.18C335.17 24.92 335.56 24.3133 336.167 23.36C336.773 22.32 337.51 21.4533 338.377 20.76C338.897 20.3267 339.59 19.98 340.457 19.72C341.323 19.3733 342.19 19.2 343.057 19.2C344.617 19.2 345.873 19.6333 346.827 20.5C347.607 21.7133 347.997 22.6233 347.997 23.23C347.997 23.9233 347.65 24.8333 346.957 25.96C346.437 27 345.57 28.3867 344.357 30.12C343.317 31.68 342.537 32.9367 342.017 33.89C341.15 35.0167 340.717 35.8833 340.717 36.49C340.717 37.0967 341.28 37.4 342.407 37.4C343.62 37.4 345.657 37.14 348.517 36.62C348.95 36.5333 349.557 36.49 350.337 36.49C352.417 36.49 353.89 37.0967 354.757 38.31C355.623 39.5233 356.057 41.04 356.057 42.86C356.057 44.0733 355.623 44.81 354.757 45.07C353.977 45.33 352.157 45.46 349.297 45.46C346.523 45.8933 343.663 46.11 340.717 46.11C340.197 46.11 339.59 46.1533 338.897 46.24C338.29 46.24 337.64 46.3267 336.947 46.5C336.253 46.6733 335.733 46.9333 335.387 47.28C335.127 47.6267 334.823 48.19 334.477 48.97C334.217 49.23 333.61 50.2267 332.657 51.96C331.443 54.4733 330.663 55.99 330.317 56.51C328.063 63.0967 326.33 69.9 325.117 76.92C325.03 77.44 324.987 78.09 324.987 78.87C324.987 79.9967 325.333 80.82 326.027 81.34C326.807 81.7733 328.28 81.99 330.447 81.99C332.873 81.99 335.17 81.6867 337.337 81.08C339.937 79.9533 341.887 79 343.187 78.22C343.967 77.7867 344.66 77.3967 345.267 77.05C345.96 76.6167 346.437 76.3133 346.697 76.14C347.043 75.4467 347.607 75.5333 348.387 76.4C349.253 77.2667 349.903 78.2633 350.337 79.39C350.337 80.95 350.033 82.38 349.427 83.68C348.82 84.8933 347.303 86.1933 344.877 87.58C342.103 89.3133 339.243 90.57 336.297 91.35C333.35 92.13 330.577 92.52 327.977 92.52C326.503 92.52 325.16 92.39 323.947 92.13Z" fill="#E63E1A"/>
</svg>
