<svg width="523" height="129" viewBox="0 0 523 129" fill="none" xmlns="http://www.w3.org/2000/svg">
<g clip-path="url(#clip0)">
<path d="M305.1 118.67V84.14C305.1 84.14 305.98 78.58 313.88 70.68C321.78 62.78 340.23 50.78 340.23 35C357.23 35.59 378.86 35 378.86 35C378.86 35 381.2 54.87 407 72.44C415.78 79.44 414 90 414 90V118.67H305.1Z" fill="#E63E1A"/>
<path d="M284 46.29C283.05 27.19 305.83 1.40996 359.61 -3.92981e-05C413.39 -1.41004 435.05 28.69 435.05 47.42C435.05 66.15 402.94 63.42 402.8 46.64C402.731 44.5391 403.271 42.4632 404.356 40.6624C405.44 38.8615 407.021 37.4125 408.91 36.49C408.91 36.49 403.05 16.63 364 16.63C324.95 16.63 309 32 309 32C309 32 326.56 43.52 309.19 54.83C291.82 66.14 284.42 53.9 284 46.29Z" fill="#E63E1A"/>
<path d="M321.88 6.87C328.3 4.67 336.71 24.24 336.71 24.24C336.71 24.24 356.42 20.73 383.54 24.24C387.05 17.41 396.03 3.24 401.3 6.71C406.57 10.18 396.81 30.87 390.18 33.22C383.55 35.57 343.54 36.92 332.62 33.22C321.7 29.52 315.64 9 321.88 6.87Z" fill="#F18E6C"/>
<path d="M359.53 104.88C372.531 104.88 383.07 94.3407 383.07 81.3399C383.07 68.3391 372.531 57.7999 359.53 57.7999C346.529 57.7999 335.99 68.3391 335.99 81.3399C335.99 94.3407 346.529 104.88 359.53 104.88Z" fill="#F18E6C"/>
<path d="M359.53 65.8499C360.927 65.8499 362.06 64.7172 362.06 63.3199C362.06 61.9226 360.927 60.7899 359.53 60.7899C358.133 60.7899 357 61.9226 357 63.3199C357 64.7172 358.133 65.8499 359.53 65.8499Z" fill="#E63E1A"/>
<path d="M377.87 83.8699C379.267 83.8699 380.4 82.7372 380.4 81.3399C380.4 79.9427 379.267 78.8099 377.87 78.8099C376.473 78.8099 375.34 79.9427 375.34 81.3399C375.34 82.7372 376.473 83.8699 377.87 83.8699Z" fill="#E63E1A"/>
<path d="M359.53 102.04C360.927 102.04 362.06 100.907 362.06 99.51C362.06 98.1127 360.927 96.98 359.53 96.98C358.133 96.98 357 98.1127 357 99.51C357 100.907 358.133 102.04 359.53 102.04Z" fill="#E63E1A"/>
<path d="M342.09 83.8699C343.487 83.8699 344.62 82.7372 344.62 81.3399C344.62 79.9427 343.487 78.8099 342.09 78.8099C340.693 78.8099 339.56 79.9427 339.56 81.3399C339.56 82.7372 340.693 83.8699 342.09 83.8699Z" fill="#E63E1A"/>
<path d="M346.71 71.65C348.107 71.65 349.24 70.5173 349.24 69.12C349.24 67.7227 348.107 66.59 346.71 66.59C345.313 66.59 344.18 67.7227 344.18 69.12C344.18 70.5173 345.313 71.65 346.71 71.65Z" fill="#E63E1A"/>
<path d="M372.4 71.2099C373.797 71.2099 374.93 70.0772 374.93 68.6799C374.93 67.2826 373.797 66.1499 372.4 66.1499C371.003 66.1499 369.87 67.2826 369.87 68.6799C369.87 70.0772 371.003 71.2099 372.4 71.2099Z" fill="#E63E1A"/>
<path d="M372.4 96.4599C373.797 96.4599 374.93 95.3272 374.93 93.9299C374.93 92.5326 373.797 91.3999 372.4 91.3999C371.003 91.3999 369.87 92.5326 369.87 93.9299C369.87 95.3272 371.003 96.4599 372.4 96.4599Z" fill="#E63E1A"/>
<path d="M347.15 96.4599C348.547 96.4599 349.68 95.3272 349.68 93.9299C349.68 92.5326 348.547 91.3999 347.15 91.3999C345.753 91.3999 344.62 92.5326 344.62 93.9299C344.62 95.3272 345.753 96.4599 347.15 96.4599Z" fill="#E63E1A"/>
<path d="M432.52 43C432.52 43 447.15 38.32 454.96 44C462.77 49.68 455.96 58.83 450.66 56.49C445.36 54.15 454.37 42.83 465.1 51.41C471.74 57.07 464.42 68.88 457.3 61.75C450.18 54.62 471 50 475.44 62.48C477.44 70.29 469.44 73.22 466.08 69.12C462.72 65.02 475.64 59.57 480.71 66.59C485.78 73.61 477.2 85.38 471.71 78.81C466.22 72.24 492.42 68.73 487.93 83C483.44 97.27 473.1 88.12 478.37 83.9C483.64 79.68 492.23 83.39 496.91 92.56C498.66 97.01 491.25 106.91 486.37 99.56C481.49 92.21 500.23 89.9 505.3 102C507.44 107.91 502.37 116.49 497.3 111.42C492.23 106.35 507.84 99.91 513.69 107.13C519.54 114.35 514.86 120.77 509.98 118.63C505.1 116.49 512.91 104.2 522.47 107.91C532.03 111.62 532.23 121.57 525.98 122.54C519.73 123.51 518.57 104.54 538.47 109.66C538.47 109.66 548.23 114.54 540.81 124.1C537.1 128 525.81 110.1 549.81 110.44C558.2 110.83 560.15 124.54 555.46 125.79C550.77 127.04 542.2 112.59 565.61 110.05C570.68 109.27 580.05 120.05 570.49 124.3C560.93 128.55 560.15 105.68 579.07 104.84C597.99 104 589.07 128.2 589.07 128.2" stroke="#E63E1A" stroke-width="2" stroke-miterlimit="10"/>
</g>
<g clip-path="url(#clip1)">
<path d="M100.2 102H4.29C1.9207 102 0 103.921 0 106.29V115.47C0 117.839 1.9207 119.76 4.29 119.76H100.2C102.569 119.76 104.49 117.839 104.49 115.47V106.29C104.49 103.921 102.569 102 100.2 102Z" fill="#EAB3A1"/>
</g>
<g clip-path="url(#clip2)">
<path d="M244.37 87.88H156.75C154.381 87.88 152.46 89.8007 152.46 92.17V114.81C152.46 117.179 154.381 119.1 156.75 119.1H244.37C246.739 119.1 248.66 117.179 248.66 114.81V92.17C248.66 89.8007 246.739 87.88 244.37 87.88Z" fill="#252B2D"/>
<path d="M239.2 61H143.29C140.921 61 139 62.9207 139 65.29V83.29C139 85.6593 140.921 87.58 143.29 87.58H239.2C241.569 87.58 243.49 85.6593 243.49 83.29V65.29C243.49 62.9207 241.569 61 239.2 61Z" fill="#CAE3CC"/>
<path d="M181.544 97.72C181.555 97.7627 181.56 97.816 181.56 97.88C181.56 98.0187 181.496 98.12 181.368 98.184C181.304 98.2053 181.176 98.248 180.984 98.312C180.803 98.3653 180.653 98.392 180.536 98.392C180.44 98.392 180.365 98.3813 180.312 98.36C180.205 98.264 180.077 98.1947 179.928 98.152C179.779 98.1093 179.469 98.072 179 98.04C178.861 98.0613 178.739 98.072 178.632 98.072C178.525 98.072 178.44 98.0773 178.376 98.088C178.291 98.3653 178.184 98.6267 178.056 98.872C178.013 99.0747 177.955 99.256 177.88 99.416C177.805 99.6293 177.773 99.752 177.784 99.784C177.752 99.8267 177.651 100.099 177.48 100.6C177.309 101.091 177.149 101.571 177 102.04C176.893 102.371 176.813 102.611 176.76 102.76C176.707 102.867 176.637 103.037 176.552 103.272C176.477 103.496 176.424 103.656 176.392 103.752L175.992 104.856C175.907 105.016 175.8 105.272 175.672 105.624C175.555 105.965 175.459 106.275 175.384 106.552C175.267 106.968 175.16 107.267 175.064 107.448C174.979 107.629 174.904 107.741 174.84 107.784C174.776 107.827 174.685 107.848 174.568 107.848C174.397 107.848 174.248 107.763 174.12 107.592C173.992 107.421 173.928 107.261 173.928 107.112C173.928 106.877 174.008 106.483 174.168 105.928C174.339 105.373 174.499 104.931 174.648 104.6C174.691 104.408 174.728 104.253 174.76 104.136C174.803 104.019 174.829 103.933 174.84 103.88C174.872 103.837 174.92 103.725 174.984 103.544C175.059 103.352 175.117 103.176 175.16 103.016C175.192 102.824 175.523 101.752 176.152 99.8L176.264 99.464C176.36 99.304 176.451 99.1013 176.536 98.856C176.621 98.8027 176.664 98.6907 176.664 98.52C176.664 98.488 176.68 98.4453 176.712 98.392C176.755 98.3387 176.776 98.3013 176.776 98.28C176.787 98.2693 176.803 98.264 176.824 98.264C176.835 98.264 176.845 98.2693 176.856 98.28C176.877 98.28 176.909 98.2587 176.952 98.216H176.936L176.152 98.296L175.8 98.328C175.171 98.3813 174.813 98.4187 174.728 98.44L174.504 98.456C174.173 98.456 173.939 98.392 173.8 98.264C173.672 98.1253 173.629 97.9707 173.672 97.8C173.704 97.6613 173.784 97.5493 173.912 97.464C174.051 97.3787 174.275 97.304 174.584 97.24C174.68 97.2187 174.867 97.1867 175.144 97.144L175.576 97.064L176.12 97C176.739 96.904 177.395 96.84 178.088 96.808C178.376 96.7973 178.616 96.7867 178.808 96.776C179.011 96.7547 179.144 96.7387 179.208 96.728C179.357 96.7387 179.597 96.7653 179.928 96.808C180.269 96.8507 180.515 96.8987 180.664 96.952C180.899 97.0053 181.091 97.1013 181.24 97.24C181.389 97.3787 181.491 97.5387 181.544 97.72ZM180.459 107C179.851 107 179.36 106.829 178.987 106.488C178.613 106.147 178.427 105.661 178.427 105.032C178.427 104.787 178.443 104.515 178.475 104.216C178.496 103.96 178.597 103.608 178.779 103.16C178.971 102.712 179.227 102.275 179.547 101.848C179.877 101.421 180.261 101.107 180.699 100.904C180.901 100.808 181.072 100.744 181.211 100.712C181.349 100.669 181.509 100.648 181.691 100.648C182.128 100.648 182.48 100.728 182.747 100.888C183.024 101.048 183.216 101.229 183.323 101.432C183.44 101.635 183.499 101.811 183.499 101.96V102.04V102.088C183.499 102.216 183.424 102.451 183.275 102.792C183.125 103.133 182.885 103.453 182.555 103.752C182.235 104.051 181.819 104.216 181.307 104.248C181.051 104.248 180.8 104.227 180.555 104.184C180.32 104.131 180.171 104.104 180.107 104.104C179.947 104.104 179.845 104.163 179.803 104.28C179.76 104.397 179.739 104.595 179.739 104.872C179.771 105.171 179.851 105.379 179.979 105.496C180.117 105.613 180.315 105.672 180.571 105.672C180.699 105.672 180.848 105.635 181.019 105.56C181.189 105.475 181.392 105.341 181.627 105.16C181.755 105.053 181.856 104.979 181.931 104.936C182.005 104.893 182.096 104.872 182.203 104.872C182.299 104.872 182.411 104.936 182.539 105.064C182.667 105.192 182.736 105.315 182.747 105.432C182.725 105.56 182.608 105.752 182.395 106.008C182.181 106.264 181.904 106.493 181.563 106.696C181.221 106.899 180.853 107 180.459 107ZM181.019 103.144C181.221 103.144 181.36 103.123 181.435 103.08C181.541 103.027 181.701 102.893 181.915 102.68C182.139 102.456 182.256 102.301 182.267 102.216C182.267 102.109 182.219 102.024 182.123 101.96C182.037 101.885 181.915 101.837 181.755 101.816H181.579C181.44 101.816 181.237 101.933 180.971 102.168C180.715 102.392 180.491 102.653 180.299 102.952C180.309 103.005 180.389 103.053 180.539 103.096C180.688 103.128 180.848 103.144 181.019 103.144ZM184.138 106.568C183.989 106.451 183.872 106.339 183.786 106.232C183.701 106.125 183.674 105.976 183.706 105.784C183.738 105.421 183.818 105 183.946 104.52L184.026 104.2C184.058 103.912 184.224 103.347 184.522 102.504C184.832 101.651 185.088 101.075 185.29 100.776C185.397 100.669 185.578 100.616 185.834 100.616C186.048 100.616 186.197 100.659 186.282 100.744C186.368 100.808 186.41 100.915 186.41 101.064C186.41 101.309 186.256 101.741 185.946 102.36L185.786 102.696C185.712 102.835 185.648 102.963 185.594 103.08C185.552 103.197 185.557 103.251 185.61 103.24C185.728 103.037 186.01 102.76 186.458 102.408C186.917 102.056 187.232 101.837 187.402 101.752C187.477 101.709 187.573 101.667 187.69 101.624C187.808 101.581 187.888 101.549 187.93 101.528C188.122 101.432 188.341 101.384 188.586 101.384C188.757 101.384 188.901 101.411 189.018 101.464C189.146 101.507 189.232 101.576 189.274 101.672C189.285 101.747 189.312 101.805 189.354 101.848C189.408 101.891 189.445 101.917 189.466 101.928C189.498 101.928 189.52 101.944 189.53 101.976C189.541 101.997 189.546 102.013 189.546 102.024C189.546 102.109 189.472 102.221 189.322 102.36C189.173 102.488 189.018 102.557 188.858 102.568C188.741 102.579 188.618 102.605 188.49 102.648C188.362 102.691 188.234 102.744 188.106 102.808L187.69 103.048C187.328 103.229 187.018 103.411 186.762 103.592C186.517 103.763 186.266 103.987 186.01 104.264C185.957 104.317 185.877 104.392 185.77 104.488C185.674 104.584 185.589 104.696 185.514 104.824C185.44 104.899 185.36 105.096 185.274 105.416C185.2 105.725 185.162 105.917 185.162 105.992C185.152 106.024 185.13 106.088 185.098 106.184C185.066 106.28 185.018 106.365 184.954 106.44C184.858 106.557 184.778 106.643 184.714 106.696C184.65 106.749 184.581 106.776 184.506 106.776C184.4 106.776 184.277 106.707 184.138 106.568ZM190.832 106.664C190.747 106.664 190.624 106.643 190.464 106.6C190.315 106.557 190.224 106.52 190.192 106.488C190.128 106.435 190.064 106.355 190 106.248C189.936 106.131 189.904 105.997 189.904 105.848C189.904 105.613 189.989 105.368 190.16 105.112C190.224 104.984 190.384 104.541 190.64 103.784L190.96 102.904C190.981 102.723 190.971 102.595 190.928 102.52C190.885 102.435 190.795 102.387 190.656 102.376C190.539 102.376 190.453 102.339 190.4 102.264C190.347 102.179 190.32 102.045 190.32 101.864C190.352 101.555 190.475 101.331 190.688 101.192C190.859 101.107 191.093 101.064 191.392 101.064C191.659 101.064 191.835 101.101 191.92 101.176C192.005 101.24 192.08 101.384 192.144 101.608C192.208 101.832 192.256 102.04 192.288 102.232C192.341 102.2 192.48 102.056 192.704 101.8L193.056 101.432C193.237 101.304 193.445 101.181 193.68 101.064C193.915 100.947 194.08 100.888 194.176 100.888C194.283 100.888 194.421 100.941 194.592 101.048C194.763 101.155 194.875 101.256 194.928 101.352C195.088 101.651 195.168 101.896 195.168 102.088C195.168 102.237 195.131 102.355 195.056 102.44C194.768 102.803 194.448 102.984 194.096 102.984C194.011 102.984 193.941 102.979 193.888 102.968C193.835 102.957 193.771 102.883 193.696 102.744C193.621 102.605 193.579 102.499 193.568 102.424C193.568 102.392 193.488 102.456 193.328 102.616C193.179 102.765 193.083 102.861 193.04 102.904L192.768 103.192C192.597 103.395 192.421 103.661 192.24 103.992C192.069 104.323 191.813 104.824 191.472 105.496L191.264 105.992C191.157 106.237 191.077 106.413 191.024 106.52C190.971 106.616 190.907 106.664 190.832 106.664ZM197.974 100.344C197.942 100.376 197.91 100.392 197.878 100.392C197.835 100.392 197.766 100.36 197.67 100.296C197.563 100.285 197.419 100.195 197.238 100.024C197.067 99.8533 196.982 99.7413 196.982 99.688C196.971 99.56 196.982 99.3787 197.014 99.144C197.046 98.8987 197.104 98.68 197.19 98.488C197.286 98.296 197.408 98.1947 197.558 98.184C197.632 98.1947 197.734 98.2213 197.862 98.264C197.99 98.296 198.134 98.344 198.294 98.408C198.496 98.8133 198.598 99.16 198.598 99.448C198.598 99.8747 198.39 100.173 197.974 100.344ZM196.502 106.984C196.246 106.984 196.022 106.851 195.83 106.584C195.648 106.317 195.536 105.987 195.494 105.592C195.536 105.197 195.568 104.909 195.59 104.728C195.707 104.205 195.851 103.592 196.022 102.888C196.203 102.173 196.31 101.779 196.342 101.704C196.395 101.608 196.48 101.56 196.598 101.56C196.715 101.56 196.843 101.608 196.982 101.704C197.131 101.789 197.254 101.912 197.35 102.072C197.435 102.189 197.478 102.323 197.478 102.472C197.478 102.696 197.371 103.165 197.158 103.88C197.008 104.413 196.912 104.792 196.87 105.016C196.827 105.24 196.811 105.48 196.822 105.736C196.779 106.216 196.736 106.547 196.694 106.728C196.651 106.909 196.587 106.995 196.502 106.984ZM199.578 106.856C199.226 106.717 198.965 106.504 198.794 106.216C198.634 105.917 198.554 105.533 198.554 105.064C198.554 104.957 198.565 104.765 198.586 104.488C198.597 104.403 198.602 104.301 198.602 104.184C198.602 104.003 198.581 103.869 198.538 103.784C198.496 103.688 198.421 103.592 198.314 103.496C198.282 103.464 198.208 103.395 198.09 103.288C197.973 103.181 197.92 103.101 197.93 103.048V103C197.93 102.925 197.946 102.845 197.978 102.76C198.021 102.664 198.058 102.605 198.09 102.584C198.122 102.573 198.186 102.541 198.282 102.488C198.378 102.435 198.453 102.419 198.506 102.44C198.549 102.44 198.613 102.467 198.698 102.52C198.794 102.573 198.842 102.621 198.842 102.664C198.906 102.792 199.072 102.584 199.338 102.04C199.488 101.816 199.69 101.597 199.946 101.384C200.202 101.16 200.437 100.989 200.65 100.872C200.725 100.84 200.89 100.797 201.146 100.744C201.413 100.68 201.621 100.648 201.77 100.648C201.941 100.648 202.138 100.717 202.362 100.856C202.597 100.995 202.789 101.144 202.938 101.304C203.162 101.464 203.274 101.768 203.274 102.216C203.274 102.483 203.232 102.712 203.146 102.904C203.104 103.064 202.89 103.309 202.506 103.64C202.133 103.96 201.829 104.168 201.594 104.264C201.36 104.317 201.098 104.344 200.81 104.344C200.522 104.344 200.325 104.317 200.218 104.264C200.144 104.221 200.08 104.243 200.026 104.328C199.984 104.403 199.946 104.579 199.914 104.856L199.898 105.016C199.898 105.133 199.925 105.245 199.978 105.352C200.053 105.48 200.122 105.571 200.186 105.624C200.25 105.677 200.346 105.704 200.474 105.704L200.618 105.688C200.736 105.677 200.858 105.619 200.986 105.512C201.125 105.405 201.285 105.261 201.466 105.08C201.658 104.899 201.77 104.792 201.802 104.76C201.856 104.653 202 104.6 202.234 104.6C202.33 104.6 202.453 104.616 202.602 104.648C202.709 104.733 202.762 104.84 202.762 104.968C202.762 105.149 202.677 105.395 202.506 105.704C202.453 105.811 202.288 105.992 202.01 106.248C201.744 106.504 201.53 106.68 201.37 106.776C201.082 106.936 200.762 107.016 200.41 107.016C200.144 107.016 199.866 106.963 199.578 106.856ZM200.762 103.256C201.018 103.192 201.216 103.117 201.354 103.032C201.504 102.936 201.674 102.755 201.866 102.488C201.952 102.232 201.968 102.077 201.914 102.024C201.85 101.96 201.776 101.928 201.69 101.928C201.584 101.928 201.456 101.987 201.306 102.104C201.2 102.136 201.05 102.237 200.858 102.408C200.677 102.568 200.522 102.728 200.394 102.888C200.266 103.037 200.229 103.128 200.282 103.16C200.261 103.192 200.314 103.219 200.442 103.24C200.57 103.251 200.677 103.256 200.762 103.256ZM208.842 106.52C208.682 106.52 208.522 106.477 208.362 106.392C208.202 106.307 208.074 106.179 207.978 106.008L207.898 105.848C207.77 105.485 207.706 105.133 207.706 104.792V104.088C207.706 103.971 207.695 103.912 207.674 103.912C207.589 103.912 207.221 104.259 206.57 104.952C206.111 105.432 205.711 105.805 205.37 106.072C205.039 106.328 204.81 106.456 204.682 106.456C204.639 106.456 204.538 106.419 204.378 106.344C204.218 106.259 204.117 106.195 204.074 106.152C203.999 106.077 203.951 105.987 203.93 105.88C203.909 105.773 203.898 105.571 203.898 105.272C203.898 104.931 203.967 104.547 204.106 104.12C204.245 103.683 204.479 103.101 204.81 102.376C204.895 102.227 204.981 102.045 205.066 101.832C205.311 101.277 205.541 100.893 205.754 100.68C205.839 100.68 205.898 100.685 205.93 100.696C206.069 100.707 206.229 100.771 206.41 100.888C206.602 101.005 206.719 101.16 206.762 101.352C206.762 101.533 206.735 101.715 206.682 101.896C206.629 102.077 206.506 102.301 206.314 102.568C206.197 102.728 206.042 103.075 205.85 103.608C205.797 103.693 205.722 103.827 205.626 104.008C205.541 104.179 205.498 104.275 205.498 104.296C205.509 104.307 205.541 104.285 205.594 104.232C205.647 104.168 205.701 104.109 205.754 104.056L206.186 103.624C207.029 102.781 207.679 102.349 208.138 102.328C208.373 102.328 208.581 102.451 208.762 102.696C208.943 102.941 209.034 103.235 209.034 103.576C209.034 103.64 209.023 103.821 209.002 104.12V105.032C209.247 104.968 209.434 104.909 209.562 104.856C209.829 104.76 210.106 104.701 210.394 104.68C210.373 104.861 210.271 105.101 210.09 105.4C209.919 105.699 209.717 105.96 209.482 106.184C209.247 106.408 209.034 106.52 208.842 106.52ZM216.666 106.616C215.994 106.595 215.658 106.216 215.658 105.48C215.658 105.277 215.674 105.08 215.706 104.888C215.727 104.653 215.738 104.488 215.738 104.392V104.312V104.136C215.706 103.923 215.636 103.816 215.53 103.816C215.338 103.816 214.98 104.003 214.458 104.376C213.946 104.739 213.407 105.176 212.842 105.688C212.671 105.869 212.527 106.04 212.41 106.2C212.303 106.339 212.223 106.424 212.17 106.456C212.116 106.488 212.031 106.504 211.914 106.504C211.764 106.483 211.594 106.371 211.402 106.168C211.21 105.965 211.082 105.784 211.018 105.624C211.018 105.325 211.071 105.043 211.178 104.776C211.284 104.499 211.444 104.152 211.658 103.736C211.754 103.416 211.876 103.096 212.026 102.776C212.186 102.403 212.298 102.12 212.362 101.928C212.436 101.725 212.484 101.517 212.506 101.304C212.506 101.293 212.5 101.288 212.49 101.288C212.49 101.245 212.506 101.208 212.538 101.176C212.57 101.144 212.607 101.128 212.65 101.128C212.671 101.096 212.735 101.08 212.842 101.08C213.119 101.08 213.359 101.155 213.562 101.304C213.764 101.453 213.866 101.683 213.866 101.992C213.866 102.152 213.834 102.307 213.77 102.456C213.716 102.595 213.61 102.829 213.45 103.16L213.274 103.512C213.242 103.576 213.194 103.672 213.13 103.8C213.066 103.917 213.034 103.992 213.034 104.024C213.3 103.843 213.615 103.603 213.978 103.304C214.511 102.877 214.948 102.547 215.29 102.312C215.631 102.077 215.882 101.96 216.042 101.96C216.18 101.96 216.372 102.04 216.618 102.2C216.874 102.349 217.023 102.488 217.066 102.616C217.066 102.691 217.055 102.803 217.034 102.952C217.023 103.101 217.012 103.235 217.002 103.352L217.018 103.848C217.028 103.933 217.034 104.061 217.034 104.232C217.034 104.573 217.012 104.813 216.97 104.952C216.98 104.963 216.991 104.979 217.002 105C217.012 105.021 217.018 105.037 217.018 105.048L217.002 105.08C217.012 105.187 217.071 105.357 217.178 105.592C217.284 105.827 217.338 105.955 217.338 105.976C217.338 106.093 217.258 106.227 217.098 106.376C216.948 106.515 216.804 106.595 216.666 106.616ZM220.506 107C219.898 107 219.407 106.829 219.034 106.488C218.66 106.147 218.474 105.661 218.474 105.032C218.474 104.787 218.49 104.515 218.522 104.216C218.543 103.96 218.644 103.608 218.826 103.16C219.018 102.712 219.274 102.275 219.594 101.848C219.924 101.421 220.308 101.107 220.746 100.904C220.948 100.808 221.119 100.744 221.258 100.712C221.396 100.669 221.556 100.648 221.738 100.648C222.175 100.648 222.527 100.728 222.794 100.888C223.071 101.048 223.263 101.229 223.37 101.432C223.487 101.635 223.546 101.811 223.546 101.96V102.04V102.088C223.546 102.216 223.471 102.451 223.322 102.792C223.172 103.133 222.932 103.453 222.602 103.752C222.282 104.051 221.866 104.216 221.354 104.248C221.098 104.248 220.847 104.227 220.602 104.184C220.367 104.131 220.218 104.104 220.154 104.104C219.994 104.104 219.892 104.163 219.85 104.28C219.807 104.397 219.786 104.595 219.786 104.872C219.818 105.171 219.898 105.379 220.026 105.496C220.164 105.613 220.362 105.672 220.618 105.672C220.746 105.672 220.895 105.635 221.066 105.56C221.236 105.475 221.439 105.341 221.674 105.16C221.802 105.053 221.903 104.979 221.978 104.936C222.052 104.893 222.143 104.872 222.25 104.872C222.346 104.872 222.458 104.936 222.586 105.064C222.714 105.192 222.783 105.315 222.794 105.432C222.772 105.56 222.655 105.752 222.442 106.008C222.228 106.264 221.951 106.493 221.61 106.696C221.268 106.899 220.9 107 220.506 107ZM221.066 103.144C221.268 103.144 221.407 103.123 221.482 103.08C221.588 103.027 221.748 102.893 221.962 102.68C222.186 102.456 222.303 102.301 222.314 102.216C222.314 102.109 222.266 102.024 222.17 101.96C222.084 101.885 221.962 101.837 221.802 101.816H221.626C221.487 101.816 221.284 101.933 221.018 102.168C220.762 102.392 220.538 102.653 220.346 102.952C220.356 103.005 220.436 103.053 220.586 103.096C220.735 103.128 220.895 103.144 221.066 103.144Z" fill="white"/>
<path d="M154.71 81.25C158.537 81.25 161.64 78.1473 161.64 74.32C161.64 70.4927 158.537 67.39 154.71 67.39C150.883 67.39 147.78 70.4927 147.78 74.32C147.78 78.1473 150.883 81.25 154.71 81.25Z" fill="#589D83"/>
</g>
<defs>
<clipPath id="clip0">
<rect width="308.13" height="128.59" fill="white" transform="translate(284)"/>
</clipPath>
<clipPath id="clip1">
<rect width="104.49" height="17.76" fill="white" transform="translate(0 102)"/>
</clipPath>
<clipPath id="clip2">
<rect width="109.66" height="58.1" fill="white" transform="translate(139 61)"/>
</clipPath>
</defs>
</svg>
