<svg width="1440" height="8192" viewBox="0 0 1440 8192" fill="none" xmlns="http://www.w3.org/2000/svg">
<rect x="-121.5" y="-11.5" width="1600" height="1023" fill="#EEF6EE"/>
<rect x="-121.5" y="-11.5" width="1600" height="1023" fill="url(#paint0_linear)"/>
<rect x="-121.5" y="-11.5" width="1600" height="1023" stroke="black"/>
<rect x="-121.5" y="-11.5" width="1600" height="1023" stroke="url(#paint1_linear)"/>
<rect x="-4" y="3072" width="1481" height="1024" fill="#EEF6EE"/>
<rect x="-4" y="3072" width="1481" height="1024" fill="url(#paint2_linear)"/>
<rect x="-13" y="5120" width="1481" height="1024" fill="#EEF6EE"/>
<rect x="-13" y="5120" width="1481" height="1024" fill="url(#paint3_linear)"/>
<rect x="-12.5" y="7168.5" width="1480" height="1023" fill="#EEF6EE"/>
<rect x="-12.5" y="7168.5" width="1480" height="1023" fill="url(#paint4_linear)"/>
<rect x="-12.5" y="7168.5" width="1480" height="1023" stroke="black"/>
<rect x="-12.5" y="7168.5" width="1480" height="1023" stroke="url(#paint5_linear)"/>
<path d="M501 799.5C267.4 831.1 2 735.667 -101.5 684V1084L1478.5 1099V835.5C1417.33 785 1246.9 684 1054.5 684C814 684 793 760 501 799.5Z" fill="#589D83"/>
<path d="M501 799.5C267.4 831.1 2 735.667 -101.5 684V1084L1478.5 1099V835.5C1417.33 785 1246.9 684 1054.5 684C814 684 793 760 501 799.5Z" fill="url(#paint6_linear)" fill-opacity="0.5"/>
<path d="M255 4636.5C75 4636.5 -67.6667 4479.17 -116.5 4400.5L-874 5758C-630.167 5613 -63 5324.5 255 5330.5C652.5 5338 844 5821.5 1114 5814C1330 5808 1474 5699.17 1519 5645.5L1901.5 4854C1821.5 4665.33 1579.7 4285.7 1252.5 4276.5C843.5 4265 480 4636.5 255 4636.5Z" fill="#CAE3CC"/>
<path d="M255 4636.5C75 4636.5 -67.6667 4479.17 -116.5 4400.5L-874 5758C-630.167 5613 -63 5324.5 255 5330.5C652.5 5338 844 5821.5 1114 5814C1330 5808 1474 5699.17 1519 5645.5L1901.5 4854C1821.5 4665.33 1579.7 4285.7 1252.5 4276.5C843.5 4265 480 4636.5 255 4636.5Z" fill="url(#paint7_linear)"/>
<path d="M338.5 2379C-20.5 2412.5 -61.5 2585.67 -96 2639.5L-312.5 3441.5C-292.833 3377.67 -287.5 3382.4 56.5 3318C486.5 3237.5 901.446 3604.97 1114.5 3644C1382 3693 1594.83 3554.83 1734.5 3481.5L1771 2419C1717.17 2450.83 1536.71 2643.68 1271.5 2693C822.5 2776.5 638.764 2350.98 338.5 2379Z" fill="#CAE3CC"/>
<path d="M338.5 2379C-20.5 2412.5 -61.5 2585.67 -96 2639.5L-312.5 3441.5C-292.833 3377.67 -287.5 3382.4 56.5 3318C486.5 3237.5 901.446 3604.97 1114.5 3644C1382 3693 1594.83 3554.83 1734.5 3481.5L1771 2419C1717.17 2450.83 1536.71 2643.68 1271.5 2693C822.5 2776.5 638.764 2350.98 338.5 2379Z" fill="url(#paint8_linear)"/>
<path d="M532.5 8221C321.3 8221 -346.5 8237 -452.5 8188L-413.5 6122.5C-183.333 6398.5 297.4 6915 711 6607C1124.6 6299 1465.33 6328.17 1542.5 6402L1579.5 6998C1547.83 7122.83 1552.5 7930 1517 8221H532.5Z" fill="#CAE3CC"/>
<path d="M532.5 8221C321.3 8221 -346.5 8237 -452.5 8188L-413.5 6122.5C-183.333 6398.5 297.4 6915 711 6607C1124.6 6299 1465.33 6328.17 1542.5 6402L1579.5 6998C1547.83 7122.83 1552.5 7930 1517 8221H532.5Z" fill="url(#paint9_linear)"/>
<path d="M-171.239 909.104C38.3036 909.104 174.03 697.131 473.262 697.131C772.495 697.131 852.661 897.989 1197.93 897.989C1543.2 897.989 1821 636 1821 636V1522H-707L-657.789 712.215C-657.789 712.215 -499.045 909.104 -171.239 909.104Z" fill="url(#paint10_linear)"/>
<g clip-path="url(#clip0)">
<path d="M-465.901 7942.08C-465.901 7942.08 -274.555 7761.03 156.959 7753.15C588.474 7745.27 649.134 8041.82 1031.91 8039.19C1414.69 8036.56 1635 7839.76 1635 7839.76L1574.68 8469.53L-500 8501L-465.901 7942.08Z" fill="url(#paint11_linear)"/>
</g>
<path d="M346 8026.5C201.6 8024.5 28.8333 7960.33 -39.5 7928.5V8325L1497 8338.5V7844C1436.17 7817.33 1312 7739 1065 7777C875.415 7806.17 624.5 8026.5 346 8026.5Z" fill="#589D83"/>
<path d="M346 8026.5C201.6 8024.5 28.8333 7960.33 -39.5 7928.5V8325L1497 8338.5V7844C1436.17 7817.33 1312 7739 1065 7777C875.415 7806.17 624.5 8026.5 346 8026.5Z" fill="url(#paint12_linear)" fill-opacity="0.5"/>
<defs>
<linearGradient id="paint0_linear" x1="678.5" y1="-12" x2="678.5" y2="481" gradientUnits="userSpaceOnUse">
<stop stop-color="#EEF6EE"/>
<stop offset="0.740625" stop-color="white"/>
</linearGradient>
<linearGradient id="paint1_linear" x1="678.5" y1="-12" x2="678.5" y2="1012" gradientUnits="userSpaceOnUse">
<stop stop-color="white"/>
<stop offset="1" stop-color="white" stop-opacity="0"/>
</linearGradient>
<linearGradient id="paint2_linear" x1="736.5" y1="3072" x2="736.5" y2="4096" gradientUnits="userSpaceOnUse">
<stop stop-color="#EEF6EE"/>
<stop offset="0.740625" stop-color="white"/>
</linearGradient>
<linearGradient id="paint3_linear" x1="727.5" y1="5120" x2="727.5" y2="6144" gradientUnits="userSpaceOnUse">
<stop stop-color="#EEF6EE"/>
<stop offset="0.740625" stop-color="white"/>
</linearGradient>
<linearGradient id="paint4_linear" x1="727.5" y1="7168" x2="727.5" y2="8192" gradientUnits="userSpaceOnUse">
<stop stop-color="#EEF6EE"/>
<stop offset="0.740625" stop-color="white"/>
</linearGradient>
<linearGradient id="paint5_linear" x1="727.5" y1="7168" x2="727.5" y2="8192" gradientUnits="userSpaceOnUse">
<stop stop-color="white"/>
<stop offset="1" stop-color="white" stop-opacity="0"/>
</linearGradient>
<linearGradient id="paint6_linear" x1="688.5" y1="684" x2="688.5" y2="1099" gradientUnits="userSpaceOnUse">
<stop offset="0.177083" stop-color="white" stop-opacity="0"/>
<stop offset="1" stop-color="#CAE3CC"/>
</linearGradient>
<linearGradient id="paint7_linear" x1="513.75" y1="4276.24" x2="513.75" y2="5814.09" gradientUnits="userSpaceOnUse">
<stop stop-color="white" stop-opacity="0"/>
<stop offset="1" stop-color="#EEF6EE"/>
</linearGradient>
<linearGradient id="paint8_linear" x1="729.25" y1="2377.67" x2="729.25" y2="3654.28" gradientUnits="userSpaceOnUse">
<stop stop-color="white" stop-opacity="0"/>
<stop offset="1" stop-color="#EEF6EE"/>
</linearGradient>
<linearGradient id="paint9_linear" x1="583" y1="6122.5" x2="583" y2="7485.03" gradientUnits="userSpaceOnUse">
<stop stop-color="white" stop-opacity="0"/>
<stop offset="1" stop-color="white"/>
</linearGradient>
<linearGradient id="paint10_linear" x1="473.524" y1="1730.21" x2="701.339" y2="438.526" gradientUnits="userSpaceOnUse">
<stop offset="0.29" stop-color="white"/>
<stop offset="0.5" stop-color="#F4F9F4"/>
<stop offset="0.87" stop-color="#D6E9D7"/>
<stop offset="1" stop-color="#CAE3CC"/>
</linearGradient>
<linearGradient id="paint11_linear" x1="567.5" y1="8501" x2="567.5" y2="7753" gradientUnits="userSpaceOnUse">
<stop offset="0.29" stop-color="white"/>
<stop offset="0.5" stop-color="#F4F9F4"/>
<stop offset="0.87" stop-color="#D6E9D7"/>
<stop offset="1" stop-color="#CAE3CC"/>
</linearGradient>
<linearGradient id="paint12_linear" x1="728.75" y1="7766.79" x2="728.75" y2="8338.5" gradientUnits="userSpaceOnUse">
<stop offset="0.109375" stop-color="white" stop-opacity="0"/>
<stop offset="1" stop-color="#CAE3CC"/>
</linearGradient>
<clipPath id="clip0">
<rect width="2135" height="748" fill="white" transform="translate(-500 7753)"/>
</clipPath>
</defs>
</svg>
