<svg width="278" height="124" viewBox="0 0 278 124" fill="none" xmlns="http://www.w3.org/2000/svg">
<g clip-path="url(#clip0)">
<path d="M251.372 69.8757C260.805 69.9196 268.651 65.933 268.897 60.9712C269.142 56.0095 261.693 51.9516 252.26 51.9077C242.827 51.8637 234.981 55.8504 234.736 60.8121C234.491 65.7739 241.939 69.8318 251.372 69.8757Z" fill="#CAE3CC"/>
<path d="M239.421 20.8418C239.421 20.8418 245.38 5.05514 257.471 3.59115C269.563 2.12716 275.673 19.028 275.673 19.028L239.421 20.8418Z" fill="#F18E6C"/>
<path d="M257.389 25.9654C267.406 25.4664 275.514 22.7278 275.498 19.8485C275.483 16.9693 267.35 15.0396 257.333 15.5386C247.316 16.0375 239.208 18.7761 239.223 21.6554C239.239 24.5347 247.372 26.4643 257.389 25.9654Z" fill="#252B2D"/>
<path d="M248.79 60.9609C241.578 60.4968 241.604 49.1673 251.246 38.4566C255.254 34.1266 255.715 26.8936 255.667 23.2895C255.67 22.6891 255.887 22.0998 256.281 21.6282C256.675 21.1565 257.22 20.8338 257.815 20.7183C258.161 20.6528 258.513 20.6589 258.85 20.7361C259.187 20.8133 259.501 20.96 259.772 21.1669C260.044 21.3738 260.267 21.6365 260.427 21.9384C260.588 22.2403 260.682 22.5749 260.705 22.9211C261.256 32.1323 261.995 61.8106 248.79 60.9609Z" fill="#F18E6C"/>
</g>
<g clip-path="url(#clip1)">
<path d="M155.423 87.6487C178.098 83.4915 195.388 75.7066 194.042 70.2607C192.696 64.8147 173.223 63.7699 150.548 67.927C127.873 72.0842 110.583 79.8691 111.929 85.3151C113.275 90.7611 132.748 91.8059 155.423 87.6487Z" fill="#CAE3CC"/>
<path d="M116.188 15.8115C116.188 15.8115 128.873 0.920622 140.922 1.69592C152.971 2.47123 163.452 17.6288 163.138 20.5052C156.174 20.7813 116.188 15.8115 116.188 15.8115Z" fill="#F18E6C"/>
<path d="M140.054 25.5373C127.144 24.7066 115.33 21.774 115.879 16.7402C116.428 11.7064 131.999 11.9841 141.466 12.5933C150.934 13.2025 163.608 16.1905 163.137 20.5051C162.667 24.8198 147.8 26.0357 140.054 25.5373Z" fill="#252B2D"/>
<path d="M143.52 77.1759C152.317 77.4885 154.365 65.8671 144.937 48.3006C139.531 38.2707 141.12 26.0115 142.032 21.2256C142.082 20.9623 142.067 20.6939 141.988 20.4372C141.908 20.1805 141.766 19.9409 141.57 19.7333C141.374 19.5258 141.128 19.3547 140.848 19.2308C140.568 19.1068 140.26 19.0326 139.942 19.0128C139.345 18.9757 138.75 19.1323 138.281 19.45C137.812 19.7677 137.506 20.2222 137.425 20.7191C136.682 25.4581 135.112 38.5005 138.246 50.0426C141.646 62.5721 131.001 76.7324 143.52 77.1759Z" fill="#F18E6C"/>
</g>
<g clip-path="url(#clip2)">
<path d="M24.58 120.409C34.2837 117.309 40.9977 112.669 39.5763 110.046C38.1549 107.422 29.1363 107.809 19.4326 110.909C9.72901 114.009 3.01496 118.649 4.43637 121.272C5.85778 123.896 14.8764 123.509 24.58 120.409Z" fill="#CAE3CC"/>
<path d="M0 82.2547C0 82.2547 6 68.4324 17 68.4324C28 68.4324 33 82.2547 33 82.2547H0Z" fill="#F18E6C"/>
<path d="M16.5 86.8621C25.6127 86.8621 33 84.7993 33 82.2546C33 79.71 25.6127 77.6472 16.5 77.6472C7.3873 77.6472 0 79.71 0 82.2546C0 84.7993 7.3873 86.8621 16.5 86.8621Z" fill="#252B2D"/>
<path d="M24.1 115.182C19.27 117.663 8.15997 107.503 13.1 84.2052C13.2106 83.6572 13.5749 83.1583 14.126 82.8001C14.6771 82.4418 15.378 82.2481 16.1 82.2547C16.5281 82.252 16.9519 82.3198 17.3431 82.4533C17.7343 82.5869 18.0837 82.7832 18.3678 83.0291C18.652 83.2749 18.8644 83.5647 18.9907 83.8788C19.1169 84.1929 19.1542 84.5241 19.1 84.8502C18.49 88.8049 17.88 96.3688 21.1 100.777C25.6 106.95 30.12 112.095 24.1 115.182Z" fill="#F18E6C"/>
</g>
<defs>
<clipPath id="clip0">
<rect width="36.2384" height="66.8674" fill="white" transform="matrix(0.997936 0.0642107 -0.108473 0.994099 241.103 2.3302)"/>
</clipPath>
<clipPath id="clip1">
<rect width="83.7443" height="89.2725" fill="white" transform="matrix(0.997936 0.0642107 -0.108473 0.994099 117.684 0.200684)"/>
</clipPath>
<clipPath id="clip2">
<rect width="39.76" height="54.5826" fill="white" transform="translate(0 68.4324)"/>
</clipPath>
</defs>
</svg>
