<svg width="204" height="398" viewBox="0 0 204 398" fill="none" xmlns="http://www.w3.org/2000/svg">
<path d="M183.723 367.871C187.791 368.703 191.726 369.895 195.436 371.825C197.978 373.149 200.332 374.738 202.102 377.065C204.758 380.526 204.569 384.48 201.763 387.753C198.185 391.914 193.308 393.9 188.224 395.471C184.834 396.511 181.369 397.173 177.848 397.514C174.514 397.835 171.181 398.081 167.829 397.93C161.577 397.627 155.382 396.833 149.431 394.714C145.834 393.446 142.407 391.839 139.563 389.247C137.266 387.166 135.722 384.669 136.042 381.378C136.249 379.24 137.36 377.481 138.81 375.948C141.164 373.47 144.102 371.844 147.209 370.538C151.352 368.798 155.702 367.776 160.127 367.171C162.481 366.85 164.835 366.604 167.208 366.547C167.076 368.401 166.85 370.236 166.888 372.089C166.944 375.759 168.507 377.764 172.029 378.635C172.782 378.824 173.554 378.937 174.326 379.089C178.281 379.807 181.369 377.973 182.744 374.17C183.497 372.146 183.629 370.009 183.723 367.871Z" fill="#66A38B"/>
<path d="M183.723 367.871C183.629 370.008 183.497 372.127 182.763 374.189C181.388 377.991 178.299 379.826 174.345 379.107C173.573 378.975 172.801 378.843 172.047 378.653C168.526 377.764 166.963 375.759 166.907 372.108C166.869 370.254 167.114 368.4 167.227 366.566C167.942 360.134 167.792 353.759 166.116 347.479C165.212 344.074 164.195 340.706 163.611 337.226C162.726 331.929 162.481 326.613 162.914 321.26C163.008 320.125 163.065 319.009 163.14 317.874C163.197 317.666 163.291 317.458 163.31 317.25C163.63 315.074 164.025 312.899 164.553 310.78C165.061 308.794 166.624 307.772 168.564 308.189C170.522 308.605 171.332 310.005 170.936 312.161C170.541 314.318 170.277 316.512 170.447 318.725C170.334 324.835 171.765 330.643 174.1 336.223C175.795 340.29 177.979 344.111 179.524 348.254C181.501 353.589 182.989 359.018 183.591 364.674C183.704 365.733 183.685 366.811 183.723 367.871Z" fill="#F08E6C"/>
<path d="M170.447 318.707C170.296 316.494 170.541 314.318 170.937 312.143C171.332 309.986 170.522 308.586 168.564 308.17C166.624 307.754 165.061 308.776 164.553 310.762C164.007 312.899 163.63 315.056 163.31 317.231C163.272 317.439 163.197 317.647 163.14 317.856C158.809 316.985 154.685 315.642 151.069 312.994C150.41 312.521 149.808 311.972 149.262 311.348C147.604 309.457 146.493 307.073 148.621 303.99C148.678 303.914 148.753 303.819 148.81 303.744C150.9 301.795 153.405 300.604 156.154 299.96C165.231 297.823 174.063 298.655 182.593 302.42C185.644 303.763 188.356 305.635 189.693 308.927L189.711 309.003C189.73 309.154 189.749 309.286 189.749 309.438C190.069 311.556 189.165 313.183 187.621 314.469C185.324 316.399 182.574 317.288 179.712 317.912C176.642 318.612 173.554 318.782 170.447 318.707Z" fill="#262C2D"/>
<path d="M189.655 308.946C188.318 305.654 185.606 303.781 182.555 302.438C174.044 298.655 165.193 297.841 156.116 299.979C153.367 300.622 150.862 301.814 148.772 303.762C149.092 302.154 149.958 300.811 150.693 299.393C153.047 294.739 155.871 290.388 159.656 286.775C162.443 284.108 165.588 282.027 169.468 281.289C175.738 280.116 181.124 282.538 184.608 288.043C186.943 291.75 188.148 295.874 188.883 300.149C189.41 303.044 189.787 305.976 189.655 308.946Z" fill="#F08E6C"/>
<path d="M189.73 309.456C189.711 309.304 189.693 309.172 189.693 309.021C189.768 309.172 189.824 309.304 189.73 309.456Z" fill="#F08E6C"/>
<path d="M148.81 303.743C148.753 303.819 148.678 303.913 148.621 303.989C148.621 303.876 148.659 303.762 148.81 303.743Z" fill="#F08E6C"/>
<path d="M116.13 119.4C132.77 119.4 146.26 114.34 146.26 108.099C146.26 101.857 132.77 96.7969 116.13 96.7969C99.4896 96.7969 86 101.857 86 108.099C86 114.34 99.4896 119.4 116.13 119.4Z" fill="#B5D8B8"/>
<path d="M102.637 67.5636C103.978 58.0403 111.739 43.8683 119.32 44.0009C126.901 44.1335 136.698 57.0107 136.011 67.5636C119.281 72.7894 102.637 67.5636 102.637 67.5636Z" fill="#F18E6C"/>
<path d="M119.32 74.3107C128.534 74.3107 136.003 71.2902 136.003 67.5641C136.003 63.838 128.534 60.8174 119.32 60.8174C110.106 60.8174 102.637 63.838 102.637 67.5641C102.637 71.2902 110.106 74.3107 119.32 74.3107Z" fill="#252B2D"/>
<path d="M116.637 108.098C107.839 107.841 115.428 79.2395 116.559 68.8192C116.617 68.1248 116.942 67.4798 117.465 67.0201C117.989 66.5604 118.671 66.3218 119.367 66.3545H119.429C119.963 66.4196 120.464 66.6443 120.868 66.9992C121.271 67.3541 121.558 67.8226 121.691 68.3434C123.633 75.3865 131.963 108.535 116.637 108.098Z" fill="#F18E6C"/>
<path d="M30.9904 116.087C48.1059 116.087 61.9807 110.464 61.9807 103.527C61.9807 96.5895 48.1059 90.9658 30.9904 90.9658C13.8749 90.9658 0 96.5895 0 103.527C0 110.464 13.8749 116.087 30.9904 116.087Z" fill="#B6D8B8"/>
<path d="M3.211 32.938C3.211 32.938 8.97194 0.935758 30.9903 0.0183244C53.0088 -0.899109 55.7071 32.938 55.7071 32.938H3.211Z" fill="#F18E6C"/>
<path d="M29.459 42.3615C43.9554 42.3615 55.7071 38.1423 55.7071 32.9376C55.7071 27.7329 43.9554 23.5137 29.459 23.5137C14.9626 23.5137 3.211 27.7329 3.211 32.9376C3.211 38.1423 14.9626 42.3615 29.459 42.3615Z" fill="#252B2D"/>
<path d="M30.9904 103.526C43.4432 103.357 33.8709 71.8204 33.2705 53.6067C33.0158 48.2116 33.0631 42.8065 33.4122 37.4167C33.4629 36.8554 33.3958 36.2896 33.2153 35.7557C33.0347 35.2218 32.7446 34.7315 32.3636 34.3161C31.9826 33.9008 31.519 33.5697 31.0026 33.3439C30.4862 33.1181 29.9283 33.0026 29.3647 33.0049H29.3242C28.3998 33.0037 27.5028 33.3189 26.7824 33.8981C26.062 34.4774 25.5616 35.2858 25.3644 36.1889C22.349 49.937 11.7918 103.782 30.9904 103.526Z" fill="#F18E6C"/>
</svg>
