<svg width="358" height="645" viewBox="0 0 358 645" fill="none" xmlns="http://www.w3.org/2000/svg">
<g clip-path="url(#clip0)">
<path d="M286.692 645C317.496 645 342.468 639.793 342.468 633.369C342.468 626.945 317.496 621.738 286.692 621.738C255.888 621.738 230.917 626.945 230.917 633.369C230.917 639.793 255.888 645 286.692 645Z" fill="#CAE3CC"/>
<path d="M117.248 625.967C127.386 625.967 135.605 624.074 135.605 621.738C135.605 619.402 127.386 617.508 117.248 617.508C107.11 617.508 98.8918 619.402 98.8918 621.738C98.8918 624.074 107.11 625.967 117.248 625.967Z" fill="#CAE3CC"/>
<path d="M287.596 81.0656C287.596 81.0656 284.539 109.967 292.418 116.854C300.297 123.741 288.719 143.338 288.719 143.338L266.698 147.025L248.214 131.115L258.099 122.127C259.711 120.902 261.022 119.325 261.931 117.517C262.84 115.709 263.324 113.717 263.344 111.694C263.507 104.645 263.344 97.4056 259.97 89.3836C256.595 81.3617 287.596 81.0656 287.596 81.0656Z" fill="#EFD9CA"/>
<path d="M265.088 95.4811C265.088 95.4811 239.672 102.862 230.373 100.296C221.075 97.7298 221.047 86.8177 220.404 76.2228C215.582 74.9398 211.403 70.4495 214.615 65.9521C217.827 61.4547 223.617 64.6692 225.205 59.8546C226.794 55.04 224.563 51.8326 225.205 41.8792C225.848 31.9257 238.062 23.5865 238.062 23.5865L302.684 68.4123C302.684 68.4123 299.062 82.7503 265.088 95.4811Z" fill="#EFD9CA"/>
<path d="M237.109 63.3299C239.1 62.8858 244.409 60.6018 248.73 60.8415C245.666 57.4509 239.1 54.7299 236.643 56.5415C235.104 57.6694 237.109 63.3299 237.109 63.3299Z" fill="white"/>
<path d="M237.052 63.3369C237.957 63.3369 238.69 61.7147 238.69 59.7136C238.69 57.7125 237.957 56.0903 237.052 56.0903C236.148 56.0903 235.414 57.7125 235.414 59.7136C235.414 61.7147 236.148 63.3369 237.052 63.3369Z" fill="#493A32"/>
<path d="M248.892 61.1234C248.447 60.7569 248.024 60.3692 247.579 60.0167C247.126 59.6714 246.655 59.3513 246.167 59.058C245.231 58.4501 244.223 57.96 243.166 57.5988C242.114 57.3056 241.046 57.0702 239.968 56.8939C238.902 56.6543 237.85 56.478 236.643 56.2948V56.1538C237.735 55.6109 238.958 55.3839 240.173 55.4982C241.381 55.622 242.553 55.9863 243.618 56.5697C244.684 57.0934 245.682 57.7443 246.591 58.5082C247.038 58.8886 247.465 59.2934 247.868 59.7207C248.271 60.1366 248.631 60.6018 248.998 61.0459L248.892 61.1234Z" fill="#493A32"/>
<path d="M237.151 71.1333C240.676 71.1333 243.533 66.2919 243.533 60.3198C243.533 54.3477 240.676 49.5064 237.151 49.5064C233.626 49.5064 230.769 54.3477 230.769 60.3198C230.769 66.2919 233.626 71.1333 237.151 71.1333Z" stroke="#252B2D" stroke-linecap="round" stroke-linejoin="round"/>
<path d="M259.948 7.04917C259.948 7.04917 273.553 -8.1982 302.705 6.13983C331.856 20.4779 315.773 75.0385 302.705 87.6636C294.127 94.9384 284.913 99.8587 285.76 82.5318C286.608 65.2049 280.818 64.5564 276.54 67.7285C272.261 70.9007 271.598 66.8685 273.758 46.863C275.918 26.8574 259.948 7.04917 259.948 7.04917Z" fill="#493A32"/>
<path d="M277.465 78.1895C274.337 75.6095 275.22 66.798 282.774 61.497C290.328 56.1961 299.168 55.5616 298.843 63.9079C298.518 72.2541 288.556 87.3393 277.465 78.1895Z" fill="#EFD9CA"/>
<path d="M223.299 48.6393C226.631 49.1821 235.838 24.7285 238.083 21.0348C240.328 17.341 259.97 7.07738 259.97 7.07738C259.97 7.07738 246.767 -2.89721 227.338 7.04918C207.908 16.9956 210.443 46.5246 223.299 48.6393Z" fill="#493A32"/>
<path d="M254.484 46.588C257.266 45.5307 254.639 31.1785 258.092 23.5866C261.544 15.9946 259.948 7.04919 259.948 7.04919C259.948 7.04919 239.869 5.49837 236.565 21.7608C233.261 38.0233 248.264 48.9425 254.484 46.588Z" fill="#493A32"/>
<path d="M259.948 7.04919C259.948 7.04919 249.768 21.5423 254.053 36.9518C258.339 52.3613 271.704 54.3562 274.196 52.3543C276.688 50.3523 281.913 32.243 275.911 17.9049C273.553 12.5617 266.267 7.75411 259.948 7.04919Z" fill="#493A32"/>
<path d="M290.484 539.819L292.842 588.607L308.487 587.324L309.991 528.907L290.484 539.819Z" fill="#EFD9CA"/>
<path d="M140.681 521.096L124.28 562.503L140.681 567.311L161.572 521.096H140.681Z" fill="#EFD9CA"/>
<path d="M292.093 224.869C292.093 224.869 323.278 278.795 328.418 317.953C333.558 357.112 314.884 420.632 319.07 538.748C301.42 549.018 276.985 543.887 276.985 543.887C276.985 543.887 258.339 356.435 254.484 324.34C232.597 378.901 172.826 517.565 164.467 540.045C147.106 536.182 122.677 518.82 122.677 518.82C122.677 518.82 208.783 272.705 242.87 193.747C278.877 217.503 292.093 224.869 292.093 224.869Z" fill="#E63E1A"/>
<path d="M280.684 226.984C280.508 226.984 281.228 228.33 282.562 230.734" stroke="#F18E6C" stroke-width="2" stroke-linecap="round" stroke-linejoin="round"/>
<path d="M286.579 237.987C295.475 254.384 311.445 286.493 313.493 316.438C316.197 356.068 307.138 420.893 303.926 461.193" stroke="#F18E6C" stroke-width="2" stroke-linecap="round" stroke-linejoin="round" stroke-dasharray="11.8 11.8"/>
<path d="M303.587 465.338C303.479 466.78 303.385 468.19 303.305 469.567" stroke="#F18E6C" stroke-width="2" stroke-linecap="round" stroke-linejoin="round"/>
<path d="M258.649 259.537C258.649 259.537 236.057 275.383 221.089 281.178C206.122 286.972 191.578 280.212 191.578 280.212L250.636 257.507L258.649 259.537Z" fill="#EFD9CA"/>
<path d="M206.093 250.246C206.093 250.246 228.347 246.869 252.535 267.636C223.991 274.883 204.639 278.746 195.934 303.862C185.287 295.657 167.39 287.924 141.747 285.534C153.841 273.445 206.093 250.246 206.093 250.246Z" fill="#EFEFEF"/>
<path d="M324.238 200.444L332.598 223.551C332.598 223.551 281.807 239.602 260.584 249.231C241.295 244.734 225.544 249.548 216.86 249.231C208.176 248.914 211.438 259.339 229.724 257.577C240.434 256.541 245.256 262.335 245.256 262.335L261.855 258.86C261.855 258.86 317.15 248.589 332.576 245.699C348.003 242.809 354.759 240.243 357.654 235.746C360.549 231.248 343.188 180.544 343.188 180.544L324.238 200.444Z" fill="#EFD9CA"/>
<path d="M335.817 144.106C335.817 144.106 350.926 182.172 352.853 194.663C339.672 205.9 315.533 218.419 289.509 209.748C263.485 201.078 335.817 144.106 335.817 144.106Z" fill="#589D83"/>
<path d="M168.646 142.668C168.646 142.668 122.049 157.112 117.531 157.112C102.422 151.656 39.4169 139.778 39.4169 139.778C39.4169 139.778 31.0647 128.866 30.4152 124.369C29.7657 119.871 30.7329 110.27 28.4878 109.608C26.2426 108.945 19.4861 113.492 19.4861 124.369C19.4861 135.246 20.771 151.973 20.771 151.973C20.771 151.973 29.7727 151.332 33.6276 150.69C51.278 156.471 109.171 177.816 118.816 178.372C128.46 178.929 191.472 163.21 191.472 163.21C191.472 163.21 188.259 143.31 168.646 142.668Z" fill="#EFD9CA"/>
<path d="M225.551 124.369L164.502 139.454C164.502 139.454 171.894 186.641 234.263 193.38C229.081 134.639 225.551 124.369 225.551 124.369Z" fill="#589D83"/>
<path d="M259.235 121.161C259.235 121.161 258.176 133.356 267.001 135.922C275.827 138.488 292.249 132.398 294.331 119.554C321.654 128.542 335.803 144.106 335.803 144.106C335.803 144.106 295.63 202.685 292.093 224.869C265.088 230.966 248.37 227.759 232.301 219.737C226.836 196.623 225.551 124.404 225.551 124.404C225.551 124.404 252.097 121.161 259.235 121.161Z" fill="#CAE3CC"/>
<path d="M39.4169 139.778C39.4169 139.778 43.653 148.237 45.2345 154.645C49.167 159.579 55.7824 158.332 55.7824 158.332L49.7742 141.773C48.472 140.403 46.7733 139.474 44.9161 139.117C43.0588 138.759 41.1359 138.99 39.4169 139.778Z" fill="#589D83"/>
<path d="M63.7886 144.558C63.7886 144.558 69.2108 157.74 71.7243 163.901C78.0784 168.56 81.7215 167.341 81.7215 167.341L74.6189 146.771C71.4342 144.656 67.5497 143.862 63.7886 144.558Z" fill="#589D83"/>
<path d="M33.6276 150.69L63.7886 144.558C63.7886 144.558 70.6017 143.923 74.6189 146.771C45.2345 154.645 43.6389 154.095 43.6389 154.095C43.6389 154.095 36.6282 154.222 33.6276 150.69Z" fill="#589D83"/>
<path d="M292.799 581.057C292.799 581.057 276.13 611.044 284.73 612.489C293.329 613.934 292.799 581.057 292.799 581.057Z" stroke="#E63E1A" stroke-width="2" stroke-linecap="round" stroke-linejoin="round"/>
<path d="M292.482 581.099H308.649C308.649 581.099 308.169 592.378 314.298 599.73C320.426 607.082 323.942 620.596 322.014 631.832C283.438 633.115 249.358 631.832 249.358 631.832C249.358 631.832 246.336 613.765 259.242 606.751C267.009 602.945 277.556 607.667 282.456 604.869C293.061 598.814 292.482 581.099 292.482 581.099Z" fill="#252B2D"/>
<path d="M129.123 550.16C129.123 550.16 102.711 559.437 106.128 568.164C109.546 576.891 129.123 550.16 129.123 550.16Z" stroke="#E63E1A" stroke-width="2" stroke-linecap="round" stroke-linejoin="round"/>
<path d="M129.378 549.646C129.378 549.646 123.108 562.285 114.961 561.432C106.813 560.579 102.104 546.664 89.6641 544.197C77.2241 541.729 63.5415 554.573 63.5415 554.573L126.123 611.495C126.123 611.495 140.243 603.325 140.243 581.092C139.813 572.549 144.543 558.746 144.543 558.746L129.378 549.646Z" fill="#252B2D"/>
<path d="M12.0941 105.836L15.483 90.8639L19.832 105.836C19.832 105.836 15.483 108.734 12.0941 105.836Z" fill="#EDD7C8" stroke="#EDD7C8" stroke-width="2" stroke-linecap="round" stroke-linejoin="round"/>
<path d="M12.08 106.041C13.2416 106.814 14.6185 107.2 16.0135 107.145C17.4085 107.089 18.75 106.594 19.8461 105.731L22.1054 161.849C22.1054 161.849 17.7846 166.036 14.3392 162.159L12.08 106.041Z" fill="#E63E1A" stroke="#E63E1A" stroke-width="2" stroke-linecap="round" stroke-linejoin="round"/>
<path d="M1.75275e-06 128.295C-0.197683 125.292 1.41204 123.241 8.96642 123.241C16.5208 123.241 27.5841 123.043 27.4146 128.295C27.2452 133.547 9.0582 132.377 6.94015 132.088C4.8221 131.799 0.268288 132.172 1.75275e-06 128.295Z" fill="#EFD9CA"/>
<path d="M1.96274 136.211C1.96274 132.905 4.32083 131.601 11.268 131.439C18.2152 131.277 29.2856 131.834 29.2856 136.698C29.2856 141.562 1.96274 143.014 1.96274 136.211Z" fill="#EFD9CA"/>
<path d="M4.2361 143.303C4.33494 140.095 7.11665 139.221 15.6171 139.51C24.1175 139.799 27.1675 142.231 26.9981 144.445C26.8286 146.658 21.1593 147.264 14.2898 146.679C7.42023 146.094 4.15843 146.024 4.2361 143.303Z" fill="#EFD9CA"/>
<path d="M7.6744 149.083C7.80148 146.264 10.8021 146.609 15.1158 146.56C19.4296 146.51 24.6329 146.299 24.8024 148.674C24.9718 151.05 21.8089 152.453 15.6242 152.305C9.43944 152.157 7.52614 152.128 7.6744 149.083Z" fill="#EFD9CA"/>
<path d="M225.805 84.9638C229.043 85.7765 232.432 85.7791 235.671 84.9712C238.91 84.1634 241.899 82.57 244.374 80.3325C241.274 84.9638 229.674 91.1388 225.805 84.9638Z" fill="#EAB3A1" stroke="#EAB3A1" stroke-width="2" stroke-linecap="round" stroke-linejoin="round"/>
<path d="M225.65 58.184C226.583 58.0762 227.528 58.1807 228.414 58.4896C229.301 58.7985 230.106 59.3037 230.769 59.9674" stroke="#252B2D" stroke-linecap="round" stroke-linejoin="round"/>
<path d="M243.534 59.1638H272.692" stroke="#252B2D" stroke-miterlimit="10" stroke-linecap="round"/>
<path d="M235.81 45.8972C234.398 47.4974 249.93 51.1136 249.93 51.1136C249.93 51.1136 238.267 43.0846 235.81 45.8972Z" fill="#493A32"/>
<path d="M248.906 72.5079C251.71 72.5079 253.983 71.1035 253.983 69.371C253.983 67.6386 251.71 66.2341 248.906 66.2341C246.103 66.2341 243.83 67.6386 243.83 69.371C243.83 71.1035 246.103 72.5079 248.906 72.5079Z" fill="#EAB3A1"/>
<path d="M283.056 69.5966C284.977 70.1816 288.747 62.5474 292.813 62.6179C288.683 61.9623 279.696 68.5744 283.056 69.5966Z" fill="#EAB3A1" stroke="#EAB3A1" stroke-width="2" stroke-linecap="round" stroke-linejoin="round"/>
<path d="M14.3745 95.7631C14.7264 96.0644 15.1747 96.23 15.6383 96.23C16.1019 96.23 16.5501 96.0644 16.9021 95.7631C15.9913 92.7249 15.49 90.8639 15.49 90.8639L14.3745 95.7631Z" fill="#E63E1A" stroke="#E63E1A" stroke-width="2" stroke-linecap="round" stroke-linejoin="round"/>
<path d="M219.585 133.448L337.681 153.658L327.034 167.665L219.105 148.428L219.585 133.448Z" fill="#589D83"/>
<path d="M213.782 158.571L331.877 178.774L321.231 192.781L213.302 173.544L213.782 158.571Z" fill="#589D83"/>
<path d="M228.22 186.084L302.705 198.829L295.207 213.583L229.152 201.437L228.22 186.084Z" fill="#589D83"/>
<path d="M292.686 581.141C292.686 581.141 292.686 615.436 300.911 612.539C309.137 609.641 292.686 581.141 292.686 581.141Z" stroke="#E63E1A" stroke-width="2" stroke-linecap="round" stroke-linejoin="round"/>
<path d="M129.201 550.224C129.201 550.224 109.849 574.896 117.587 579.689C125.325 584.483 129.201 550.224 129.201 550.224Z" stroke="#E63E1A" stroke-width="2" stroke-linecap="round" stroke-linejoin="round"/>
</g>
<defs>
<clipPath id="clip0">
<rect width="358" height="645" fill="white"/>
</clipPath>
</defs>
</svg>
