<svg width="931" height="254" viewBox="0 0 931 254" fill="none" xmlns="http://www.w3.org/2000/svg">
<path d="M342.39 134.36C340.137 132.973 338.447 131.5 337.32 129.94C336.193 128.467 335.63 127.037 335.63 125.65C335.63 123.83 336.54 122.357 338.36 121.23C338.707 121.057 339.183 120.97 339.79 120.97C340.657 120.97 341.567 121.143 342.52 121.49C343.56 121.75 344.34 122.14 344.86 122.66C347.113 124.74 349.8 125.78 352.92 125.78C354.307 125.78 356.3 125.477 358.9 124.87C362.28 123.83 364.923 122.53 366.83 120.97C368.823 119.41 371.163 116.983 373.85 113.69C375.497 111.523 376.71 109.357 377.49 107.19C378.357 104.937 378.79 102.9 378.79 101.08C378.79 99.0867 378.313 97.5267 377.36 96.4C375.627 94.06 373.677 92.3267 371.51 91.2C369.43 89.9867 366.96 89.38 364.1 89.38C361.587 89.38 359.117 89.7267 356.69 90.42L349.15 91.98C348.803 92.0667 348.327 92.1533 347.72 92.24C347.2 92.24 346.42 93.4967 345.38 96.01C344.34 98.5233 342.563 103.29 340.05 110.31C338.23 115.423 336.713 119.107 335.5 121.36C334.287 123.527 333.203 124.61 332.25 124.61C331.21 124.61 330.083 123.657 328.87 121.75C328.61 121.317 328.047 120.45 327.18 119.15C326.4 117.85 326.01 116.593 326.01 115.38C326.01 114.773 326.227 114.037 326.66 113.17C327.093 112.39 327.44 111.61 327.7 110.83C328.047 110.05 328.393 108.967 328.74 107.58C329.867 104.2 333.117 95.7933 338.49 82.36C343.95 68.9267 348.197 58.7867 351.23 51.94C353.397 47 354.047 44.4 353.18 44.14C353.18 43.88 353.05 43.49 352.79 42.97C352.53 42.45 352.443 42.06 352.53 41.8C352.53 41.28 354.047 40.5 357.08 39.46C360.2 38.42 362.323 37.9867 363.45 38.16H364.23C365.357 38.16 365.92 37.9433 365.92 37.51C366.093 37.51 366.873 37.4233 368.26 37.25C369.733 37.0767 371.293 37.0767 372.94 37.25C379.093 37.77 383.947 39.5467 387.5 42.58C391.053 45.5267 392.787 49.9033 392.7 55.71C392.527 57.9633 391.27 61.04 388.93 64.94C386.59 68.84 384.033 72.0467 381.26 74.56C379.873 75.7733 378.27 77.0733 376.45 78.46C374.717 79.76 373.59 80.5833 373.07 80.93L376.32 82.1C380.393 83.66 383.557 85.5667 385.81 87.82C388.063 90.0733 389.667 93.15 390.62 97.05C390.793 97.9167 390.88 98.6967 390.88 99.39C390.88 101.297 390.533 103.463 389.84 105.89C389.233 108.317 388.54 110.44 387.76 112.26C387.24 112.78 386.807 113.343 386.46 113.95C386.113 114.557 385.897 114.947 385.81 115.12C385.723 115.467 384.943 116.81 383.47 119.15C381.997 121.403 380.697 123.223 379.57 124.61C373.85 129.463 369.127 132.583 365.4 133.97C361.76 135.617 357.427 136.44 352.4 136.44C347.893 136.44 344.557 135.747 342.39 134.36ZM351.75 80.41C352.617 80.2367 354.35 79.89 356.95 79.37C359.55 78.7633 361.413 78.2433 362.54 77.81C362.713 77.7233 363.233 77.4633 364.1 77.03C365.053 76.51 366.007 75.7733 366.96 74.82C372.42 69.7067 376.233 65.1133 378.4 61.04C380.567 57.4867 381.65 54.9733 381.65 53.5C381.65 52.46 381.173 51.4633 380.22 50.51C378.573 48.6033 375.843 47.65 372.03 47.65C370.383 47.65 368.997 47.8233 367.87 48.17C366.657 48.5167 365.747 48.95 365.14 49.47C364.62 49.9033 364.36 50.5967 364.36 51.55C364.36 52.2433 364.143 53.0233 363.71 53.89C363.277 54.67 362.8 55.32 362.28 55.84C362.193 56.36 361.933 56.88 361.5 57.4C361.153 57.92 360.893 58.2667 360.72 58.44C360.72 58.6133 360.113 59.7833 358.9 61.95C357.773 64.1167 356.69 66.5433 355.65 69.23C353.05 75.3833 351.75 79.11 351.75 80.41ZM412.746 70.66C411.88 70.0533 411.186 69.2733 410.666 68.32C410.146 67.3667 409.843 66.4567 409.756 65.59C409.67 64.7233 409.756 64.2033 410.016 64.03C410.536 63.4233 411.056 62.6 411.576 61.56C412.096 60.52 412.486 59.7833 412.746 59.35C413.44 57.79 414.003 56.6633 414.436 55.97C415.043 54.7567 415.606 54.1067 416.126 54.02C416.82 53.6733 417.383 53.5 417.816 53.5C418.943 53.5 420.156 53.89 421.456 54.67C422.843 55.45 423.883 56.36 424.576 57.4C425.183 58.7867 425.486 60 425.486 61.04C425.486 63.12 424.49 65.4167 422.496 67.93C421.63 69.0567 420.59 69.9233 419.376 70.53C418.163 71.1367 416.95 71.44 415.736 71.44C414.523 71.44 413.526 71.18 412.746 70.66ZM398.706 122.79C397.493 121.577 396.886 119.41 396.886 116.29C396.886 114.643 397.103 113.387 397.536 112.52C397.536 112.087 397.623 111.567 397.796 110.96C397.97 110.353 398.056 109.963 398.056 109.79C397.97 109.27 398.316 107.84 399.096 105.5C400.136 103.16 401.436 99.5633 402.996 94.71C404.643 89.8567 405.77 86.39 406.376 84.31C406.376 83.8767 406.55 83.53 406.896 83.27C407.243 82.9233 407.763 82.7067 408.456 82.62C409.41 82.2733 410.623 82.7067 412.096 83.92C413.57 85.0467 414.783 86.3467 415.736 87.82C416.256 88.34 416.516 89.0333 416.516 89.9C416.516 91.2 415.953 93.02 414.826 95.36C414.393 96.3133 413.96 97.4833 413.526 98.87C413.18 100.257 412.876 101.557 412.616 102.77C411.576 105.11 410.753 107.277 410.146 109.27C409.886 110.397 409.713 111.263 409.626 111.87C409.02 115.077 408.456 117.157 407.936 118.11C407.416 120.277 406.68 121.923 405.726 123.05C404.773 124.09 403.69 124.61 402.476 124.61C401.003 124.61 399.746 124.003 398.706 122.79ZM436.964 127.34C427.084 127.34 422.144 121.707 422.144 110.44C422.144 106.367 423.141 101.773 425.134 96.66C427.214 91.46 429.771 86.8233 432.804 82.75C435.924 78.59 439.001 75.8167 442.034 74.43C443.681 73.5633 445.587 73.13 447.754 73.13C451.654 73.13 455.034 73.9967 457.894 75.73C460.841 77.3767 462.314 80.54 462.314 85.22C462.314 87.9067 461.404 90.8533 459.584 94.06C457.764 97.2667 455.467 99.9967 452.694 102.25C450.007 104.417 447.364 105.5 444.764 105.5C440.864 105.5 437.571 104.243 434.884 101.73C433.411 104.677 432.674 107.493 432.674 110.18C432.674 112.347 432.934 114.037 433.454 115.25C433.974 116.377 435.187 116.94 437.094 116.94C438.914 116.94 440.387 116.68 441.514 116.16C442.641 115.64 443.681 115.033 444.634 114.34C445.587 113.647 446.324 113.127 446.844 112.78L447.364 112.52H447.234C448.794 111.653 449.921 111.003 450.614 110.57C451.394 110.05 452.044 109.703 452.564 109.53C453.864 109.53 455.077 109.92 456.204 110.7C457.331 111.48 457.894 112.433 457.894 113.56C457.894 114.427 457.114 115.857 455.554 117.85C453.994 119.757 452.391 121.1 450.744 121.88L449.184 122.66H449.314C448.534 123.7 447.754 124.22 446.974 124.22H445.934C445.587 124.913 444.417 125.607 442.424 126.3C440.517 126.993 438.697 127.34 436.964 127.34ZM443.724 96.01C446.151 96.01 448.144 94.97 449.704 92.89C451.351 90.81 452.174 88.73 452.174 86.65C452.174 85.6967 451.914 84.83 451.394 84.05C450.961 83.27 450.354 82.88 449.574 82.88C448.101 82.88 446.454 83.5733 444.634 84.96C442.814 86.3467 441.211 88.1667 439.824 90.42L438.134 93.15C438.481 92.9767 438.741 92.89 438.914 92.89C439.607 92.89 440.127 93.1933 440.474 93.8C440.821 94.4067 441.211 94.9267 441.644 95.36C442.077 95.7933 442.771 96.01 443.724 96.01ZM511.712 121.88C506.252 121.707 503.522 118.63 503.522 112.65C503.522 111.003 503.652 109.4 503.912 107.84C504.085 105.933 504.172 104.59 504.172 103.81V103.16V101.73C503.912 99.9967 503.349 99.13 502.482 99.13C500.922 99.13 498.019 100.647 493.772 103.68C489.612 106.627 485.235 110.18 480.642 114.34C479.255 115.813 478.085 117.2 477.132 118.5C476.265 119.627 475.615 120.32 475.182 120.58C474.749 120.84 474.055 120.97 473.102 120.97C471.889 120.797 470.502 119.887 468.942 118.24C467.382 116.593 466.342 115.12 465.822 113.82C465.822 111.393 466.255 109.097 467.122 106.93C467.989 104.677 469.289 101.86 471.022 98.48C471.802 95.88 472.799 93.28 474.012 90.68C475.312 87.6467 476.222 85.35 476.742 83.79C477.349 82.1433 477.739 80.4533 477.912 78.72C477.912 78.6333 477.869 78.59 477.782 78.59C477.782 78.2433 477.912 77.94 478.172 77.68C478.432 77.42 478.735 77.29 479.082 77.29C479.255 77.03 479.775 76.9 480.642 76.9C482.895 76.9 484.845 77.5067 486.492 78.72C488.139 79.9333 488.962 81.7967 488.962 84.31C488.962 85.61 488.702 86.8667 488.182 88.08C487.749 89.2067 486.882 91.1133 485.582 93.8L484.152 96.66C483.892 97.18 483.502 97.96 482.982 99C482.462 99.9533 482.202 100.56 482.202 100.82C484.369 99.3467 486.925 97.3967 489.872 94.97C494.205 91.5033 497.759 88.8167 500.532 86.91C503.305 85.0033 505.342 84.05 506.642 84.05C507.769 84.05 509.329 84.7 511.322 86C513.402 87.2133 514.615 88.34 514.962 89.38C514.962 89.9867 514.875 90.8967 514.702 92.11C514.615 93.3233 514.529 94.4067 514.442 95.36L514.572 99.39C514.659 100.083 514.702 101.123 514.702 102.51C514.702 105.283 514.529 107.233 514.182 108.36C514.269 108.447 514.355 108.577 514.442 108.75C514.529 108.923 514.572 109.053 514.572 109.14L514.442 109.4C514.529 110.267 515.005 111.653 515.872 113.56C516.739 115.467 517.172 116.507 517.172 116.68C517.172 117.633 516.522 118.717 515.222 119.93C514.009 121.057 512.839 121.707 511.712 121.88ZM542.52 121.62C541.567 122.313 540.527 122.66 539.4 122.66C538.1 122.66 536.973 122.183 536.02 121.23C534.287 119.497 532.813 116.247 531.6 111.48C530.473 106.713 529.91 100.56 529.91 93.02C530.343 88.34 530.56 83.3567 530.56 78.07C531.253 77.6367 532.163 77.42 533.29 77.42C534.85 77.42 536.41 77.7667 537.97 78.46C538.837 78.8933 539.443 79.5867 539.79 80.54C540.223 81.4067 540.483 82.88 540.57 84.96C540.743 87.04 540.83 90.42 540.83 95.1L540.57 98.22L540.31 104.72C540.31 106.107 540.397 106.887 540.57 107.06C540.657 107.233 540.743 107.45 540.83 107.71C540.917 107.883 541.003 107.97 541.09 107.97C541.177 107.97 541.827 107.363 543.04 106.15L545.25 102.38C546.29 100.473 547.027 99.2167 547.46 98.61C547.893 98.1767 548.673 97.1367 549.8 95.49L551.88 92.89C552.14 92.4567 552.573 91.85 553.18 91.07C553.873 90.2033 554.307 89.5533 554.48 89.12C555.433 87.56 556.43 86.2167 557.47 85.09C558.51 83.9633 559.203 83.4 559.55 83.4C559.637 83.4867 559.81 83.53 560.07 83.53C560.417 83.53 560.98 83.4 561.76 83.14C562.54 82.88 563.103 82.7067 563.45 82.62C563.797 82.2733 564.143 82.1 564.49 82.1C565.01 82.1 565.487 82.2733 565.92 82.62C566.787 83.3133 567.22 83.92 567.22 84.44C567.22 85.22 566.7 87.17 565.66 90.29C564.62 93.41 563.797 95.1 563.19 95.36L561.89 96.66C561.63 97.7867 559.94 100.56 556.82 104.98C553.7 109.4 550.84 113.257 548.24 116.55C547.373 117.677 546.377 118.717 545.25 119.67C544.21 120.623 543.3 121.273 542.52 121.62ZM578.667 123.83C575.807 122.703 573.684 120.97 572.297 118.63C570.997 116.203 570.347 113.083 570.347 109.27C570.347 108.403 570.434 106.843 570.607 104.59C570.694 103.897 570.737 103.073 570.737 102.12C570.737 100.647 570.564 99.5633 570.217 98.87C569.87 98.09 569.264 97.31 568.397 96.53C568.137 96.27 567.53 95.7067 566.577 94.84C565.624 93.9733 565.19 93.3233 565.277 92.89V92.5C565.277 91.8933 565.407 91.2433 565.667 90.55C566.014 89.77 566.317 89.2933 566.577 89.12C566.837 89.0333 567.357 88.7733 568.137 88.34C568.917 87.9067 569.524 87.7767 569.957 87.95C570.304 87.95 570.824 88.1667 571.517 88.6C572.297 89.0333 572.687 89.4233 572.687 89.77C573.207 90.81 574.55 89.12 576.717 84.7C577.93 82.88 579.577 81.1033 581.657 79.37C583.737 77.55 585.644 76.1633 587.377 75.21C587.984 74.95 589.327 74.6033 591.407 74.17C593.574 73.65 595.264 73.39 596.477 73.39C597.864 73.39 599.467 73.9533 601.287 75.08C603.194 76.2067 604.754 77.42 605.967 78.72C607.787 80.02 608.697 82.49 608.697 86.13C608.697 88.2967 608.35 90.16 607.657 91.72C607.31 93.02 605.577 95.0133 602.457 97.7C599.424 100.3 596.954 101.99 595.047 102.77C593.14 103.203 591.017 103.42 588.677 103.42C586.337 103.42 584.734 103.203 583.867 102.77C583.26 102.423 582.74 102.597 582.307 103.29C581.96 103.897 581.657 105.327 581.397 107.58L581.267 108.88C581.267 109.833 581.484 110.743 581.917 111.61C582.524 112.65 583.087 113.387 583.607 113.82C584.127 114.253 584.907 114.47 585.947 114.47L587.117 114.34C588.07 114.253 589.067 113.777 590.107 112.91C591.234 112.043 592.534 110.873 594.007 109.4C595.567 107.927 596.477 107.06 596.737 106.8C597.17 105.933 598.34 105.5 600.247 105.5C601.027 105.5 602.024 105.63 603.237 105.89C604.104 106.583 604.537 107.45 604.537 108.49C604.537 109.963 603.844 111.957 602.457 114.47C602.024 115.337 600.68 116.81 598.427 118.89C596.26 120.97 594.527 122.4 593.227 123.18C590.887 124.48 588.287 125.13 585.427 125.13C583.26 125.13 581.007 124.697 578.667 123.83ZM588.287 94.58C590.367 94.06 591.97 93.4533 593.097 92.76C594.31 91.98 595.697 90.5067 597.257 88.34C597.95 86.26 598.08 85.0033 597.647 84.57C597.127 84.05 596.52 83.79 595.827 83.79C594.96 83.79 593.92 84.2667 592.707 85.22C591.84 85.48 590.627 86.3033 589.067 87.69C587.594 88.99 586.337 90.29 585.297 91.59C584.257 92.8033 583.954 93.54 584.387 93.8C584.214 94.06 584.647 94.2767 585.687 94.45C586.727 94.5367 587.594 94.58 588.287 94.58ZM653.935 121.1C652.635 121.1 651.335 120.753 650.035 120.06C648.735 119.367 647.695 118.327 646.915 116.94L646.265 115.64C645.225 112.693 644.705 109.833 644.705 107.06V101.34C644.705 100.387 644.618 99.91 644.445 99.91C643.752 99.91 640.762 102.727 635.475 108.36C631.748 112.26 628.498 115.293 625.725 117.46C623.038 119.54 621.175 120.58 620.135 120.58C619.788 120.58 618.965 120.277 617.665 119.67C616.365 118.977 615.542 118.457 615.195 118.11C614.588 117.503 614.198 116.767 614.025 115.9C613.852 115.033 613.765 113.387 613.765 110.96C613.765 108.187 614.328 105.067 615.455 101.6C616.582 98.0467 618.488 93.3233 621.175 87.43C621.868 86.2167 622.562 84.7433 623.255 83.01C625.248 78.5033 627.112 75.3833 628.845 73.65C629.538 73.65 630.015 73.6933 630.275 73.78C631.402 73.8667 632.702 74.3867 634.175 75.34C635.735 76.2933 636.688 77.55 637.035 79.11C637.035 80.5833 636.818 82.0567 636.385 83.53C635.952 85.0033 634.955 86.8233 633.395 88.99C632.442 90.29 631.185 93.1067 629.625 97.44C629.192 98.1333 628.585 99.2167 627.805 100.69C627.112 102.077 626.765 102.857 626.765 103.03C626.852 103.117 627.112 102.943 627.545 102.51C627.978 101.99 628.412 101.513 628.845 101.08L632.355 97.57C639.202 90.7233 644.488 87.2133 648.215 87.04C650.122 87.04 651.812 88.0367 653.285 90.03C654.758 92.0233 655.495 94.4067 655.495 97.18C655.495 97.7 655.408 99.1733 655.235 101.6V109.01C657.228 108.49 658.745 108.013 659.785 107.58C661.952 106.8 664.205 106.323 666.545 106.15C666.372 107.623 665.548 109.573 664.075 112C662.688 114.427 661.042 116.55 659.135 118.37C657.228 120.19 655.495 121.1 653.935 121.1ZM703.723 124.74C702.943 123.96 702.293 122.963 701.773 121.75C701.34 120.45 700.776 118.5 700.083 115.9C699.91 115.38 699.823 114.643 699.823 113.69C699.823 112.65 699.823 111.913 699.823 111.48C699.476 112.26 699.043 113.127 698.523 114.08C698.003 114.947 697.483 115.553 696.963 115.9C694.97 117.893 692.976 119.367 690.983 120.32C688.21 122.053 685.826 122.92 683.833 122.92C681.406 122.92 679.326 121.793 677.593 119.54C674.82 117.287 673.433 114.6 673.433 111.48C673.433 111.047 673.52 110.223 673.693 109.01C673.866 105.803 674.3 102.727 674.993 99.78C675.773 96.8333 677.203 93.0633 679.283 88.47L683.183 80.67L685.263 76.64C685.696 76.4667 686.39 76.38 687.343 76.38C688.73 76.38 690.03 76.64 691.243 77.16C692.456 77.68 693.106 78.3733 693.193 79.24C693.453 79.5867 693.583 80.2367 693.583 81.19C693.583 83.9633 692.413 87.6467 690.073 92.24L689.033 94.71C687.473 98.4367 686.346 101.34 685.653 103.42C684.96 105.5 684.613 107.233 684.613 108.62C684.613 110.007 685.133 110.917 686.173 111.35C686.606 111.61 687.126 111.74 687.733 111.74C689.466 111.74 691.546 110.397 693.973 107.71C696.486 105.023 699.043 100.517 701.643 94.19C702.856 91.2433 703.593 88.21 703.853 85.09C703.68 84.1367 703.94 83.0967 704.633 81.97C705.326 80.8433 706.236 79.9333 707.363 79.24C707.71 78.72 708.186 78.33 708.793 78.07C709.4 77.7233 709.79 77.7233 709.963 78.07L712.043 77.94C712.303 77.8533 712.693 78.2433 713.213 79.11C713.82 79.9767 714.253 80.4967 714.513 80.67C715.38 81.3633 715.813 82.75 715.813 84.83C715.813 87.69 714.773 91.6333 712.693 96.66C711.046 100.127 709.92 102.813 709.313 104.72C708.793 106.54 708.49 108.317 708.403 110.05C708.403 111.87 708.533 113.3 708.793 114.34C709.14 115.293 709.92 116.29 711.133 117.33C712.52 118.283 713.083 120.537 712.823 124.09C712.65 124.697 712.173 125.173 711.393 125.52C710.613 125.867 709.66 126.04 708.533 126.04C706.626 126.04 705.023 125.607 703.723 124.74ZM734.288 127.34C724.408 127.34 719.468 121.707 719.468 110.44C719.468 106.367 720.465 101.773 722.458 96.66C724.538 91.46 727.095 86.8233 730.128 82.75C733.248 78.59 736.325 75.8167 739.358 74.43C741.005 73.5633 742.912 73.13 745.078 73.13C748.978 73.13 752.358 73.9967 755.218 75.73C758.165 77.3767 759.638 80.54 759.638 85.22C759.638 87.9067 758.728 90.8533 756.908 94.06C755.088 97.2667 752.792 99.9967 750.018 102.25C747.332 104.417 744.688 105.5 742.088 105.5C738.188 105.5 734.895 104.243 732.208 101.73C730.735 104.677 729.998 107.493 729.998 110.18C729.998 112.347 730.258 114.037 730.778 115.25C731.298 116.377 732.512 116.94 734.418 116.94C736.238 116.94 737.712 116.68 738.838 116.16C739.965 115.64 741.005 115.033 741.958 114.34C742.912 113.647 743.648 113.127 744.168 112.78L744.688 112.52H744.558C746.118 111.653 747.245 111.003 747.938 110.57C748.718 110.05 749.368 109.703 749.888 109.53C751.188 109.53 752.402 109.92 753.528 110.7C754.655 111.48 755.218 112.433 755.218 113.56C755.218 114.427 754.438 115.857 752.878 117.85C751.318 119.757 749.715 121.1 748.068 121.88L746.508 122.66H746.638C745.858 123.7 745.078 124.22 744.298 124.22H743.258C742.912 124.913 741.742 125.607 739.748 126.3C737.842 126.993 736.022 127.34 734.288 127.34ZM741.048 96.01C743.475 96.01 745.468 94.97 747.028 92.89C748.675 90.81 749.498 88.73 749.498 86.65C749.498 85.6967 749.238 84.83 748.718 84.05C748.285 83.27 747.678 82.88 746.898 82.88C745.425 82.88 743.778 83.5733 741.958 84.96C740.138 86.3467 738.535 88.1667 737.148 90.42L735.458 93.15C735.805 92.9767 736.065 92.89 736.238 92.89C736.932 92.89 737.452 93.1933 737.798 93.8C738.145 94.4067 738.535 94.9267 738.968 95.36C739.402 95.7933 740.095 96.01 741.048 96.01ZM808.931 104.07C808.671 104.157 808.281 104.2 807.761 104.2C806.114 104.2 804.771 103.55 803.731 102.25C802.777 100.863 802.301 98.7833 802.301 96.01C802.301 93.8433 802.691 91.1567 803.471 87.95C804.684 85.5233 805.291 83.7033 805.291 82.49C805.724 81.0167 806.417 79.1533 807.371 76.9C808.324 74.56 809.104 72.7833 809.711 71.57C810.057 71.57 810.404 71.2667 810.751 70.66C811.184 70.0533 811.401 69.4467 811.401 68.84C811.401 68.06 811.531 67.28 811.791 66.5C812.137 65.6333 812.484 65.0267 812.831 64.68C812.831 64.42 813.004 63.9867 813.351 63.38C813.697 62.6867 813.871 62.21 813.871 61.95C813.871 61.7767 813.957 61.5167 814.131 61.17C814.391 60.7367 814.521 60.39 814.521 60.13C816.081 57.53 818.334 52.6333 821.281 45.44C824.227 38.2467 825.744 34.0867 825.831 32.96C826.177 30.9667 826.957 30.1 828.171 30.36C828.604 30.0133 829.644 29.84 831.291 29.84C831.551 29.9267 832.027 30.1433 832.721 30.49C833.414 30.8367 834.021 31.3133 834.541 31.92C835.147 32.5267 835.494 33.2633 835.581 34.13C835.754 34.9967 835.841 36.1233 835.841 37.51C835.754 38.81 835.364 40.24 834.671 41.8C833.977 43.2733 833.154 44.8333 832.201 46.48C831.247 48.1267 830.597 49.2967 830.251 49.99L828.561 53.11C827.174 55.5367 826.481 56.9667 826.481 57.4C826.481 57.7467 826.264 58.3967 825.831 59.35C825.397 60.2167 825.051 60.9533 824.791 61.56C824.097 62.6867 823.361 64.2467 822.581 66.24C821.887 68.2333 821.541 69.4467 821.541 69.88C821.454 70.0533 821.324 70.3567 821.151 70.79C821.064 71.2233 820.847 71.6133 820.501 71.96C820.241 71.96 820.067 72.1767 819.981 72.61C819.894 72.9567 819.851 73.2167 819.851 73.39C819.851 73.8233 819.634 74.69 819.201 75.99C818.767 77.29 818.161 78.72 817.381 80.28C814.434 88.6867 812.831 94.6667 812.571 98.22C812.397 100.04 811.964 101.34 811.271 102.12C810.664 102.9 809.884 103.55 808.931 104.07ZM802.041 124.22C800.394 124.913 799.007 125.26 797.881 125.26C796.581 125.26 795.107 124.653 793.461 123.44C792.161 122.14 791.511 120.84 791.511 119.54C791.511 117.373 793.114 115.207 796.321 113.04C798.227 111.827 799.614 111.22 800.481 111.22C801.087 111.22 802.214 111.567 803.861 112.26C806.461 113.907 807.761 115.683 807.761 117.59C807.761 120.017 805.854 122.227 802.041 124.22Z" fill="#E63E1A"/>
<path d="M9.18 191.184L7.632 204H1.224L5.292 177.54L16.056 192.876L26.784 177.54L30.888 204H24.444L22.932 191.184L16.056 201.66L9.18 191.184ZM33.2145 195.72C33.2145 193.968 33.6225 192.444 34.4385 191.148C35.2785 189.852 36.4065 188.844 37.8225 188.124C39.2625 187.404 40.8825 187.044 42.6825 187.044C44.5065 187.044 46.1265 187.404 47.5425 188.124C48.9585 188.844 50.0745 189.852 50.8905 191.148C51.7305 192.444 52.1505 193.968 52.1505 195.72C52.1505 197.448 51.7305 198.96 50.8905 200.256C50.0745 201.552 48.9585 202.56 47.5425 203.28C46.1265 204 44.5065 204.36 42.6825 204.36C40.8825 204.36 39.2625 204 37.8225 203.28C36.4065 202.56 35.2785 201.552 34.4385 200.256C33.6225 198.96 33.2145 197.448 33.2145 195.72ZM38.8305 195.72C38.8305 196.992 39.2025 198 39.9465 198.744C40.7145 199.488 41.6265 199.86 42.6825 199.86C43.7385 199.86 44.6385 199.488 45.3825 198.744C46.1505 198 46.5345 196.992 46.5345 195.72C46.5345 194.448 46.1505 193.44 45.3825 192.696C44.6385 191.928 43.7385 191.544 42.6825 191.544C41.6265 191.544 40.7145 191.928 39.9465 192.696C39.2025 193.44 38.8305 194.448 38.8305 195.72ZM55.0617 181.248C55.0617 180.384 55.3617 179.676 55.9617 179.124C56.5857 178.572 57.3417 178.296 58.2297 178.296C59.1177 178.296 59.8617 178.572 60.4617 179.124C61.0857 179.676 61.3977 180.384 61.3977 181.248C61.3977 182.112 61.0857 182.82 60.4617 183.372C59.8617 183.9 59.1177 184.164 58.2297 184.164C57.3417 184.164 56.5857 183.9 55.9617 183.372C55.3617 182.82 55.0617 182.112 55.0617 181.248ZM55.5657 187.44H60.8577V204H55.5657V187.44ZM80.6999 195.72C80.6999 197.04 81.1319 198.084 81.9959 198.852C82.8599 199.62 83.9039 200.004 85.1279 200.004C86.1119 200.004 87.0479 199.8 87.9359 199.392C88.8239 198.96 89.5079 198.348 89.9879 197.556V202.848C89.4119 203.304 88.6919 203.676 87.8279 203.964C86.9639 204.228 85.9079 204.36 84.6599 204.36C82.8119 204.36 81.1679 204 79.7279 203.28C78.2879 202.56 77.1479 201.552 76.3079 200.256C75.4919 198.96 75.0839 197.448 75.0839 195.72C75.0839 193.968 75.4919 192.456 76.3079 191.184C77.1479 189.888 78.2879 188.88 79.7279 188.16C81.1679 187.44 82.8119 187.08 84.6599 187.08C85.9079 187.08 86.9639 187.224 87.8279 187.512C88.6919 187.776 89.4119 188.112 89.9879 188.52V193.848C89.5079 193.056 88.7999 192.456 87.8639 192.048C86.9279 191.64 86.0159 191.436 85.1279 191.436C84.3119 191.436 83.5679 191.628 82.8959 192.012C82.2239 192.372 81.6839 192.876 81.2759 193.524C80.8919 194.172 80.6999 194.904 80.6999 195.72ZM94.412 178.8H100.064L96.356 187.98H92.468L94.412 178.8ZM111.377 204.36C109.433 204.36 107.753 204.012 106.337 203.316C104.945 202.596 103.865 201.588 103.097 200.292C102.329 198.996 101.945 197.472 101.945 195.72C101.945 193.032 102.773 190.92 104.429 189.384C106.085 187.848 108.365 187.08 111.269 187.08C114.125 187.08 116.321 187.812 117.857 189.276C119.417 190.74 120.197 192.804 120.197 195.468C120.197 195.732 120.197 195.984 120.197 196.224C120.197 196.464 120.185 196.68 120.161 196.872H107.525C107.669 198 108.065 198.876 108.713 199.5C109.361 200.124 110.213 200.436 111.269 200.436C113.189 200.436 114.557 199.716 115.373 198.276L120.269 199.464C118.517 202.728 115.553 204.36 111.377 204.36ZM111.161 190.716C109.193 190.716 108.005 191.76 107.597 193.848H114.365C114.269 192.888 113.933 192.132 113.357 191.58C112.805 191.004 112.073 190.716 111.161 190.716ZM124.454 197.988C125.726 199.044 126.806 199.764 127.694 200.148C128.606 200.508 129.35 200.688 129.926 200.688C131.006 200.688 131.546 200.256 131.546 199.392C131.546 198.864 131.294 198.444 130.79 198.132C130.286 197.796 129.362 197.412 128.018 196.98C127.25 196.716 126.506 196.38 125.786 195.972C125.066 195.564 124.478 195.024 124.022 194.352C123.566 193.68 123.338 192.816 123.338 191.76C123.338 190.248 123.926 189.096 125.102 188.304C126.278 187.488 127.754 187.08 129.53 187.08C130.946 187.08 132.242 187.32 133.418 187.8C134.594 188.256 135.662 188.832 136.622 189.528L134.678 193.092C134.006 192.444 133.214 191.904 132.302 191.472C131.414 191.04 130.598 190.824 129.854 190.824C129.374 190.824 129.002 190.92 128.738 191.112C128.498 191.304 128.378 191.556 128.378 191.868C128.378 192.42 128.702 192.828 129.35 193.092C130.022 193.356 130.97 193.728 132.194 194.208C133.058 194.52 133.85 194.88 134.57 195.288C135.29 195.696 135.866 196.212 136.298 196.836C136.754 197.46 136.982 198.288 136.982 199.32C136.982 201.072 136.442 202.404 135.362 203.316C134.282 204.228 132.746 204.684 130.754 204.684C128.954 204.684 127.358 204.396 125.966 203.82C124.574 203.22 123.314 202.476 122.186 201.588L124.454 197.988ZM138.028 187.44H140.944V181.68H146.2V187.44H149.116V191.94H146.2V204H140.944V191.94H138.028V187.44ZM169.282 191.184L167.734 204H161.326L165.394 177.54L176.158 192.876L186.886 177.54L190.99 204H184.546L183.034 191.184L176.158 201.66L169.282 191.184ZM196.088 192.516L194.252 188.88C195.212 188.424 196.34 187.992 197.636 187.584C198.956 187.176 200.396 186.972 201.956 186.972C203.42 186.972 204.728 187.188 205.88 187.62C207.032 188.028 207.944 188.628 208.616 189.42C209.288 190.212 209.624 191.184 209.624 192.336V204H204.404V201.732C203.9 202.596 203.144 203.256 202.136 203.712C201.152 204.144 200.084 204.36 198.932 204.36C197.876 204.36 196.892 204.168 195.98 203.784C195.092 203.376 194.372 202.776 193.82 201.984C193.292 201.192 193.028 200.232 193.028 199.104C193.028 197.52 193.58 196.272 194.684 195.36C195.812 194.424 197.42 193.956 199.508 193.956C200.516 193.956 201.44 194.064 202.28 194.28C203.12 194.472 203.828 194.712 204.404 195V193.56C204.404 191.928 203.36 191.112 201.272 191.112C200.552 191.112 199.832 191.196 199.112 191.364C198.392 191.532 197.756 191.736 197.204 191.976C196.676 192.192 196.304 192.372 196.088 192.516ZM198.536 198.816C198.536 199.464 198.752 199.968 199.184 200.328C199.64 200.664 200.204 200.832 200.876 200.832C201.764 200.832 202.556 200.568 203.252 200.04C203.948 199.488 204.332 198.672 204.404 197.592C203.42 197.16 202.352 196.944 201.2 196.944C200.24 196.944 199.556 197.112 199.148 197.448C198.74 197.76 198.536 198.216 198.536 198.816ZM223.846 193.092C223.558 192.804 223.246 192.576 222.91 192.408C222.598 192.24 222.202 192.156 221.722 192.156C220.93 192.156 220.282 192.468 219.778 193.092C219.298 193.716 219.058 194.628 219.058 195.828V204H213.694V187.44H219.058V189.528C219.586 188.76 220.21 188.16 220.93 187.728C221.674 187.272 222.442 187.044 223.234 187.044C223.834 187.044 224.41 187.176 224.962 187.44C225.514 187.68 225.934 188.004 226.222 188.412L223.846 193.092ZM228.171 181.248C228.171 180.384 228.471 179.676 229.071 179.124C229.695 178.572 230.451 178.296 231.339 178.296C232.227 178.296 232.971 178.572 233.571 179.124C234.195 179.676 234.507 180.384 234.507 181.248C234.507 182.112 234.195 182.82 233.571 183.372C232.971 183.9 232.227 184.164 231.339 184.164C230.451 184.164 229.695 183.9 229.071 183.372C228.471 182.82 228.171 182.112 228.171 181.248ZM228.675 187.44H233.967V204H228.675V187.44ZM249.208 193.92C249.208 192.936 249.028 192.192 248.668 191.688C248.308 191.16 247.684 190.896 246.796 190.896C245.932 190.896 245.236 191.16 244.708 191.688C244.18 192.192 243.916 192.936 243.916 193.92V204H238.444V187.44H243.916V189.924C244.396 189.012 245.044 188.304 245.86 187.8C246.7 187.296 247.732 187.044 248.956 187.044C251.02 187.044 252.52 187.596 253.456 188.7C254.416 189.804 254.896 191.352 254.896 193.344V204H249.208V193.92ZM267.611 204.36C265.667 204.36 263.987 204.012 262.571 203.316C261.179 202.596 260.099 201.588 259.331 200.292C258.563 198.996 258.179 197.472 258.179 195.72C258.179 193.032 259.007 190.92 260.663 189.384C262.319 187.848 264.599 187.08 267.503 187.08C270.359 187.08 272.555 187.812 274.091 189.276C275.651 190.74 276.431 192.804 276.431 195.468C276.431 195.732 276.431 195.984 276.431 196.224C276.431 196.464 276.419 196.68 276.395 196.872H263.759C263.903 198 264.299 198.876 264.947 199.5C265.595 200.124 266.447 200.436 267.503 200.436C269.423 200.436 270.791 199.716 271.607 198.276L276.503 199.464C274.751 202.728 271.787 204.36 267.611 204.36ZM267.395 190.716C265.427 190.716 264.239 191.76 263.831 193.848H270.599C270.503 192.888 270.167 192.132 269.591 191.58C269.039 191.004 268.307 190.716 267.395 190.716ZM280.191 200.04L285.663 201.192L281.127 210.192L277.023 209.364L280.191 200.04ZM299.921 181.248C299.921 180.384 300.221 179.676 300.821 179.124C301.445 178.572 302.201 178.296 303.089 178.296C303.977 178.296 304.721 178.572 305.321 179.124C305.945 179.676 306.257 180.384 306.257 181.248C306.257 182.112 305.945 182.82 305.321 183.372C304.721 183.9 303.977 184.164 303.089 184.164C302.201 184.164 301.445 183.9 300.821 183.372C300.221 182.82 299.921 182.112 299.921 181.248ZM297.113 206.772C297.329 207.036 297.569 207.252 297.833 207.42C298.097 207.588 298.409 207.672 298.769 207.672C299.921 207.672 300.497 206.856 300.497 205.224V187.44H305.753V206.592C305.753 208.392 305.225 209.844 304.169 210.948C303.113 212.052 301.553 212.604 299.489 212.604C298.289 212.604 297.329 212.4 296.609 211.992C295.889 211.584 295.325 211.176 294.917 210.768L297.113 206.772ZM318.658 204.36C316.714 204.36 315.034 204.012 313.618 203.316C312.226 202.596 311.146 201.588 310.378 200.292C309.61 198.996 309.226 197.472 309.226 195.72C309.226 193.032 310.054 190.92 311.71 189.384C313.366 187.848 315.646 187.08 318.55 187.08C321.406 187.08 323.602 187.812 325.138 189.276C326.698 190.74 327.478 192.804 327.478 195.468C327.478 195.732 327.478 195.984 327.478 196.224C327.478 196.464 327.466 196.68 327.442 196.872H314.806C314.95 198 315.346 198.876 315.994 199.5C316.642 200.124 317.494 200.436 318.55 200.436C320.47 200.436 321.838 199.716 322.654 198.276L327.55 199.464C325.798 202.728 322.834 204.36 318.658 204.36ZM318.442 190.716C316.474 190.716 315.286 191.76 314.878 193.848H321.646C321.55 192.888 321.214 192.132 320.638 191.58C320.086 191.004 319.354 190.716 318.442 190.716ZM342.528 197.988C343.8 199.044 344.88 199.764 345.768 200.148C346.68 200.508 347.424 200.688 348 200.688C349.08 200.688 349.62 200.256 349.62 199.392C349.62 198.864 349.368 198.444 348.864 198.132C348.36 197.796 347.436 197.412 346.092 196.98C345.324 196.716 344.58 196.38 343.86 195.972C343.14 195.564 342.552 195.024 342.096 194.352C341.64 193.68 341.412 192.816 341.412 191.76C341.412 190.248 342 189.096 343.176 188.304C344.352 187.488 345.828 187.08 347.604 187.08C349.02 187.08 350.316 187.32 351.492 187.8C352.668 188.256 353.736 188.832 354.696 189.528L352.752 193.092C352.08 192.444 351.288 191.904 350.376 191.472C349.488 191.04 348.672 190.824 347.928 190.824C347.448 190.824 347.076 190.92 346.812 191.112C346.572 191.304 346.452 191.556 346.452 191.868C346.452 192.42 346.776 192.828 347.424 193.092C348.096 193.356 349.044 193.728 350.268 194.208C351.132 194.52 351.924 194.88 352.644 195.288C353.364 195.696 353.94 196.212 354.372 196.836C354.828 197.46 355.056 198.288 355.056 199.32C355.056 201.072 354.516 202.404 353.436 203.316C352.356 204.228 350.82 204.684 348.828 204.684C347.028 204.684 345.432 204.396 344.04 203.82C342.648 203.22 341.388 202.476 340.26 201.588L342.528 197.988ZM363.77 197.52C363.77 198.48 363.938 199.224 364.274 199.752C364.634 200.28 365.258 200.544 366.146 200.544C367.01 200.544 367.706 200.28 368.234 199.752C368.762 199.224 369.026 198.48 369.026 197.52V187.44H374.498V204H369.026V201.516C368.546 202.404 367.886 203.112 367.046 203.64C366.23 204.144 365.21 204.396 363.986 204.396C361.946 204.396 360.446 203.844 359.486 202.74C358.526 201.612 358.046 200.064 358.046 198.096V187.44H363.77V197.52ZM378.429 181.248C378.429 180.384 378.729 179.676 379.329 179.124C379.953 178.572 380.709 178.296 381.597 178.296C382.485 178.296 383.229 178.572 383.829 179.124C384.453 179.676 384.765 180.384 384.765 181.248C384.765 182.112 384.453 182.82 383.829 183.372C383.229 183.9 382.485 184.164 381.597 184.164C380.709 184.164 379.953 183.9 379.329 183.372C378.729 182.82 378.429 182.112 378.429 181.248ZM378.933 187.44H384.225V204H378.933V187.44ZM389.602 197.988C390.874 199.044 391.954 199.764 392.842 200.148C393.754 200.508 394.498 200.688 395.074 200.688C396.154 200.688 396.694 200.256 396.694 199.392C396.694 198.864 396.442 198.444 395.938 198.132C395.434 197.796 394.51 197.412 393.166 196.98C392.398 196.716 391.654 196.38 390.934 195.972C390.214 195.564 389.626 195.024 389.17 194.352C388.714 193.68 388.486 192.816 388.486 191.76C388.486 190.248 389.074 189.096 390.25 188.304C391.426 187.488 392.902 187.08 394.678 187.08C396.094 187.08 397.39 187.32 398.566 187.8C399.742 188.256 400.81 188.832 401.77 189.528L399.826 193.092C399.154 192.444 398.362 191.904 397.45 191.472C396.562 191.04 395.746 190.824 395.002 190.824C394.522 190.824 394.15 190.92 393.886 191.112C393.646 191.304 393.526 191.556 393.526 191.868C393.526 192.42 393.85 192.828 394.498 193.092C395.17 193.356 396.118 193.728 397.342 194.208C398.206 194.52 398.998 194.88 399.718 195.288C400.438 195.696 401.014 196.212 401.446 196.836C401.902 197.46 402.13 198.288 402.13 199.32C402.13 201.072 401.59 202.404 400.51 203.316C399.43 204.228 397.894 204.684 395.902 204.684C394.102 204.684 392.506 204.396 391.114 203.82C389.722 203.22 388.462 202.476 387.334 201.588L389.602 197.988ZM414.941 195.72C414.941 193.848 415.313 192.276 416.057 191.004C416.801 189.708 417.773 188.736 418.973 188.088C420.173 187.416 421.445 187.08 422.789 187.08C425.237 187.08 427.133 188.088 428.477 190.104V175.92H433.913V204H428.477V201.336C427.133 203.352 425.237 204.36 422.789 204.36C421.445 204.36 420.173 204.036 418.973 203.388C417.773 202.716 416.801 201.732 416.057 200.436C415.313 199.14 414.941 197.568 414.941 195.72ZM420.665 195.72C420.665 197.016 421.049 198.048 421.817 198.816C422.609 199.584 423.545 199.968 424.625 199.968C425.249 199.968 425.849 199.8 426.425 199.464C427.025 199.128 427.517 198.648 427.901 198.024C428.285 197.376 428.477 196.608 428.477 195.72C428.477 194.808 428.285 194.04 427.901 193.416C427.517 192.792 427.025 192.312 426.425 191.976C425.849 191.64 425.249 191.472 424.625 191.472C423.545 191.472 422.609 191.856 421.817 192.624C421.049 193.392 420.665 194.424 420.665 195.72ZM446.557 204.36C444.613 204.36 442.933 204.012 441.517 203.316C440.125 202.596 439.045 201.588 438.277 200.292C437.509 198.996 437.125 197.472 437.125 195.72C437.125 193.032 437.953 190.92 439.609 189.384C441.265 187.848 443.545 187.08 446.449 187.08C449.305 187.08 451.501 187.812 453.037 189.276C454.597 190.74 455.377 192.804 455.377 195.468C455.377 195.732 455.377 195.984 455.377 196.224C455.377 196.464 455.365 196.68 455.341 196.872H442.705C442.849 198 443.245 198.876 443.893 199.5C444.541 200.124 445.393 200.436 446.449 200.436C448.369 200.436 449.737 199.716 450.553 198.276L455.449 199.464C453.697 202.728 450.733 204.36 446.557 204.36ZM446.341 190.716C444.373 190.716 443.185 191.76 442.777 193.848H449.545C449.449 192.888 449.113 192.132 448.537 191.58C447.985 191.004 447.253 190.716 446.341 190.716ZM459.633 197.988C460.905 199.044 461.985 199.764 462.873 200.148C463.785 200.508 464.529 200.688 465.105 200.688C466.185 200.688 466.725 200.256 466.725 199.392C466.725 198.864 466.473 198.444 465.969 198.132C465.465 197.796 464.541 197.412 463.197 196.98C462.429 196.716 461.685 196.38 460.965 195.972C460.245 195.564 459.657 195.024 459.201 194.352C458.745 193.68 458.517 192.816 458.517 191.76C458.517 190.248 459.105 189.096 460.281 188.304C461.457 187.488 462.933 187.08 464.709 187.08C466.125 187.08 467.421 187.32 468.597 187.8C469.773 188.256 470.841 188.832 471.801 189.528L469.857 193.092C469.185 192.444 468.393 191.904 467.481 191.472C466.593 191.04 465.777 190.824 465.033 190.824C464.553 190.824 464.181 190.92 463.917 191.112C463.677 191.304 463.557 191.556 463.557 191.868C463.557 192.42 463.881 192.828 464.529 193.092C465.201 193.356 466.149 193.728 467.373 194.208C468.237 194.52 469.029 194.88 469.749 195.288C470.469 195.696 471.045 196.212 471.477 196.836C471.933 197.46 472.161 198.288 472.161 199.32C472.161 201.072 471.621 202.404 470.541 203.316C469.461 204.228 467.925 204.684 465.933 204.684C464.133 204.684 462.537 204.396 461.145 203.82C459.753 203.22 458.493 202.476 457.365 201.588L459.633 197.988ZM474.827 181.248C474.827 180.384 475.127 179.676 475.727 179.124C476.351 178.572 477.107 178.296 477.995 178.296C478.883 178.296 479.627 178.572 480.227 179.124C480.851 179.676 481.163 180.384 481.163 181.248C481.163 182.112 480.851 182.82 480.227 183.372C479.627 183.9 478.883 184.164 477.995 184.164C477.107 184.164 476.351 183.9 475.727 183.372C475.127 182.82 474.827 182.112 474.827 181.248ZM475.331 187.44H480.623V204H475.331V187.44ZM484.489 205.188H489.781C489.877 206.22 490.261 206.988 490.933 207.492C491.605 207.996 492.469 208.248 493.525 208.248C494.677 208.248 495.649 207.864 496.441 207.096C497.257 206.328 497.665 205.176 497.665 203.64V201.048C496.345 202.968 494.449 203.928 491.977 203.928C490.633 203.928 489.361 203.616 488.161 202.992C486.961 202.368 485.989 201.432 485.245 200.184C484.501 198.912 484.129 197.352 484.129 195.504C484.129 193.632 484.501 192.072 485.245 190.824C485.989 189.576 486.961 188.64 488.161 188.016C489.361 187.392 490.633 187.08 491.977 187.08C494.449 187.08 496.345 188.04 497.665 189.96V187.44H502.885V203.64C502.885 205.776 502.477 207.504 501.661 208.824C500.845 210.144 499.741 211.104 498.349 211.704C496.981 212.304 495.457 212.604 493.777 212.604C491.713 212.604 490.021 212.292 488.701 211.668C487.381 211.044 486.385 210.168 485.713 209.04C485.041 207.936 484.633 206.652 484.489 205.188ZM489.853 195.504C489.853 196.8 490.237 197.796 491.005 198.492C491.797 199.188 492.733 199.536 493.813 199.536C494.437 199.536 495.037 199.392 495.613 199.104C496.213 198.792 496.705 198.336 497.089 197.736C497.473 197.136 497.665 196.392 497.665 195.504C497.665 194.592 497.473 193.848 497.089 193.272C496.705 192.672 496.213 192.228 495.613 191.94C495.037 191.628 494.437 191.472 493.813 191.472C492.733 191.472 491.797 191.82 491.005 192.516C490.237 193.212 489.853 194.208 489.853 195.504ZM517.837 193.92C517.837 192.936 517.657 192.192 517.297 191.688C516.937 191.16 516.313 190.896 515.425 190.896C514.561 190.896 513.865 191.16 513.337 191.688C512.809 192.192 512.545 192.936 512.545 193.92V204H507.073V187.44H512.545V189.924C513.025 189.012 513.673 188.304 514.489 187.8C515.329 187.296 516.361 187.044 517.585 187.044C519.649 187.044 521.149 187.596 522.085 188.7C523.045 189.804 523.525 191.352 523.525 193.344V204H517.837V193.92ZM536.24 204.36C534.296 204.36 532.616 204.012 531.2 203.316C529.808 202.596 528.728 201.588 527.96 200.292C527.192 198.996 526.808 197.472 526.808 195.72C526.808 193.032 527.636 190.92 529.292 189.384C530.948 187.848 533.228 187.08 536.132 187.08C538.988 187.08 541.184 187.812 542.72 189.276C544.28 190.74 545.06 192.804 545.06 195.468C545.06 195.732 545.06 195.984 545.06 196.224C545.06 196.464 545.048 196.68 545.024 196.872H532.388C532.532 198 532.928 198.876 533.576 199.5C534.224 200.124 535.076 200.436 536.132 200.436C538.052 200.436 539.42 199.716 540.236 198.276L545.132 199.464C543.38 202.728 540.416 204.36 536.24 204.36ZM536.024 190.716C534.056 190.716 532.868 191.76 532.46 193.848H539.228C539.132 192.888 538.796 192.132 538.22 191.58C537.668 191.004 536.936 190.716 536.024 190.716ZM558.569 193.092C558.281 192.804 557.969 192.576 557.633 192.408C557.321 192.24 556.925 192.156 556.445 192.156C555.653 192.156 555.005 192.468 554.501 193.092C554.021 193.716 553.781 194.628 553.781 195.828V204H548.417V187.44H553.781V189.528C554.309 188.76 554.933 188.16 555.653 187.728C556.397 187.272 557.165 187.044 557.957 187.044C558.557 187.044 559.133 187.176 559.685 187.44C560.237 187.68 560.657 188.004 560.945 188.412L558.569 193.092ZM573.399 205.188H578.691C578.787 206.22 579.171 206.988 579.843 207.492C580.515 207.996 581.379 208.248 582.435 208.248C583.587 208.248 584.559 207.864 585.351 207.096C586.167 206.328 586.575 205.176 586.575 203.64V201.048C585.255 202.968 583.359 203.928 580.887 203.928C579.543 203.928 578.271 203.616 577.071 202.992C575.871 202.368 574.899 201.432 574.155 200.184C573.411 198.912 573.039 197.352 573.039 195.504C573.039 193.632 573.411 192.072 574.155 190.824C574.899 189.576 575.871 188.64 577.071 188.016C578.271 187.392 579.543 187.08 580.887 187.08C583.359 187.08 585.255 188.04 586.575 189.96V187.44H591.795V203.64C591.795 205.776 591.387 207.504 590.571 208.824C589.755 210.144 588.651 211.104 587.259 211.704C585.891 212.304 584.367 212.604 582.687 212.604C580.623 212.604 578.931 212.292 577.611 211.668C576.291 211.044 575.295 210.168 574.623 209.04C573.951 207.936 573.543 206.652 573.399 205.188ZM578.763 195.504C578.763 196.8 579.147 197.796 579.915 198.492C580.707 199.188 581.643 199.536 582.723 199.536C583.347 199.536 583.947 199.392 584.523 199.104C585.123 198.792 585.615 198.336 585.999 197.736C586.383 197.136 586.575 196.392 586.575 195.504C586.575 194.592 586.383 193.848 585.999 193.272C585.615 192.672 585.123 192.228 584.523 191.94C583.947 191.628 583.347 191.472 582.723 191.472C581.643 191.472 580.707 191.82 579.915 192.516C579.147 193.212 578.763 194.208 578.763 195.504ZM606.135 193.092C605.847 192.804 605.535 192.576 605.199 192.408C604.887 192.24 604.491 192.156 604.011 192.156C603.219 192.156 602.571 192.468 602.067 193.092C601.587 193.716 601.347 194.628 601.347 195.828V204H595.983V187.44H601.347V189.528C601.875 188.76 602.499 188.16 603.219 187.728C603.963 187.272 604.731 187.044 605.523 187.044C606.123 187.044 606.699 187.176 607.251 187.44C607.803 187.68 608.223 188.004 608.511 188.412L606.135 193.092ZM612.584 192.516L610.748 188.88C611.708 188.424 612.836 187.992 614.132 187.584C615.452 187.176 616.892 186.972 618.452 186.972C619.916 186.972 621.224 187.188 622.376 187.62C623.528 188.028 624.44 188.628 625.112 189.42C625.784 190.212 626.12 191.184 626.12 192.336V204H620.9V201.732C620.396 202.596 619.64 203.256 618.632 203.712C617.648 204.144 616.58 204.36 615.428 204.36C614.372 204.36 613.388 204.168 612.476 203.784C611.588 203.376 610.868 202.776 610.316 201.984C609.788 201.192 609.524 200.232 609.524 199.104C609.524 197.52 610.076 196.272 611.18 195.36C612.308 194.424 613.916 193.956 616.004 193.956C617.012 193.956 617.936 194.064 618.776 194.28C619.616 194.472 620.324 194.712 620.9 195V193.56C620.9 191.928 619.856 191.112 617.768 191.112C617.048 191.112 616.328 191.196 615.608 191.364C614.888 191.532 614.252 191.736 613.7 191.976C613.172 192.192 612.8 192.372 612.584 192.516ZM615.032 198.816C615.032 199.464 615.248 199.968 615.68 200.328C616.136 200.664 616.7 200.832 617.372 200.832C618.26 200.832 619.052 200.568 619.748 200.04C620.444 199.488 620.828 198.672 620.9 197.592C619.916 197.16 618.848 196.944 617.696 196.944C616.736 196.944 616.052 197.112 615.644 197.448C615.236 197.76 615.032 198.216 615.032 198.816ZM635.59 211.92H630.154V187.44H635.59V190.104C636.19 189.072 636.958 188.28 637.894 187.728C638.854 187.152 639.97 186.864 641.242 186.864C642.586 186.864 643.858 187.2 645.058 187.872C646.258 188.52 647.23 189.504 647.974 190.824C648.742 192.144 649.126 193.776 649.126 195.72C649.126 197.664 648.742 199.296 647.974 200.616C647.23 201.912 646.258 202.896 645.058 203.568C643.858 204.24 642.586 204.576 641.242 204.576C639.97 204.576 638.854 204.3 637.894 203.748C636.958 203.172 636.19 202.368 635.59 201.336V211.92ZM643.402 195.72C643.402 194.424 643.006 193.428 642.214 192.732C641.446 192.036 640.522 191.688 639.442 191.688C638.842 191.688 638.242 191.844 637.642 192.156C637.042 192.444 636.55 192.888 636.166 193.488C635.782 194.064 635.59 194.808 635.59 195.72C635.59 196.608 635.782 197.352 636.166 197.952C636.55 198.552 637.042 199.008 637.642 199.32C638.242 199.608 638.842 199.752 639.442 199.752C640.522 199.752 641.446 199.404 642.214 198.708C643.006 198.012 643.402 197.016 643.402 195.72ZM663.138 193.92C663.138 192.936 662.958 192.192 662.598 191.688C662.238 191.16 661.614 190.896 660.726 190.896C659.862 190.896 659.166 191.16 658.638 191.688C658.11 192.192 657.846 192.936 657.846 193.92V204H652.374V175.92H657.846V189.708C658.302 188.82 658.95 188.124 659.79 187.62C660.63 187.092 661.662 186.828 662.886 186.828C664.95 186.828 666.414 187.368 667.278 188.448C668.142 189.528 668.574 191.088 668.574 193.128V204H663.138V193.92ZM672.511 181.248C672.511 180.384 672.811 179.676 673.411 179.124C674.035 178.572 674.791 178.296 675.679 178.296C676.567 178.296 677.311 178.572 677.911 179.124C678.535 179.676 678.847 180.384 678.847 181.248C678.847 182.112 678.535 182.82 677.911 183.372C677.311 183.9 676.567 184.164 675.679 184.164C674.791 184.164 674.035 183.9 673.411 183.372C672.811 182.82 672.511 182.112 672.511 181.248ZM673.015 187.44H678.307V204H673.015V187.44ZM681.812 195.72C681.812 193.776 682.184 192.144 682.928 190.824C683.672 189.504 684.644 188.52 685.844 187.872C687.044 187.2 688.316 186.864 689.66 186.864C690.932 186.864 692.048 187.152 693.008 187.728C693.968 188.28 694.748 189.072 695.348 190.104V187.44H700.784V211.92H695.348V201.336C694.748 202.368 693.968 203.172 693.008 203.748C692.048 204.3 690.932 204.576 689.66 204.576C688.316 204.576 687.044 204.24 685.844 203.568C684.644 202.896 683.672 201.912 682.928 200.616C682.184 199.296 681.812 197.664 681.812 195.72ZM687.536 195.72C687.536 197.016 687.92 198.012 688.688 198.708C689.48 199.404 690.416 199.752 691.496 199.752C692.12 199.752 692.72 199.608 693.296 199.32C693.896 199.008 694.388 198.552 694.772 197.952C695.156 197.352 695.348 196.608 695.348 195.72C695.348 194.808 695.156 194.064 694.772 193.488C694.388 192.888 693.896 192.444 693.296 192.156C692.72 191.844 692.12 191.688 691.496 191.688C690.416 191.688 689.48 192.036 688.688 192.732C687.92 193.428 687.536 194.424 687.536 195.72ZM710.692 197.52C710.692 198.48 710.86 199.224 711.196 199.752C711.556 200.28 712.18 200.544 713.068 200.544C713.932 200.544 714.628 200.28 715.156 199.752C715.684 199.224 715.948 198.48 715.948 197.52V187.44H721.42V204H715.948V201.516C715.468 202.404 714.808 203.112 713.968 203.64C713.152 204.144 712.132 204.396 710.908 204.396C708.868 204.396 707.368 203.844 706.408 202.74C705.448 201.612 704.968 200.064 704.968 198.096V187.44H710.692V197.52ZM734.135 204.36C732.191 204.36 730.511 204.012 729.095 203.316C727.703 202.596 726.623 201.588 725.855 200.292C725.087 198.996 724.703 197.472 724.703 195.72C724.703 193.032 725.531 190.92 727.187 189.384C728.843 187.848 731.123 187.08 734.027 187.08C736.883 187.08 739.079 187.812 740.615 189.276C742.175 190.74 742.955 192.804 742.955 195.468C742.955 195.732 742.955 195.984 742.955 196.224C742.955 196.464 742.943 196.68 742.919 196.872H730.283C730.427 198 730.823 198.876 731.471 199.5C732.119 200.124 732.971 200.436 734.027 200.436C735.947 200.436 737.315 199.716 738.131 198.276L743.027 199.464C741.275 202.728 738.311 204.36 734.135 204.36ZM733.919 190.716C731.951 190.716 730.763 191.76 730.355 193.848H737.123C737.027 192.888 736.691 192.132 736.115 191.58C735.563 191.004 734.831 190.716 733.919 190.716ZM744.807 201.552C744.807 200.64 745.119 199.86 745.743 199.212C746.391 198.54 747.207 198.204 748.191 198.204C749.175 198.204 749.991 198.54 750.639 199.212C751.287 199.86 751.611 200.64 751.611 201.552C751.611 202.464 751.287 203.244 750.639 203.892C749.991 204.54 749.175 204.864 748.191 204.864C747.207 204.864 746.391 204.54 745.743 203.892C745.119 203.244 744.807 202.464 744.807 201.552Z" fill="#252B2D"/>
</svg>
